SplineFontDB: 3.2
FontName: TypoRoundRegularDemo
FullName: Typo Round Regular Demo
FamilyName: Typo Round Regular Demo
Weight: Book
Copyright: Typeface (c) StudioTypo. 2016. All Rights Reserved
Version: 1.00 January 8, 2016, initial release
ItalicAngle: 0
UnderlinePosition: -292
UnderlineWidth: 150
Ascent: 1638
Descent: 410
InvalidEm: 0
sfntRevision: 0x00010000
LayerCount: 2
Layer: 0 1 "Back" 1
Layer: 1 1 "Fore" 0
XUID: [1021 565 546547998 30903]
StyleMap: 0x0000
FSType: 2
OS2Version: 3
OS2_WeightWidthSlopeOnly: 0
OS2_UseTypoMetrics: 0
CreationTime: 1451913024
ModificationTime: 1746327044
PfmFamily: 17
TTFWeight: 400
TTFWidth: 5
LineGap: 28
VLineGap: 0
Panose: 2 0 5 0 0 0 0 0 0 0
OS2TypoAscent: 1502
OS2TypoAOffset: 0
OS2TypoDescent: -411
OS2TypoDOffset: 0
OS2TypoLinegap: 205
OS2WinAscent: 1924
OS2WinAOffset: 0
OS2WinDescent: 502
OS2WinDOffset: 0
HheadAscent: 1924
HheadAOffset: 0
HheadDescent: -502
HheadDOffset: 0
OS2SubXSize: 1437
OS2SubYSize: 1284
OS2SubXOff: 0
OS2SubYOff: 471
OS2SupXSize: 1437
OS2SupYSize: 1284
OS2SupXOff: 0
OS2SupYOff: 561
OS2StrikeYSize: 102
OS2StrikeYPos: 530
OS2CapHeight: 1502
OS2XHeight: 1092
OS2Vendor: 'STPO'
OS2CodePages: 20000093.00000000
OS2UnicodeRanges: 800000a7.5000a44f.00000000.00000000
Lookup: 1 0 0 "'sinf' Scientific Inferiors in Latin lookup 0" { "'sinf' Scientific Inferiors in Latin lookup 0 subtable"  } ['sinf' ('latn' <'dflt' > ) ]
Lookup: 1 0 0 "'frac' Diagonal Fractions in Latin lookup 1" { "'frac' Diagonal Fractions in Latin lookup 1 subtable"  } ['frac' ('latn' <'dflt' > ) ]
Lookup: 4 0 0 "'frac' Diagonal Fractions in Latin lookup 2" { "'frac' Diagonal Fractions in Latin lookup 2 subtable"  } ['frac' ('latn' <'dflt' > ) ]
Lookup: 1 0 0 "'nalt' Alternate Annotation Forms in Latin lookup 3" { "'nalt' Alternate Annotation Forms in Latin lookup 3 subtable"  } ['nalt' ('latn' <'dflt' > ) ]

StartChar: .notdef
Encoding: 65536 -1 0
Width: 1547
GlyphClass: 1
Flags: W
LayerCount: 2
Fore
SplineSet
100 -282 m 1,0,-1
 100 1428 l 1,1,-1
 1435 1428 l 1,2,-1
 1435 -282 l 1,3,-1
 100 -282 l 1,0,-1
135 -242 m 1,4,-1
 1399 -242 l 1,5,-1
 1399 1398 l 1,6,-1
 135 1398 l 1,7,-1
 135 -242 l 1,4,-1
725 471 m 1,8,-1
 728 471 l 1,9,-1
 739 470 l 1,10,-1
 739 452 l 2,11,12
 741 382 741 382 741 326 c 1,13,-1
 734 324 l 1,14,-1
 728 324 l 1,15,16
 725 395 725 395 725 462 c 2,17,-1
 725 465 l 1,18,-1
 725 471 l 1,8,-1
1224 471 m 1,19,-1
 1225 471 l 1,20,-1
 1239 470 l 1,21,22
 1238 461 1238 461 1238 457 c 0,23,24
 1238 402 1238 402 1241 326 c 1,25,-1
 1230 324 l 1,26,-1
 1226 324 l 1,27,28
 1224 382 1224 382 1223 453 c 0,29,30
 1224 465 1224 465 1224 471 c 1,19,-1
790 466 m 1,31,-1
 794 466 l 1,32,33
 794 464 794 464 801 454 c 1,34,35
 797 436 797 436 797 424 c 2,36,-1
 797 406 l 2,37,38
 797 362 797 362 812 348 c 1,39,-1
 813 348 l 2,40,41
 834 348 834 348 848 465 c 1,42,-1
 850 465 l 1,43,44
 862 461 862 461 863 461 c 1,45,46
 857 403 857 403 857 375 c 0,47,48
 857 344 857 344 869 344 c 1,49,50
 871 328 871 328 871 324 c 1,51,-1
 863 324 l 2,52,53
 850 324 850 324 843 356 c 1,54,-1
 842 356 l 1,55,56
 831 328 831 328 815 328 c 2,57,-1
 810 328 l 2,58,59
 790 328 790 328 783 389 c 0,60,61
 782 393 782 393 782 411 c 2,62,-1
 782 422 l 2,63,64
 782 447 782 447 790 466 c 1,31,-1
1094 466 m 2,65,-1
 1100 466 l 2,66,67
 1112 466 1112 466 1128 438 c 0,68,69
 1140 416 1140 416 1140 394 c 2,70,-1
 1140 385 l 2,71,72
 1140 348 1140 348 1100 327 c 0,73,74
 1093 324 1093 324 1086 324 c 2,75,-1
 1079 324 l 2,76,77
 1049 324 1049 324 1044 367 c 1,78,-1
 1044 376 l 2,79,80
 1044 426 1044 426 1084 464 c 1,81,82
 1092 466 1092 466 1094 466 c 2,65,-1
249 462 m 2,83,-1
 258 462 l 1,84,85
 286 457 286 457 286 422 c 0,86,87
 286 388 286 388 253 373 c 0,88,89
 241 368 241 368 226 366 c 1,90,-1
 226 329 l 1,91,-1
 225 329 l 2,92,93
 220 329 220 329 211 332 c 1,94,-1
 211 366 l 1,95,-1
 206 366 l 1,96,-1
 201 367 l 1,97,98
 201 378 201 378 206 386 c 1,99,-1
 211 386 l 1,100,-1
 211 386 l 1,101,102
 211 427 211 427 205 427 c 1,103,104
 199 434 199 434 199 438 c 0,105,106
 217 462 217 462 249 462 c 2,83,-1
1059 376 m 2,107,-1
 1059 368 l 2,108,109
 1059 347 1059 347 1084 344 c 0,110,111
 1106 344 1106 344 1121 371 c 0,112,113
 1126 379 1126 379 1126 389 c 2,114,-1
 1126 392 l 2,115,116
 1126 419 1126 419 1100 445 c 0,117,118
 1097 445 1097 445 1097 447 c 1,119,120
 1080 447 1080 447 1062 397 c 0,121,122
 1059 386 1059 386 1059 376 c 2,107,-1
224 435 m 0,123,124
 225 400 225 400 225 388 c 1,125,126
 226 388 226 388 226 386 c 1,127,128
 255 392 255 392 263 403 c 0,129,130
 271 413 271 413 271 421 c 0,131,132
 271 439 271 439 256 442 c 2,133,-1
 250 442 l 2,134,135
 224 439 224 439 224 435 c 0,123,124
404 438 m 0,136,137
 423 438 423 438 432 389 c 1,138,139
 431 389 431 389 417 385 c 1,140,141
 411 418 411 418 404 418 c 0,142,143
 387 409 387 409 384 343 c 0,144,145
 385 329 385 329 385 328 c 0,146,147
 375 326 375 326 370 326 c 1,148,149
 357 395 357 395 357 413 c 1,150,151
 369 415 369 415 372 415 c 1,152,-1
 372 414 l 2,153,154
 372 410 372 410 375 395 c 1,155,-1
 376 395 l 1,156,157
 386 438 386 438 404 438 c 0,136,137
537 432 m 0,158,159
 557 432 557 432 570 400 c 0,160,161
 572 391 572 391 572 383 c 2,162,-1
 572 380 l 2,163,164
 572 344 572 344 537 327 c 0,165,166
 532 326 532 326 528 326 c 0,167,168
 501 330 501 330 501 364 c 0,169,170
 501 414 501 414 526 429 c 0,171,172
 528 430 528 430 537 432 c 0,158,159
614 432 m 0,173,174
 633 432 633 432 650 343 c 0,175,176
 651 343 651 343 651 336 c 1,177,178
 643 329 643 329 639 329 c 0,179,180
 624 391 624 391 616 409 c 1,181,182
 607 396 607 396 598 339 c 0,183,184
 597 339 597 339 593 329 c 1,185,-1
 586 329 l 2,186,187
 579 329 579 329 577 386 c 0,188,189
 575 400 575 400 575 409 c 1,190,191
 582 411 582 411 589 411 c 1,192,193
 592 394 592 394 592 391 c 1,194,-1
 593 391 l 1,195,196
 600 432 600 432 614 432 c 0,173,174
1185 432 m 0,197,198
 1201 432 1201 432 1220 336 c 1,199,200
 1211 329 1211 329 1207 329 c 0,201,202
 1192 395 1192 395 1183 409 c 1,203,204
 1177 397 1177 397 1164 335 c 0,205,206
 1161 329 1161 329 1160 329 c 2,207,-1
 1154 329 l 2,208,209
 1147 329 1147 329 1144 409 c 1,210,211
 1150 411 1150 411 1159 411 c 1,212,213
 1160 392 1160 392 1160 389 c 1,214,-1
 1161 389 l 1,215,216
 1168 432 1168 432 1185 432 c 0,197,198
472 430 m 1,217,218
 490 425 490 425 490 413 c 2,219,-1
 490 412 l 2,220,221
 490 410 490 410 480 404 c 1,222,-1
 479 404 l 1,223,224
 475 411 475 411 466 411 c 0,225,226
 453 411 453 411 450 400 c 0,227,228
 450 395 450 395 479 394 c 1,229,230
 499 383 499 383 499 360 c 0,231,232
 499 335 499 335 479 326 c 2,233,-1
 471 324 l 1,234,-1
 466 324 l 2,235,236
 442 324 442 324 432 347 c 1,237,-1
 432 348 l 2,238,239
 433 351 433 351 441 359 c 1,240,-1
 442 359 l 1,241,242
 454 344 454 344 470 344 c 1,243,244
 484 348 484 348 484 360 c 0,245,246
 480 375 480 375 463 375 c 0,247,248
 435 375 435 375 435 397 c 2,249,-1
 435 400 l 2,250,251
 435 430 435 430 472 430 c 1,217,218
912 430 m 0,252,253
 925 430 925 430 932 412 c 1,254,-1
 932 411 l 1,255,256
 921 404 921 404 918 404 c 1,257,258
 918 410 918 410 907 411 c 0,259,260
 895 411 895 411 890 401 c 1,261,-1
 890 400 l 2,262,263
 890 395 890 395 919 394 c 1,264,265
 938 385 938 385 938 358 c 0,266,267
 938 332 938 332 914 324 c 1,268,-1
 906 324 l 2,269,270
 883 324 883 324 871 347 c 1,271,-1
 871 348 l 1,272,273
 879 359 879 359 881 359 c 2,274,-1
 882 359 l 1,275,276
 894 344 894 344 909 344 c 1,277,278
 923 348 923 348 923 360 c 256,279,280
 923 372 923 372 907 375 c 0,281,282
 882 375 882 375 877 386 c 0,283,284
 875 397 875 397 875 400 c 0,285,286
 875 430 875 430 912 430 c 0,252,253
1249 429 m 1,287,-1
 1249 429 l 1,288,289
 1262 427 1262 427 1263 427 c 1,290,291
 1262 409 1262 409 1262 401 c 2,292,-1
 1262 392 l 2,293,294
 1264 357 1264 357 1275 357 c 2,295,-1
 1276 357 l 1,296,297
 1294 370 1294 370 1294 424 c 1,298,-1
 1294 424 l 1,299,-1
 1309 424 l 1,300,-1
 1309 421 l 1,301,302
 1316 343 1316 343 1316 333 c 0,303,304
 1316 287 1316 287 1286 277 c 0,305,306
 1284 277 1284 277 1281 277 c 2,307,-1
 1276 277 l 2,308,309
 1258 277 1258 277 1253 296 c 0,310,311
 1252 301 1252 301 1252 306 c 1,312,-1
 1252 306 l 1,313,314
 1252 321 1252 321 1255 321 c 2,315,-1
 1256 321 l 1,316,317
 1265 315 1265 315 1268 315 c 1,318,-1
 1267 306 l 2,319,320
 1267 298 1267 298 1276 297 c 2,321,-1
 1278 297 l 2,322,323
 1301 297 1301 297 1301 339 c 0,324,325
 1301 344 1301 344 1300 360 c 1,326,-1
 1299 360 l 1,327,328
 1291 336 1291 336 1273 336 c 2,329,-1
 1272 336 l 2,330,331
 1253 336 1253 336 1247 383 c 1,332,-1
 1247 400 l 2,333,334
 1247 410 1247 410 1249 429 c 1,287,-1
331 428 m 1,335,336
 354 424 354 424 354 406 c 2,337,-1
 354 400 l 2,338,339
 354 380 354 380 315 364 c 1,340,-1
 305 364 l 1,341,342
 305 353 305 353 322 348 c 0,343,344
 333 348 333 348 343 366 c 1,345,-1
 347 366 l 1,346,347
 355 354 355 354 355 351 c 0,348,349
 338 329 338 329 325 329 c 2,350,-1
 318 329 l 2,351,352
 292 329 292 329 288 374 c 0,353,354
 288 414 288 414 320 427 c 1,355,-1
 331 428 l 1,335,336
681 428 m 2,356,-1
 692 428 l 1,357,358
 719 419 719 419 719 383 c 0,359,360
 718 362 718 362 718 348 c 2,361,362
 718 348 718 348 720 332 c 1,363,364
 711 324 711 324 707 324 c 2,365,-1
 706 324 l 1,366,-1
 704 335 l 1,367,368
 692 327 692 327 681 327 c 2,369,-1
 674 327 l 2,370,371
 652 330 652 330 652 348 c 2,372,-1
 652 356 l 2,373,374
 652 386 652 386 684 391 c 0,375,376
 695 390 695 390 704 385 c 1,377,-1
 704 386 l 1,378,379
 700 411 700 411 687 411 c 0,380,381
 678 411 678 411 669 401 c 1,382,-1
 666 401 l 2,383,384
 664 402 664 402 658 412 c 1,385,-1
 658 414 l 1,386,387
 670 428 670 428 681 428 c 2,356,-1
983 428 m 1,388,389
 1007 424 1007 424 1007 405 c 0,390,391
 1007 376 1007 376 965 364 c 1,392,-1
 958 364 l 1,393,-1
 958 362 l 1,394,395
 965 348 965 348 974 348 c 0,396,397
 984 348 984 348 997 366 c 1,398,-1
 998 366 l 2,399,400
 999 366 999 366 1007 354 c 1,401,402
 1007 345 1007 345 986 332 c 0,403,404
 982 329 982 329 977 329 c 2,405,-1
 970 329 l 2,406,407
 946 329 946 329 941 373 c 1,408,409
 941 413 941 413 971 427 c 1,410,-1
 983 428 l 1,388,389
516 365 m 0,411,412
 518 347 518 347 528 347 c 2,413,-1
 531 347 l 1,414,415
 555 354 555 354 557 382 c 2,416,-1
 557 385 l 1,417,418
 551 411 551 411 537 411 c 2,419,-1
 535 411 l 2,420,421
 522 411 522 411 517 379 c 0,422,423
 516 372 516 372 516 365 c 0,411,412
305 385 m 1,424,425
 324 385 324 385 338 403 c 1,426,-1
 338 405 l 1,427,428
 331 407 331 407 329 407 c 0,429,430
 313 407 313 407 305 388 c 1,431,-1
 305 385 l 1,424,425
958 385 m 1,432,-1
 961 385 l 2,433,434
 978 385 978 385 992 404 c 1,435,436
 986 407 986 407 983 407 c 2,437,-1
 980 407 l 2,438,439
 964 407 964 407 958 386 c 1,440,-1
 958 385 l 1,432,-1
667 354 m 2,441,-1
 667 351 l 2,442,443
 667 348 667 348 677 345 c 0,444,445
 694 345 694 345 702 362 c 1,446,447
 694 369 694 369 683 369 c 0,448,449
 667 366 667 366 667 354 c 2,441,-1
618 254 m 2,450,451
 631 254 631 254 633 220 c 2,452,-1
 633 217 l 1,453,-1
 627 216 l 1,454,-1
 625 216 l 1,455,456
 622 237 622 237 617 237 c 0,457,458
 611 237 611 237 609 218 c 0,459,460
 610 216 610 216 610 214 c 0,461,462
 610 204 610 204 612 175 c 1,463,464
 617 178 617 178 621 178 c 2,465,-1
 624 178 l 1,466,-1
 624 163 l 1,467,-1
 613 160 l 1,468,469
 618 103 618 103 618 91 c 1,470,-1
 607 91 l 1,471,472
 603 145 603 145 603 156 c 1,473,-1
 602 156 l 2,474,475
 597 154 597 154 592 154 c 1,476,-1
 592 171 l 1,477,478
 598 171 598 171 602 173 c 1,479,480
 599 194 599 194 599 225 c 0,481,482
 602 254 602 254 616 254 c 2,483,-1
 618 254 l 2,450,451
816 254 m 0,484,485
 828 254 828 254 832 217 c 1,486,-1
 824 216 l 1,487,-1
 822 216 l 1,488,-1
 822 217 l 2,489,490
 822 232 822 232 815 237 c 1,491,492
 807 232 807 232 807 222 c 0,493,494
 807 214 807 214 810 176 c 2,495,496
 810 176 810 176 810 175 c 1,497,498
 815 178 815 178 820 178 c 2,499,-1
 821 178 l 1,500,-1
 822 170 l 1,501,-1
 822 163 l 1,502,503
 821 163 821 163 810 160 c 1,504,-1
 812 157 l 1,505,506
 812 145 812 145 816 91 c 1,507,-1
 805 91 l 1,508,509
 805 97 805 97 801 156 c 1,510,511
 792 154 792 154 789 154 c 1,512,-1
 789 171 l 1,513,-1
 800 172 l 1,514,515
 797 218 797 218 797 224 c 0,516,517
 797 254 797 254 816 254 c 0,484,485
709 237 m 1,518,-1
 713 237 l 1,519,-1
 719 237 l 1,520,-1
 719 228 l 2,521,522
 719 167 719 167 722 96 c 1,523,-1
 711 96 l 1,524,525
 709 161 709 161 709 198 c 2,526,-1
 709 237 l 1,518,-1
735 237 m 2,527,-1
 736 237 l 1,528,-1
 744 237 l 1,529,-1
 744 207 l 2,530,531
 744 175 744 175 747 96 c 1,532,-1
 736 96 l 1,533,534
 733 162 733 162 733 232 c 2,535,-1
 733 235 l 2,536,537
 733 237 733 237 735 237 c 2,527,-1
529 234 m 0,538,539
 537 232 537 232 539 232 c 1,540,541
 537 203 537 203 537 190 c 1,542,-1
 539 190 l 1,543,-1
 551 192 l 1,544,-1
 551 175 l 1,545,546
 550 175 550 175 537 173 c 1,547,-1
 541 99 l 1,548,-1
 539 97 l 1,549,-1
 531 97 l 1,550,551
 528 126 528 126 526 172 c 1,552,-1
 513 172 l 1,553,-1
 513 188 l 1,554,-1
 524 189 l 1,555,-1
 526 189 l 1,556,-1
 526 207 l 2,557,558
 526 234 526 234 529 234 c 0,538,539
994 234 m 0,559,560
 997 234 997 234 1006 232 c 1,561,562
 1003 219 1003 219 1003 203 c 2,563,-1
 1003 190 l 1,564,-1
 1006 190 l 1,565,-1
 1018 192 l 1,566,-1
 1018 175 l 1,567,-1
 1015 175 l 1,568,-1
 1003 173 l 1,569,-1
 1008 99 l 1,570,-1
 1003 97 l 1,571,-1
 997 97 l 1,572,573
 994 159 994 159 994 172 c 1,574,-1
 979 172 l 1,575,-1
 980 180 l 1,576,-1
 980 188 l 1,577,-1
 991 189 l 1,578,-1
 992 189 l 1,579,-1
 992 190 l 2,580,581
 992 211 992 211 994 234 c 0,559,560
1140 234 m 2,582,583
 1143 234 1143 234 1152 232 c 1,584,585
 1150 214 1150 214 1150 198 c 2,586,-1
 1150 190 l 1,587,-1
 1152 190 l 1,588,-1
 1164 192 l 1,589,-1
 1164 184 l 1,590,-1
 1164 175 l 1,591,592
 1163 175 1163 175 1150 173 c 1,593,-1
 1150 167 l 2,594,595
 1150 152 1150 152 1154 99 c 1,596,-1
 1152 97 l 1,597,-1
 1143 97 l 1,598,-1
 1139 172 l 1,599,-1
 1126 172 l 1,600,-1
 1126 188 l 1,601,-1
 1137 189 l 1,602,-1
 1138 189 l 1,603,-1
 1140 234 l 2,582,583
404 231 m 1,604,-1
 414 231 l 2,605,606
 428 231 428 231 437 208 c 1,607,608
 431 202 431 202 431 199 c 1,609,-1
 428 199 l 1,610,611
 419 214 419 214 407 214 c 0,612,613
 390 214 390 214 372 188 c 0,614,615
 363 169 363 169 363 154 c 2,616,-1
 363 149 l 2,617,618
 363 120 363 120 387 114 c 0,619,620
 389 113 389 113 395 113 c 0,621,622
 426 116 426 116 426 133 c 2,623,-1
 426 143 l 1,624,625
 422 146 422 146 414 146 c 2,626,-1
 404 146 l 1,627,-1
 404 163 l 1,628,629
 432 163 432 163 437 154 c 0,630,631
 439 147 439 147 439 145 c 0,632,633
 437 120 437 120 437 116 c 0,634,635
 437 105 437 105 441 90 c 1,636,637
 440 90 440 90 433 85 c 1,638,-1
 432 85 l 2,639,640
 428 85 428 85 426 107 c 1,641,642
 420 99 420 99 397 95 c 1,643,-1
 395 95 l 2,644,645
 357 95 357 95 352 146 c 1,646,-1
 352 150 l 2,647,648
 352 208 352 208 397 229 c 1,649,-1
 404 231 l 1,604,-1
866 199 m 0,650,651
 889 199 889 199 900 161 c 1,652,-1
 900 147 l 2,653,654
 900 113 900 113 866 97 c 1,655,-1
 859 96 l 2,656,657
 843 96 843 96 835 116 c 0,658,659
 833 127 833 127 833 133 c 2,660,-1
 833 137 l 2,661,662
 833 178 833 178 852 194 c 0,663,664
 860 199 860 199 866 199 c 0,650,651
943 199 m 256,665,666
 958 199 958 199 977 105 c 1,667,-1
 976 105 l 1,668,669
 971 101 971 101 967 101 c 0,670,671
 952 168 952 168 943 180 c 1,672,673
 936 173 936 173 920 101 c 1,674,-1
 918 100 l 1,675,-1
 914 100 l 2,676,677
 908 100 908 100 905 176 c 1,678,-1
 913 178 l 1,679,-1
 915 178 l 1,680,681
 918 162 918 162 918 145 c 1,682,-1
 919 145 l 1,683,684
 928 199 928 199 943 199 c 256,665,666
487 195 m 0,685,686
 507 191 507 191 507 175 c 1,687,688
 508 175 508 175 508 173 c 0,689,690
 508 150 508 150 473 137 c 0,691,692
 468 134 468 134 458 134 c 1,693,-1
 458 133 l 2,694,695
 458 122 458 122 475 116 c 1,696,-1
 476 116 l 2,697,698
 486 116 486 116 499 132 c 1,699,-1
 502 132 l 1,700,701
 502 130 502 130 508 123 c 1,702,-1
 508 122 l 1,703,704
 494 100 494 100 479 100 c 2,705,-1
 473 100 l 2,706,707
 454 100 454 100 446 132 c 1,708,-1
 446 147 l 2,709,710
 446 180 446 180 472 193 c 0,711,712
 477 195 477 195 487 195 c 0,685,686
1083 195 m 2,713,-1
 1094 195 l 2,714,715
 1110 195 1110 195 1118 167 c 0,716,717
 1120 151 1120 151 1121 149 c 0,718,719
 1120 143 1120 143 1118 123 c 0,720,721
 1120 119 1120 119 1120 100 c 1,722,-1
 1114 96 l 1,723,-1
 1111 96 l 1,724,-1
 1108 108 l 1,725,726
 1098 97 1098 97 1083 97 c 2,727,-1
 1079 97 l 2,728,729
 1058 100 1058 100 1058 117 c 2,730,-1
 1058 125 l 2,731,732
 1061 157 1061 157 1088 157 c 0,733,734
 1100 157 1100 157 1109 149 c 1,735,-1
 1109 152 l 2,736,737
 1109 177 1109 177 1091 181 c 1,738,-1
 1088 181 l 2,739,740
 1082 181 1082 181 1071 173 c 1,741,-1
 1070 173 l 2,742,743
 1069 173 1069 173 1064 180 c 1,744,-1
 1064 182 l 1,745,746
 1074 195 1074 195 1083 195 c 2,713,-1
634 193 m 1,747,748
 636 193 636 193 645 190 c 1,749,750
 645 116 645 116 659 116 c 1,751,752
 678 128 678 128 687 182 c 0,753,754
 688 187 688 187 688 193 c 1,755,-1
 689 193 l 2,756,757
 692 193 692 193 699 190 c 1,758,759
 696 166 696 166 696 145 c 2,760,-1
 696 133 l 2,761,762
 696 124 696 124 701 114 c 1,763,764
 696 107 696 107 696 103 c 1,765,-1
 694 103 l 1,766,767
 687 107 687 107 686 129 c 1,768,-1
 684 129 l 1,769,770
 680 114 680 114 665 100 c 1,771,-1
 656 100 l 2,772,773
 636 100 636 100 636 175 c 2,774,-1
 636 185 l 1,775,-1
 634 193 l 1,747,748
843 137 m 1,776,777
 845 114 845 114 858 114 c 2,778,-1
 859 114 l 2,779,780
 875 114 875 114 886 139 c 0,781,782
 889 147 889 147 889 150 c 0,783,784
 883 181 883 181 867 181 c 2,785,-1
 863 181 l 2,786,787
 848 181 848 181 843 137 c 1,776,777
457 150 m 1,788,789
 480 150 480 150 496 172 c 1,790,791
 494 178 494 178 485 178 c 2,792,-1
 482 178 l 2,793,794
 463 178 463 178 457 150 c 1,788,789
1068 122 m 0,795,796
 1071 114 1071 114 1079 114 c 2,797,-1
 1085 114 l 2,798,799
 1099 114 1099 114 1107 132 c 1,800,801
 1098 140 1098 140 1090 140 c 2,802,-1
 1088 140 l 2,803,804
 1068 137 1068 137 1068 122 c 0,795,796
507 45 m 0,805,806
 508 45 508 45 524 41 c 1,807,808
 520 3 520 3 519 -51 c 0,809,810
 519 -85 519 -85 529 -120 c 1,811,812
 518 -130 518 -130 517 -130 c 2,813,-1
 516 -130 l 2,814,815
 513 -130 513 -130 510 -117 c 1,816,-1
 508 -117 l 1,817,818
 508 -125 508 -125 487 -133 c 1,819,820
 454 -133 454 -133 440 -91 c 0,821,822
 437 -79 437 -79 437 -63 c 0,823,824
 437 -15 437 -15 471 -5 c 1,825,-1
 475 -5 l 2,826,827
 489 -5 489 -5 504 -21 c 1,828,-1
 504 -20 l 2,829,830
 504 -12 504 -12 507 45 c 0,805,806
316 39 m 2,831,-1
 331 34 l 1,832,833
 329 11 329 11 329 -2 c 2,834,-1
 329 -16 l 1,835,836
 342 -13 342 -13 344 -13 c 0,837,838
 346 -33 346 -33 346 -37 c 1,839,-1
 344 -37 l 2,840,841
 335 -38 335 -38 329 -38 c 1,842,843
 332 -101 332 -101 334 -129 c 1,844,845
 322 -131 322 -131 317 -131 c 1,846,-1
 317 -130 l 1,847,848
 312 -69 312 -69 312 -42 c 1,849,-1
 310 -40 l 1,850,-1
 296 -40 l 1,851,-1
 296 -16 l 1,852,-1
 311 -16 l 1,853,-1
 311 -7 l 2,854,855
 311 39 311 39 316 39 c 2,831,-1
674 39 m 1,856,-1
 675 39 l 1,857,-1
 690 34 l 1,858,859
 688 6 688 6 688 -11 c 2,860,-1
 688 -16 l 1,861,862
 702 -13 702 -13 704 -13 c 2,863,-1
 705 -27 l 1,864,-1
 705 -37 l 1,865,866
 689 -38 689 -38 689 -39 c 0,867,868
 689 -62 689 -62 694 -129 c 1,869,870
 681 -131 681 -131 677 -131 c 1,871,-1
 677 -130 l 1,872,873
 672 -55 672 -55 672 -40 c 1,874,-1
 654 -40 l 1,875,-1
 654 -16 l 1,876,-1
 671 -16 l 1,877,878
 671 18 671 18 674 39 c 1,856,-1
546 36 m 0,879,880
 555 36 555 36 557 22 c 2,881,-1
 557 21 l 2,882,883
 557 10 557 10 549 5 c 1,884,-1
 542 5 l 1,885,886
 534 10 534 10 534 22 c 0,887,888
 536 36 536 36 546 36 c 0,879,880
607 -5 m 0,889,890
 632 -5 632 -5 648 -43 c 0,891,892
 650 -54 650 -54 650 -60 c 2,893,-1
 650 -69 l 2,894,895
 650 -109 650 -109 611 -129 c 0,896,897
 607 -131 607 -131 598 -131 c 0,898,899
 571 -131 571 -131 566 -90 c 1,900,-1
 566 -76 l 2,901,902
 566 -25 566 -25 596 -7 c 0,903,904
 606 -5 606 -5 607 -5 c 0,889,890
800 -5 m 1,905,-1
 805 -5 l 2,906,907
 816 -5 816 -5 816 -8 c 2,908,-1
 816 -10 l 1,909,910
 825 -5 825 -5 835 -5 c 0,911,912
 860 -5 860 -5 868 -49 c 0,913,914
 868 -60 868 -60 869 -63 c 0,915,916
 866 -115 866 -115 838 -127 c 1,917,-1
 830 -128 l 1,918,-1
 820 -128 l 1,919,-1
 821 -136 l 2,920,921
 821 -142 821 -142 822 -176 c 1,922,-1
 805 -176 l 1,923,924
 800 -44 800 -44 800 -5 c 1,905,-1
915 -5 m 0,925,926
 938 -5 938 -5 954 -40 c 0,927,928
 958 -53 958 -53 958 -64 c 0,929,930
 958 -107 958 -107 920 -129 c 0,931,932
 912 -131 912 -131 906 -131 c 0,933,934
 884 -131 884 -131 875 -104 c 0,935,936
 873 -92 873 -92 873 -81 c 0,937,938
 873 -27 873 -27 903 -7 c 1,939,940
 914 -5 914 -5 915 -5 c 0,925,926
1117 -5 m 0,941,942
 1141 -5 1141 -5 1156 -40 c 0,943,944
 1160 -48 1160 -48 1160 -59 c 2,945,-1
 1160 -67 l 2,946,947
 1160 -110 1160 -110 1121 -129 c 0,948,949
 1117 -131 1117 -131 1108 -131 c 0,950,951
 1080 -131 1080 -131 1076 -90 c 1,952,-1
 1076 -76 l 2,953,954
 1076 -25 1076 -25 1106 -7 c 0,955,956
 1116 -5 1116 -5 1117 -5 c 0,941,942
1211 -5 m 0,957,958
 1228 -5 1228 -5 1238 -63 c 1,959,-1
 1239 -63 l 1,960,961
 1247 -5 1247 -5 1266 -5 c 2,962,-1
 1267 -5 l 2,963,964
 1291 -5 1291 -5 1307 -123 c 1,965,-1
 1305 -123 l 1,966,967
 1294 -128 1294 -128 1292 -128 c 2,968,-1
 1291 -128 l 1,969,970
 1272 -30 1272 -30 1266 -30 c 1,971,972
 1256 -52 1256 -52 1249 -112 c 0,973,974
 1246 -122 1246 -122 1239 -122 c 0,975,976
 1231 -122 1231 -122 1228 -107 c 0,977,978
 1215 -31 1215 -31 1209 -31 c 1,979,980
 1193 -89 1193 -89 1193 -124 c 1,981,982
 1183 -128 1183 -128 1176 -128 c 1,983,-1
 1176 -127 l 1,984,-1
 1164 -23 l 1,985,986
 1177 -17 1177 -17 1181 -17 c 0,987,988
 1183 -25 1183 -25 1185 -48 c 1,989,-1
 1187 -48 l 1,990,991
 1196 -5 1196 -5 1211 -5 c 0,957,958
258 -6 m 1,992,993
 282 -11 282 -11 282 -27 c 2,994,-1
 282 -28 l 2,995,996
 281 -30 281 -30 270 -37 c 1,997,-1
 267 -37 l 1,998,999
 267 -30 267 -30 254 -29 c 2,1000,-1
 253 -29 l 2,1001,1002
 240 -29 240 -29 233 -39 c 1,1003,-1
 233 -43 l 2,1004,1005
 233 -49 233 -49 264 -49 c 1,1006,1007
 291 -61 291 -61 291 -87 c 2,1008,-1
 291 -92 l 2,1009,1010
 291 -120 291 -120 269 -130 c 0,1011,1012
 264 -133 264 -133 259 -133 c 2,1013,-1
 250 -133 l 2,1014,1015
 227 -133 227 -133 211 -108 c 0,1016,1017
 211 -103 211 -103 222 -92 c 1,1018,-1
 225 -92 l 1,1019,1020
 233 -110 233 -110 255 -110 c 0,1021,1022
 273 -110 273 -110 273 -90 c 0,1023,1024
 273 -75 273 -75 252 -72 c 0,1025,1026
 225 -72 225 -72 220 -60 c 0,1027,1028
 216 -52 216 -52 216 -48 c 2,1029,-1
 216 -40 l 2,1030,1031
 216 -6 216 -6 258 -6 c 1,992,993
713 -7 m 0,1032,1033
 725 -11 725 -11 728 -11 c 1,1034,1035
 727 -34 727 -34 727 -45 c 2,1036,-1
 727 -51 l 2,1037,1038
 727 -84 727 -84 739 -95 c 1,1039,-1
 744 -95 l 1,1040,1041
 766 -77 766 -77 766 -23 c 2,1042,-1
 766 -13 l 1,1043,-1
 783 -13 l 1,1044,-1
 783 -14 l 1,1045,1046
 791 -103 791 -103 791 -117 c 2,1047,-1
 791 -127 l 2,1048,1049
 791 -171 791 -171 763 -187 c 0,1050,1051
 753 -191 753 -191 747 -191 c 0,1052,1053
 725 -191 725 -191 718 -171 c 0,1054,1055
 716 -167 716 -167 716 -162 c 2,1056,-1
 716 -153 l 2,1057,1058
 716 -138 716 -138 720 -138 c 2,1059,-1
 734 -145 l 1,1060,-1
 733 -153 l 1,1061,-1
 733 -157 l 2,1062,1063
 733 -165 733 -165 744 -167 c 2,1064,-1
 748 -167 l 2,1065,1066
 768 -167 768 -167 773 -134 c 0,1067,1068
 774 -130 774 -130 774 -122 c 2,1069,-1
 774 -102 l 1,1070,-1
 773 -89 l 1,1071,-1
 772 -89 l 1,1072,1073
 762 -119 762 -119 743 -119 c 2,1074,-1
 741 -119 l 2,1075,1076
 718 -119 718 -119 711 -69 c 0,1077,1078
 710 -61 710 -61 710 -49 c 2,1079,-1
 710 -40 l 2,1080,1081
 710 -7 710 -7 713 -7 c 0,1032,1033
1033 -8 m 2,1082,-1
 1041 -8 l 2,1083,1084
 1047 -8 1047 -8 1056 -17 c 0,1085,1086
 1067 -29 1067 -29 1067 -35 c 0,1087,1088
 1056 -48 1056 -48 1055 -48 c 1,1089,-1
 1055 -48 l 1,1090,1091
 1044 -33 1044 -33 1037 -33 c 2,1092,-1
 1035 -33 l 1,1093,1094
 1023 -38 1023 -38 1017 -61 c 2,1095,-1
 1013 -82 l 1,1096,1097
 1013 -104 1013 -104 1027 -106 c 2,1098,-1
 1030 -106 l 2,1099,1100
 1041 -106 1041 -106 1064 -90 c 1,1101,-1
 1065 -90 l 1,1102,1103
 1071 -110 1071 -110 1071 -112 c 0,1104,1105
 1046 -130 1046 -130 1024 -130 c 0,1106,1107
 1001 -130 1001 -130 996 -84 c 0,1108,1109
 996 -50 996 -50 1015 -20 c 0,1110,1111
 1027 -8 1027 -8 1033 -8 c 2,1082,-1
537 -10 m 1,1112,-1
 549 -10 l 1,1113,-1
 555 -11 l 2,1114,1115
 555 -14 555 -14 554 -19 c 0,1116,1117
 555 -86 555 -86 558 -128 c 1,1118,-1
 540 -128 l 1,1119,-1
 539 -120 l 1,1120,1121
 537 -52 537 -52 537 -10 c 1,1112,-1
350 -11 m 1,1122,1123
 367 -16 367 -16 367 -17 c 2,1124,-1
 367 -37 l 2,1125,1126
 367 -104 367 -104 379 -104 c 2,1127,-1
 384 -104 l 1,1128,1129
 401 -85 401 -85 408 -49 c 0,1130,1131
 413 -39 413 -39 414 -11 c 1,1132,-1
 416 -11 l 2,1133,1134
 431 -13 431 -13 431 -17 c 0,1135,1136
 428 -59 428 -59 428 -76 c 2,1137,-1
 428 -86 l 2,1138,1139
 428 -96 428 -96 433 -106 c 0,1140,1141
 433 -112 433 -112 423 -124 c 1,1142,-1
 423 -124 l 1,1143,1144
 411 -112 411 -112 411 -99 c 1,1145,-1
 410 -99 l 1,1146,1147
 399 -128 399 -128 382 -128 c 2,1148,-1
 379 -128 l 2,1149,1150
 350 -128 350 -128 350 -35 c 2,1151,-1
 350 -11 l 1,1122,1123
454 -67 m 2,1152,1153
 454 -101 454 -101 484 -107 c 1,1154,-1
 487 -107 l 2,1155,1156
 499 -107 499 -107 502 -81 c 2,1157,-1
 502 -78 l 2,1158,1159
 502 -42 502 -42 481 -30 c 1,1160,-1
 475 -29 l 1,1161,-1
 473 -29 l 2,1162,1163
 456 -29 456 -29 454 -64 c 2,1164,-1
 454 -67 l 2,1152,1153
583 -82 m 0,1165,1166
 583 -104 583 -104 598 -107 c 2,1167,-1
 602 -107 l 2,1168,1169
 617 -107 617 -107 631 -78 c 0,1170,1171
 633 -74 633 -74 633 -69 c 2,1172,-1
 633 -60 l 1,1173,1174
 626 -29 626 -29 609 -29 c 2,1175,-1
 607 -29 l 2,1176,1177
 586 -29 586 -29 583 -82 c 0,1165,1166
816 -37 m 0,1178,1179
 816 -40 816 -40 819 -104 c 1,1180,-1
 826 -105 l 2,1181,1182
 848 -105 848 -105 852 -63 c 1,1183,1184
 849 -29 849 -29 835 -29 c 2,1185,-1
 834 -29 l 2,1186,1187
 824 -29 824 -29 816 -37 c 0,1178,1179
890 -82 m 1,1188,-1
 890 -87 l 2,1189,1190
 890 -104 890 -104 905 -107 c 2,1191,-1
 907 -107 l 2,1192,1193
 923 -107 923 -107 937 -81 c 0,1194,1195
 941 -73 941 -73 941 -63 c 0,1196,1197
 935 -29 935 -29 913 -29 c 0,1198,1199
 894 -29 894 -29 890 -82 c 1,1188,-1
1092 -82 m 0,1200,1201
 1092 -107 1092 -107 1109 -107 c 2,1202,-1
 1112 -107 l 2,1203,1204
 1126 -107 1126 -107 1141 -77 c 0,1205,1206
 1143 -71 1143 -71 1143 -67 c 2,1207,-1
 1143 -60 l 1,1208,1209
 1135 -29 1135 -29 1118 -29 c 2,1210,-1
 1117 -29 l 2,1211,1212
 1097 -29 1097 -29 1092 -82 c 0,1200,1201
977 -96 m 0,1213,1214
 986 -96 986 -96 989 -110 c 2,1215,-1
 989 -115 l 2,1216,1217
 986 -128 986 -128 977 -128 c 256,1218,1219
 968 -128 968 -128 966 -113 c 0,1220,1221
 967 -96 967 -96 977 -96 c 0,1213,1214
717 1368 m 1,1222,-1
 717 1126 l 1,1223,-1
 456 1126 l 2,1224,1225
 402 1126 402 1126 353 1088 c 1,1226,-1
 353 1098 l 1,1227,1228
 500 1368 500 1368 717 1368 c 1,1222,-1
800 1368 m 1,1229,-1
 810 1368 l 2,1230,1231
 942 1368 942 1368 1089 1219 c 1,1232,1233
 1145 1151 1145 1151 1145 1126 c 1,1234,-1
 800 1126 l 1,1235,-1
 800 1368 l 1,1229,-1
428 1042 m 2,1236,-1
 717 1042 l 1,1237,-1
 717 948 l 1,1238,1239
 682 967 682 967 642 967 c 2,1240,-1
 428 967 l 2,1241,1242
 409 967 409 967 409 986 c 2,1243,-1
 409 1023 l 2,1244,1245
 412 1042 412 1042 428 1042 c 2,1236,-1
800 1042 m 1,1246,-1
 1183 1042 l 1,1247,-1
 1192 948 l 1,1248,-1
 1192 930 l 2,1249,1250
 1192 745 1192 745 1061 632 c 1,1251,-1
 894 632 l 1,1252,1253
 800 644 800 644 800 725 c 2,1254,-1
 800 1042 l 1,1246,-1
325 967 m 1,1255,-1
 334 967 l 1,1256,1257
 334 895 334 895 474 883 c 1,1258,-1
 651 883 l 2,1259,1260
 717 883 717 883 717 818 c 2,1261,-1
 717 715 l 2,1262,1263
 717 632 717 632 614 632 c 2,1264,-1
 456 632 l 1,1265,1266
 325 752 325 752 325 911 c 2,1267,-1
 325 967 l 1,1255,-1
754 604 m 1,1268,-1
 763 604 l 1,1269,1270
 824 548 824 548 950 548 c 1,1271,-1
 950 538 l 1,1272,1273
 842 501 842 501 763 501 c 2,1274,-1
 754 501 l 2,1275,1276
 674 501 674 501 567 538 c 1,1277,-1
 567 548 l 1,1278,1279
 699 548 699 548 754 604 c 1,1268,-1
EndSplineSet
EndChar

StartChar: exclam
Encoding: 33 33 4
Width: 420
GlyphClass: 1
Flags: W
LayerCount: 2
Fore
SplineSet
302 1411 m 2,0,1
 302 1449 302 1449 275 1476 c 0,2,3
 248 1502 248 1502 211 1502 c 2,4,-1
 208 1502 l 2,5,6
 171 1502 171 1502 144 1476 c 0,7,8
 117 1449 117 1449 117 1411 c 2,9,-1
 117 819 l 1,10,-1
 150 394 l 1,11,-1
 269 394 l 1,12,-1
 302 819 l 1,13,-1
 302 1411 l 2,0,1
210 0 m 0,14,15
 164 0 164 0 132 32 c 256,16,17
 100 64 100 64 100 110 c 0,18,19
 100 155 100 155 132 187 c 256,20,21
 164 219 164 219 210 219 c 0,22,23
 255 219 255 219 287 187 c 0,24,25
 320 155 320 155 320 110 c 0,26,27
 320 64 320 64 287 32 c 0,28,29
 255 0 255 0 210 0 c 0,14,15
EndSplineSet
EndChar

StartChar: quotedbl
Encoding: 34 34 5
Width: 581
GlyphClass: 1
Flags: W
LayerCount: 2
Fore
SplineSet
55 1503 m 1,0,-1
 240 1503 l 1,1,-1
 240 1290 l 1,2,-1
 207 986 l 1,3,-1
 88 986 l 1,4,-1
 55 1290 l 1,5,-1
 55 1503 l 1,0,-1
341 1503 m 1,6,-1
 526 1503 l 1,7,-1
 526 1290 l 1,8,-1
 493 986 l 1,9,-1
 374 986 l 1,10,-1
 341 1290 l 1,11,-1
 341 1503 l 1,6,-1
EndSplineSet
EndChar

StartChar: numbersign
Encoding: 35 35 6
Width: 1352
GlyphClass: 1
Flags: W
LayerCount: 2
Fore
SplineSet
328 600 m 1,0,-1
 387 893 l 1,1,-1
 175 893 l 2,2,3
 142 893 142 893 118 917 c 0,4,5
 95 941 95 941 95 974 c 2,6,-1
 95 976 l 2,7,8
 95 1009 95 1009 118 1033 c 0,9,10
 142 1057 142 1057 175 1057 c 2,11,-1
 420 1057 l 1,12,-1
 474 1327 l 2,13,14
 481 1360 481 1360 509 1378 c 256,15,16
 537 1396 537 1396 569 1390 c 1,17,-1
 571 1389 l 1,18,19
 604 1383 604 1383 623 1356 c 0,20,21
 641 1327 641 1327 635 1294 c 2,22,-1
 587 1057 l 1,23,-1
 875 1057 l 1,24,-1
 929 1327 l 2,25,26
 936 1360 936 1360 964 1378 c 256,27,28
 992 1396 992 1396 1024 1390 c 1,29,-1
 1027 1389 l 1,30,31
 1059 1383 1059 1383 1078 1356 c 0,32,33
 1096 1327 1096 1327 1090 1294 c 2,34,-1
 1042 1057 l 1,35,-1
 1257 1057 l 2,36,37
 1290 1057 1290 1057 1313 1033 c 0,38,39
 1337 1009 1337 1009 1337 976 c 2,40,-1
 1337 974 l 2,41,42
 1337 941 1337 941 1313 917 c 0,43,44
 1290 893 1290 893 1257 893 c 2,45,-1
 1009 893 l 1,46,-1
 950 600 l 1,47,-1
 1177 600 l 2,48,49
 1211 600 1211 600 1234 576 c 0,50,51
 1258 552 1258 552 1258 519 c 2,52,-1
 1258 516 l 2,53,54
 1258 484 1258 484 1234 460 c 0,55,56
 1211 436 1211 436 1177 436 c 2,57,-1
 917 436 l 1,58,-1
 859 147 l 2,59,60
 853 114 853 114 825 96 c 256,61,62
 797 78 797 78 765 84 c 1,63,-1
 762 85 l 1,64,65
 730 91 730 91 711 119 c 256,66,67
 692 147 692 147 699 180 c 2,68,-1
 750 436 l 1,69,-1
 462 436 l 1,70,-1
 404 147 l 2,71,72
 398 114 398 114 370 96 c 256,73,74
 342 78 342 78 309 84 c 1,75,-1
 307 85 l 1,76,77
 275 91 275 91 256 119 c 256,78,79
 237 147 237 147 244 180 c 2,80,-1
 295 436 l 1,81,-1
 96 436 l 2,82,83
 62 436 62 436 38 460 c 0,84,85
 15 484 15 484 15 516 c 2,86,-1
 15 519 l 2,87,88
 15 552 15 552 38 576 c 0,89,90
 62 600 62 600 96 600 c 2,91,-1
 328 600 l 1,0,-1
554 893 m 1,92,-1
 495 600 l 1,93,-1
 783 600 l 1,94,-1
 842 893 l 1,95,-1
 554 893 l 1,92,-1
EndSplineSet
EndChar

StartChar: dollar
Encoding: 36 36 7
Width: 981
GlyphClass: 1
Flags: W
LayerCount: 2
Fore
SplineSet
825 1104 m 2,0,1
 866 1104 866 1104 891 1137 c 0,2,3
 915 1170 915 1170 904 1209 c 0,4,5
 872 1321 872 1321 787 1402 c 256,6,7
 702 1483 702 1483 589 1509 c 1,8,-1
 589 1604 l 2,9,10
 589 1656 589 1656 555 1656 c 256,11,12
 521 1656 521 1656 521 1604 c 2,13,-1
 521 1520 l 1,14,15
 506 1521 506 1521 490 1521 c 256,16,17
 474 1521 474 1521 458 1519 c 1,18,-1
 458 1604 l 2,19,20
 458 1656 458 1656 424 1656 c 256,21,22
 390 1656 390 1656 390 1604 c 2,23,-1
 390 1509 l 1,24,25
 246 1474 246 1474 154 1359 c 0,26,27
 60 1241 60 1241 60 1090 c 0,28,29
 60 893 60 893 163 795 c 0,30,31
 233 727 233 727 390 687 c 1,32,-1
 390 190 l 1,33,34
 288 236 288 236 256 342 c 0,35,36
 238 400 238 400 177 400 c 2,37,-1
 156 400 l 2,38,39
 115 400 115 400 90 367 c 0,40,41
 65 335 65 335 77 295 c 0,42,43
 108 184 108 184 193 103 c 0,44,45
 277 23 277 23 390 -4 c 1,46,-1
 390 -100 l 2,47,48
 390 -152 390 -152 424 -152 c 256,49,50
 458 -152 458 -152 458 -100 c 2,51,-1
 458 -15 l 1,52,53
 474 -16 474 -16 490 -16 c 256,54,55
 506 -16 506 -16 521 -15 c 1,56,-1
 521 -100 l 2,57,58
 521 -152 521 -152 555 -152 c 256,59,60
 589 -152 589 -152 589 -100 c 2,61,-1
 589 -5 l 1,62,63
 733 29 733 29 826 145 c 0,64,65
 921 263 921 263 921 414 c 0,66,67
 921 612 921 612 817 710 c 0,68,69
 746 778 746 778 589 819 c 1,70,-1
 589 1315 l 1,71,72
 692 1270 692 1270 725 1162 c 0,73,74
 743 1104 743 1104 804 1104 c 2,75,-1
 825 1104 l 2,0,1
521 835 m 1,76,77
 481 845 481 845 458 852 c 1,78,-1
 458 1334 l 1,79,80
 474 1336 474 1336 490 1336 c 256,81,82
 506 1336 506 1336 521 1334 c 1,83,-1
 521 835 l 1,76,77
589 630 m 1,84,85
 736 570 736 570 736 414 c 0,86,87
 736 340 736 340 695 278 c 0,88,89
 655 218 655 218 589 189 c 1,90,-1
 589 630 l 1,84,85
521 171 m 1,91,92
 506 169 506 169 490 169 c 256,93,94
 474 169 474 169 458 171 c 1,95,-1
 458 670 l 1,96,97
 497 660 497 660 521 653 c 1,98,-1
 521 171 l 1,91,92
390 875 m 1,99,100
 245 935 245 935 245 1090 c 0,101,102
 245 1164 245 1164 285 1225 c 0,103,104
 325 1285 325 1285 390 1314 c 1,105,-1
 390 875 l 1,99,100
EndSplineSet
EndChar

StartChar: percent
Encoding: 37 37 8
Width: 1451
GlyphClass: 1
Flags: W
LayerCount: 2
Fore
SplineSet
1087 1502 m 1,0,-1
 512 0 l 1,1,-1
 364 0 l 1,2,-1
 939 1502 l 1,3,-1
 1087 1502 l 1,0,-1
1187 393 m 0,5,6
 1230 351 1230 351 1230 291 c 2,7,-1
 1230 271 l 2,8,9
 1230 211 1230 211 1187 169 c 0,10,11
 1145 126 1145 126 1085 126 c 0,12,13
 1026 126 1026 126 983 169 c 0,14,15
 941 211 941 211 941 271 c 2,16,-1
 941 291 l 2,17,18
 941 351 941 351 983 393 c 0,19,20
 1026 436 1026 436 1085 436 c 0,21,4
 1145 436 1145 436 1187 393 c 0,5,6
897 484 m 0,23,24
 819 406 819 406 819 296 c 2,25,-1
 819 266 l 2,26,27
 819 156 819 156 897 78 c 0,28,29
 976 0 976 0 1085 0 c 0,30,31
 1195 0 1195 0 1273 78 c 256,32,33
 1351 156 1351 156 1351 266 c 2,34,-1
 1351 296 l 2,35,36
 1351 406 1351 406 1273 484 c 256,37,38
 1195 562 1195 562 1085 562 c 0,39,22
 976 562 976 562 897 484 c 0,23,24
468 1334 m 0,41,42
 510 1291 510 1291 510 1232 c 2,43,-1
 510 1211 l 2,44,45
 510 1151 510 1151 468 1109 c 0,46,47
 425 1066 425 1066 366 1066 c 0,48,49
 306 1066 306 1066 264 1109 c 0,50,51
 221 1151 221 1151 221 1211 c 2,52,-1
 221 1232 l 2,53,54
 221 1291 221 1291 264 1334 c 0,55,56
 306 1376 306 1376 366 1376 c 0,57,40
 425 1376 425 1376 468 1334 c 0,41,42
178 1424 m 256,59,60
 100 1346 100 1346 100 1237 c 2,61,-1
 100 1206 l 2,62,63
 100 1096 100 1096 178 1018 c 256,64,65
 256 940 256 940 366 940 c 256,66,67
 476 940 476 940 554 1018 c 256,68,69
 632 1096 632 1096 632 1206 c 2,70,-1
 632 1237 l 2,71,72
 632 1346 632 1346 554 1424 c 256,73,74
 476 1502 476 1502 366 1502 c 256,75,58
 256 1502 256 1502 178 1424 c 256,59,60
EndSplineSet
EndChar

StartChar: ampersand
Encoding: 38 38 9
Width: 1281
GlyphClass: 1
Flags: W
LayerCount: 2
Fore
SplineSet
867 682 m 1,0,-1
 533 682 l 2,1,2
 431 682 431 682 358 609 c 256,3,4
 285 536 285 536 285 433 c 256,5,6
 285 330 285 330 358 257 c 0,7,8
 431 185 431 185 533 185 c 2,9,-1
 618 185 l 2,10,11
 720 185 720 185 793 257 c 0,12,13
 866 330 866 330 866 433 c 1,14,-1
 867 433 l 1,15,-1
 867 682 l 1,0,-1
1175 853 m 2,16,17
 1209 853 1209 853 1232 829 c 0,18,19
 1256 805 1256 805 1256 772 c 2,20,-1
 1256 769 l 2,21,22
 1256 736 1256 736 1232 712 c 0,23,24
 1209 689 1209 689 1175 689 c 2,25,-1
 1032 689 l 1,26,-1
 1032 264 l 2,27,28
 1032 223 1032 223 1061 194 c 0,29,30
 1091 165 1091 165 1132 165 c 2,31,-1
 1175 165 l 2,32,33
 1209 165 1209 165 1233 141 c 0,34,35
 1256 117 1256 117 1256 84 c 2,36,-1
 1256 81 l 2,37,38
 1256 48 1256 48 1233 24 c 0,39,40
 1209 0 1209 0 1175 0 c 2,41,-1
 1152 0 l 2,42,43
 1004 0 1004 0 919 122 c 1,44,45
 793 0 793 0 618 0 c 2,46,-1
 533 0 l 2,47,48
 354 0 354 0 227 127 c 256,49,50
 100 254 100 254 100 433 c 0,51,52
 100 647 100 647 270 777 c 1,53,54
 123 900 123 900 123 1092 c 0,55,56
 123 1262 123 1262 243 1382 c 256,57,58
 363 1502 363 1502 533 1502 c 2,59,-1
 683 1502 l 2,60,61
 823 1502 823 1502 934 1417 c 1,62,-1
 826 1266 l 1,63,64
 764 1318 764 1318 683 1318 c 2,65,-1
 533 1318 l 2,66,67
 440 1318 440 1318 374 1251 c 0,68,69
 308 1185 308 1185 308 1082 c 0,70,71
 308 978 308 978 374 912 c 0,72,73
 440 847 440 847 533 847 c 2,74,-1
 867 847 l 1,75,-1
 867 1092 l 1,76,-1
 1032 1157 l 1,77,-1
 1032 853 l 1,78,-1
 1175 853 l 2,16,17
EndSplineSet
EndChar

StartChar: quotesingle
Encoding: 39 39 10
Width: 385
GlyphClass: 1
Flags: W
LayerCount: 2
Fore
SplineSet
100 1503 m 1,0,-1
 285 1503 l 1,1,-1
 285 1290 l 1,2,-1
 252 986 l 1,3,-1
 133 986 l 1,4,-1
 100 1290 l 1,5,-1
 100 1503 l 1,0,-1
EndSplineSet
EndChar

StartChar: parenleft
Encoding: 40 40 11
Width: 647
GlyphClass: 1
Flags: W
LayerCount: 2
Fore
SplineSet
215 -231 m 0,1,2
 100 -90 100 -90 100 91 c 2,3,-1
 100 999 l 2,4,5
 100 1180 100 1180 215 1321 c 0,6,7
 327 1460 327 1460 500 1499 c 0,8,9
 544 1509 544 1509 578 1481 c 0,10,11
 613 1454 613 1454 613 1409 c 2,12,-1
 613 1401 l 2,13,14
 613 1368 613 1368 593 1343 c 256,15,16
 573 1318 573 1318 541 1311 c 0,17,18
 428 1286 428 1286 353 1198 c 0,19,20
 276 1107 276 1107 276 993 c 2,21,-1
 276 97 l 2,22,23
 276 -17 276 -17 353 -108 c 0,24,25
 428 -196 428 -196 541 -221 c 0,26,27
 573 -228 573 -228 593 -253 c 256,28,29
 613 -278 613 -278 613 -311 c 2,30,-1
 613 -320 l 2,31,32
 613 -364 613 -364 578 -392 c 0,33,34
 544 -419 544 -419 500 -409 c 0,35,0
 327 -370 327 -370 215 -231 c 0,1,2
EndSplineSet
Substitution2: "'sinf' Scientific Inferiors in Latin lookup 0 subtable" uni208D
EndChar

StartChar: parenright
Encoding: 41 41 12
Width: 647
GlyphClass: 1
Flags: W
LayerCount: 2
Fore
SplineSet
146 -409 m 0,0,1
 103 -419 103 -419 69 -392 c 0,2,3
 34 -364 34 -364 34 -320 c 2,4,-1
 34 -311 l 2,5,6
 34 -278 34 -278 54 -253 c 256,7,8
 74 -228 74 -228 106 -221 c 0,9,10
 219 -196 219 -196 294 -108 c 0,11,12
 371 -17 371 -17 371 97 c 2,13,-1
 371 993 l 2,14,15
 371 1107 371 1107 294 1198 c 0,16,17
 219 1286 219 1286 106 1311 c 0,18,19
 74 1318 74 1318 54 1343 c 256,20,21
 34 1368 34 1368 34 1401 c 2,22,-1
 34 1409 l 2,23,24
 34 1454 34 1454 69 1481 c 0,25,26
 103 1509 103 1509 146 1499 c 0,27,28
 319 1460 319 1460 432 1321 c 0,29,30
 547 1180 547 1180 547 999 c 2,31,-1
 547 91 l 2,32,33
 547 -90 547 -90 432 -231 c 0,34,35
 319 -370 319 -370 146 -409 c 0,0,1
EndSplineSet
Substitution2: "'sinf' Scientific Inferiors in Latin lookup 0 subtable" uni208E
EndChar

StartChar: asterisk
Encoding: 42 42 13
Width: 916
GlyphClass: 1
Flags: W
LayerCount: 2
Fore
SplineSet
459 1334 m 2,0,1
 493 1334 493 1334 516 1310 c 0,2,3
 540 1286 540 1286 540 1253 c 2,4,-1
 540 1082 l 1,5,-1
 703 1134 l 2,6,7
 735 1145 735 1145 765 1130 c 0,8,9
 795 1114 795 1114 805 1082 c 1,10,-1
 806 1080 l 1,11,12
 816 1049 816 1049 801 1019 c 256,13,14
 786 989 786 989 754 978 c 2,15,-1
 591 925 l 1,16,-1
 692 787 l 2,17,18
 711 760 711 760 706 727 c 0,19,20
 701 693 701 693 674 674 c 1,21,-1
 672 672 l 1,22,23
 645 653 645 653 612 658 c 0,24,25
 578 663 578 663 559 690 c 2,26,-1
 458 829 l 1,27,-1
 357 690 l 2,28,29
 338 663 338 663 305 658 c 0,30,31
 271 653 271 653 244 672 c 1,32,-1
 243 674 l 1,33,34
 215 693 215 693 210 727 c 0,35,36
 205 760 205 760 225 787 c 2,37,-1
 325 925 l 1,38,-1
 162 978 l 2,39,40
 131 989 131 989 115 1019 c 0,41,42
 100 1049 100 1049 110 1080 c 1,43,-1
 111 1082 l 1,44,45
 121 1114 121 1114 151 1130 c 0,46,47
 181 1145 181 1145 213 1135 c 2,48,-1
 376 1082 l 1,49,-1
 376 1253 l 2,50,51
 376 1286 376 1286 400 1310 c 256,52,53
 424 1334 424 1334 457 1334 c 2,54,-1
 459 1334 l 2,0,1
EndSplineSet
EndChar

StartChar: plus
Encoding: 43 43 14
Width: 1092
GlyphClass: 1
Flags: W
LayerCount: 2
Fore
SplineSet
639 844 m 1,0,-1
 950 844 l 2,1,2
 988 844 988 844 1015 817 c 256,3,4
 1042 790 1042 790 1042 752 c 2,5,-1
 1042 750 l 2,6,7
 1042 712 1042 712 1015 686 c 0,8,9
 988 659 988 659 950 659 c 2,10,-1
 639 659 l 1,11,-1
 639 348 l 2,12,13
 639 310 639 310 612 283 c 256,14,15
 585 256 585 256 547 256 c 2,16,-1
 545 256 l 2,17,18
 507 256 507 256 481 283 c 0,19,20
 454 310 454 310 454 348 c 2,21,-1
 454 659 l 1,22,-1
 141 659 l 2,23,24
 103 659 103 659 77 686 c 0,25,26
 50 712 50 712 50 750 c 2,27,-1
 50 752 l 2,28,29
 50 790 50 790 77 817 c 0,30,31
 103 844 103 844 141 844 c 2,32,-1
 454 844 l 1,33,-1
 454 1157 l 2,34,35
 454 1195 454 1195 481 1221 c 0,36,37
 507 1248 507 1248 545 1248 c 2,38,-1
 547 1248 l 2,39,40
 585 1248 585 1248 612 1221 c 0,41,42
 639 1195 639 1195 639 1157 c 2,43,-1
 639 844 l 1,0,-1
EndSplineSet
Substitution2: "'sinf' Scientific Inferiors in Latin lookup 0 subtable" uni208A
EndChar

StartChar: comma
Encoding: 44 44 15
Width: 381
GlyphClass: 1
Flags: W
LayerCount: 2
Fore
SplineSet
258 181 m 2,0,1
 278 181 278 181 290 163 c 0,2,3
 301 146 301 146 292 127 c 2,4,-1
 163 -161 l 2,5,6
 153 -184 153 -184 128 -184 c 2,7,-1
 62 -184 l 2,8,9
 43 -184 43 -184 31 -169 c 0,10,11
 20 -154 20 -154 25 -136 c 2,12,-1
 103 152 l 2,13,14
 110 181 110 181 139 181 c 2,15,-1
 258 181 l 2,0,1
EndSplineSet
EndChar

StartChar: hyphen
Encoding: 45 45 16
AltUni2: 0000ad.ffffffff.0 0000ad.ffffffff.0
Width: 692
GlyphClass: 1
Flags: W
LayerCount: 2
Fore
SplineSet
642 750 m 2,0,1
 642 712 642 712 615 686 c 0,2,3
 588 659 588 659 550 659 c 2,4,-1
 141 659 l 2,5,6
 103 659 103 659 77 686 c 0,7,8
 50 712 50 712 50 750 c 2,9,-1
 50 752 l 2,10,11
 50 790 50 790 77 817 c 0,12,13
 103 844 103 844 141 844 c 2,14,-1
 550 844 l 2,15,16
 588 844 588 844 615 817 c 256,17,18
 642 790 642 790 642 752 c 2,19,-1
 642 750 l 2,0,1
EndSplineSet
EndChar

StartChar: period
Encoding: 46 46 17
Width: 2048
GlyphClass: 1
LayerCount: 2
Fore
SplineSet
1046 48 m 132,-1,1
 1046 80 1046 80 1076 103 c 132,-1,2
 1106 126 1106 126 1148 126 c 132,-1,3
 1190 126 1190 126 1220 103 c 132,-1,4
 1250 80 1250 80 1250 48 c 132,-1,5
 1250 16 1250 16 1220 -7 c 132,-1,6
 1190 -30 1190 -30 1148 -30 c 132,-1,7
 1106 -30 1106 -30 1076 -7 c 132,-1,0
 1046 16 1046 16 1046 48 c 132,-1,1
EndSplineSet
EndChar

StartChar: slash
Encoding: 47 47 18
Width: 635
GlyphClass: 1
Flags: W
LayerCount: 2
Fore
SplineSet
625 1502 m 1,0,-1
 181 0 l 1,1,-1
 10 0 l 1,2,-1
 455 1502 l 1,3,-1
 625 1502 l 1,0,-1
EndSplineSet
Substitution2: "'frac' Diagonal Fractions in Latin lookup 1 subtable" fraction
EndChar

StartChar: zero
Encoding: 48 48 19
Width: 1215
GlyphClass: 1
Flags: W
LayerCount: 2
Fore
SplineSet
966 1354 m 256,1,2
 1115 1205 1115 1205 1115 996 c 2,3,-1
 1115 508 l 2,4,5
 1115 298 1115 298 966 149 c 256,6,7
 817 0 817 0 607 0 c 0,8,9
 398 0 398 0 249 149 c 256,10,11
 100 298 100 298 100 508 c 2,12,-1
 100 996 l 2,13,14
 100 1205 100 1205 249 1354 c 256,15,16
 398 1503 398 1503 607 1503 c 0,17,0
 817 1503 817 1503 966 1354 c 256,1,2
379 1218 m 0,19,20
 285 1123 285 1123 285 990 c 2,21,-1
 285 514 l 2,22,23
 285 381 285 381 379 286 c 0,24,25
 474 191 474 191 607 191 c 256,26,27
 740 191 740 191 835 286 c 256,28,29
 930 381 930 381 930 514 c 2,30,-1
 930 990 l 2,31,32
 930 1123 930 1123 835 1218 c 256,33,34
 740 1313 740 1313 607 1313 c 256,35,18
 474 1313 474 1313 379 1218 c 0,19,20
EndSplineSet
Substitution2: "'sinf' Scientific Inferiors in Latin lookup 0 subtable" uni2080
EndChar

StartChar: one
Encoding: 49 49 20
Width: 629
GlyphClass: 1
Flags: W
LayerCount: 2
Fore
SplineSet
479 91 m 2,0,1
 479 53 479 53 453 27 c 0,2,3
 426 0 426 0 388 0 c 2,4,-1
 386 0 l 2,5,6
 348 0 348 0 321 27 c 0,7,8
 295 53 295 53 295 91 c 2,9,-1
 295 1318 l 1,10,-1
 101 1318 l 2,11,12
 64 1318 64 1318 37 1344 c 0,13,14
 10 1371 10 1371 10 1409 c 2,15,-1
 10 1411 l 2,16,17
 10 1449 10 1449 37 1476 c 0,18,19
 64 1502 64 1502 101 1502 c 2,20,-1
 388 1502 l 2,21,22
 426 1502 426 1502 453 1476 c 0,23,24
 479 1449 479 1449 479 1411 c 2,25,-1
 479 91 l 2,0,1
EndSplineSet
Substitution2: "'sinf' Scientific Inferiors in Latin lookup 0 subtable" uni2081
EndChar

StartChar: two
Encoding: 50 50 21
Width: 1164
GlyphClass: 1
Flags: W
LayerCount: 2
Fore
SplineSet
643 1502 m 2,0,1
 814 1502 814 1502 934 1382 c 256,2,3
 1054 1262 1054 1262 1054 1092 c 0,4,5
 1054 944 1054 944 935 823 c 0,6,7
 862 748 862 748 673 631 c 0,8,9
 481 511 481 511 411 443 c 0,10,11
 292 326 292 326 292 185 c 1,12,-1
 973 185 l 2,13,14
 1011 185 1011 185 1037 158 c 0,15,16
 1064 131 1064 131 1064 93 c 2,17,-1
 1064 91 l 2,18,19
 1064 53 1064 53 1037 27 c 0,20,21
 1011 0 1011 0 973 0 c 2,22,-1
 191 0 l 2,23,24
 154 0 154 0 127 27 c 0,25,26
 100 53 100 53 100 91 c 2,27,-1
 100 185 l 2,28,29
 100 358 100 358 220 499 c 0,30,31
 304 597 304 597 484 712 c 0,32,33
 709 857 709 857 749 889 c 0,34,35
 869 989 869 989 869 1092 c 0,36,37
 869 1185 869 1185 803 1251 c 0,38,39
 737 1318 737 1318 643 1318 c 2,40,-1
 241 1318 l 2,41,42
 203 1318 203 1318 176 1344 c 0,43,44
 149 1371 149 1371 149 1409 c 2,45,-1
 149 1411 l 2,46,47
 149 1449 149 1449 176 1476 c 0,48,49
 203 1502 203 1502 241 1502 c 2,50,-1
 643 1502 l 2,0,1
EndSplineSet
Substitution2: "'sinf' Scientific Inferiors in Latin lookup 0 subtable" uni2082
EndChar

StartChar: three
Encoding: 51 51 22
Width: 975
GlyphClass: 1
Flags: W
LayerCount: 2
Fore
SplineSet
441 1502 m 2,0,1
 611 1502 611 1502 732 1382 c 0,2,3
 852 1262 852 1262 852 1092 c 0,4,5
 852 900 852 900 705 777 c 1,6,7
 875 647 875 647 875 433 c 0,8,9
 875 254 875 254 748 127 c 256,10,11
 621 0 621 0 441 0 c 2,12,-1
 161 0 l 2,13,14
 124 0 124 0 97 27 c 0,15,16
 70 53 70 53 70 91 c 2,17,-1
 70 93 l 2,18,19
 70 131 70 131 97 158 c 256,20,21
 124 185 124 185 161 185 c 2,22,-1
 441 185 l 2,23,24
 544 185 544 185 617 257 c 0,25,26
 689 330 689 330 689 433 c 256,27,28
 689 536 689 536 617 609 c 0,29,30
 544 682 544 682 441 682 c 2,31,-1
 205 682 l 2,32,33
 167 682 167 682 140 709 c 0,34,35
 114 735 114 735 114 773 c 2,36,-1
 114 775 l 2,37,38
 114 813 114 813 140 840 c 0,39,40
 167 866 167 866 205 866 c 2,41,-1
 441 867 l 2,42,43
 534 867 534 867 600 932 c 0,44,45
 666 998 666 998 666 1092 c 0,46,47
 666 1185 666 1185 600 1251 c 0,48,49
 534 1318 534 1318 441 1318 c 2,50,-1
 161 1318 l 2,51,52
 124 1318 124 1318 97 1344 c 0,53,54
 70 1371 70 1371 70 1409 c 2,55,-1
 70 1411 l 2,56,57
 70 1449 70 1449 97 1476 c 0,58,59
 124 1502 124 1502 161 1502 c 2,60,-1
 441 1502 l 2,0,1
EndSplineSet
Substitution2: "'sinf' Scientific Inferiors in Latin lookup 0 subtable" uni2083
EndChar

StartChar: four
Encoding: 52 52 23
Width: 1193
GlyphClass: 1
Flags: W
LayerCount: 2
Fore
SplineSet
613 1455 m 2,0,1
 639 1502 639 1502 693 1502 c 2,2,-1
 843 1502 l 2,3,4
 880 1502 880 1502 907 1476 c 0,5,6
 934 1449 934 1449 934 1411 c 2,7,-1
 934 475 l 1,8,-1
 1079 475 l 2,9,10
 1117 475 1117 475 1144 448 c 0,11,12
 1170 421 1170 421 1170 383 c 2,13,-1
 1170 381 l 2,14,15
 1170 343 1170 343 1144 317 c 0,16,17
 1117 290 1117 290 1079 290 c 2,18,-1
 934 290 l 1,19,-1
 934 91 l 2,20,21
 934 53 934 53 907 27 c 0,22,23
 880 0 880 0 843 0 c 2,24,-1
 840 0 l 2,25,26
 803 0 803 0 776 27 c 0,27,28
 749 53 749 53 749 91 c 2,29,-1
 749 290 l 1,30,-1
 161 290 l 2,31,32
 124 290 124 290 97 317 c 0,33,34
 70 343 70 343 70 381 c 2,35,-1
 70 451 l 2,36,37
 70 475 70 475 81 495 c 2,38,-1
 613 1455 l 2,0,1
749 475 m 1,39,-1
 749 1320 l 1,40,-1
 281 475 l 1,41,-1
 749 475 l 1,39,-1
EndSplineSet
Substitution2: "'sinf' Scientific Inferiors in Latin lookup 0 subtable" uni2084
EndChar

StartChar: five
Encoding: 53 53 24
Width: 1114
GlyphClass: 1
Flags: W
LayerCount: 2
Fore
SplineSet
610 682 m 2,0,1
 713 682 713 682 786 609 c 0,2,3
 858 536 858 536 858 433 c 256,4,5
 858 330 858 330 786 257 c 0,6,7
 713 185 713 185 610 185 c 2,8,-1
 211 185 l 2,9,10
 174 185 174 185 147 158 c 256,11,12
 120 131 120 131 120 93 c 2,13,-1
 120 91 l 2,14,15
 120 53 120 53 147 27 c 0,16,17
 174 0 174 0 211 0 c 2,18,-1
 610 0 l 2,19,20
 790 0 790 0 917 127 c 256,21,22
 1044 254 1044 254 1044 433 c 0,23,24
 1044 613 1044 613 917 740 c 0,25,26
 790 866 790 866 610 866 c 2,27,-1
 305 866 l 1,28,-1
 305 1318 l 1,29,-1
 821 1318 l 2,30,31
 858 1318 858 1318 885 1344 c 0,32,33
 912 1371 912 1371 912 1409 c 2,34,-1
 912 1411 l 2,35,36
 912 1449 912 1449 885 1476 c 0,37,38
 858 1502 858 1502 821 1502 c 2,39,-1
 211 1502 l 2,40,41
 174 1502 174 1502 147 1476 c 0,42,43
 120 1449 120 1449 120 1411 c 2,44,-1
 120 773 l 2,45,46
 120 735 120 735 147 709 c 0,47,48
 174 682 174 682 211 682 c 2,49,-1
 610 682 l 2,0,1
EndSplineSet
Substitution2: "'sinf' Scientific Inferiors in Latin lookup 0 subtable" uni2085
EndChar

StartChar: six
Encoding: 54 54 25
Width: 1198
GlyphClass: 1
Flags: W
LayerCount: 2
Fore
SplineSet
664 682 m 2,0,1
 767 682 767 682 840 609 c 0,2,3
 912 536 912 536 912 433 c 256,4,5
 912 330 912 330 840 257 c 0,6,7
 767 185 767 185 664 185 c 2,8,-1
 533 185 l 2,9,10
 431 185 431 185 358 257 c 0,11,12
 285 330 285 330 285 433 c 2,13,-1
 285 682 l 1,14,-1
 664 682 l 2,0,1
664 0 m 2,15,16
 844 0 844 0 971 127 c 256,17,18
 1098 254 1098 254 1098 433 c 0,19,20
 1098 613 1098 613 971 740 c 0,21,22
 844 866 844 866 664 866 c 2,23,-1
 285 866 l 1,24,-1
 285 1069 l 2,25,26
 285 1172 285 1172 358 1245 c 256,27,28
 431 1318 431 1318 533 1318 c 2,29,-1
 838 1318 l 2,30,31
 876 1318 876 1318 903 1344 c 0,32,33
 930 1371 930 1371 930 1409 c 2,34,-1
 930 1411 l 2,35,36
 930 1449 930 1449 903 1476 c 0,37,38
 876 1502 876 1502 838 1502 c 2,39,-1
 533 1502 l 2,40,41
 354 1502 354 1502 227 1375 c 0,42,43
 100 1249 100 1249 100 1069 c 2,44,-1
 100 433 l 2,45,46
 100 254 100 254 227 127 c 256,47,48
 354 0 354 0 533 0 c 2,49,-1
 664 0 l 2,15,16
EndSplineSet
Substitution2: "'sinf' Scientific Inferiors in Latin lookup 0 subtable" uni2086
EndChar

StartChar: seven
Encoding: 55 55 26
Width: 900
GlyphClass: 1
Flags: W
LayerCount: 2
Fore
SplineSet
470 91 m 1,0,1
 470 53 470 53 444 27 c 0,2,3
 417 0 417 0 379 0 c 2,4,-1
 377 0 l 2,5,6
 339 0 339 0 313 27 c 0,7,8
 286 53 286 53 286 91 c 1,9,-1
 656 1318 l 1,10,-1
 101 1318 l 2,11,12
 64 1318 64 1318 37 1344 c 0,13,14
 10 1371 10 1371 10 1409 c 2,15,-1
 10 1411 l 2,16,17
 10 1449 10 1449 37 1476 c 0,18,19
 64 1502 64 1502 101 1502 c 2,20,-1
 779 1502 l 2,21,22
 817 1502 817 1502 844 1476 c 0,23,24
 870 1449 870 1449 870 1411 c 1,25,-1
 470 91 l 1,0,1
EndSplineSet
Substitution2: "'sinf' Scientific Inferiors in Latin lookup 0 subtable" uni2087
EndChar

StartChar: eight
Encoding: 56 56 27
Width: 1216
GlyphClass: 1
Flags: W
LayerCount: 2
Fore
SplineSet
683 1502 m 2,0,1
 853 1502 853 1502 973 1382 c 0,2,3
 1094 1262 1094 1262 1094 1092 c 0,4,5
 1094 900 1094 900 947 777 c 1,6,7
 1116 647 1116 647 1116 433 c 0,8,9
 1116 254 1116 254 989 127 c 0,10,11
 863 0 863 0 683 0 c 2,12,-1
 533 0 l 2,13,14
 354 0 354 0 227 127 c 256,15,16
 100 254 100 254 100 433 c 0,17,18
 100 647 100 647 270 777 c 1,19,20
 123 900 123 900 123 1092 c 0,21,22
 123 1262 123 1262 243 1382 c 256,23,24
 363 1502 363 1502 533 1502 c 2,25,-1
 683 1502 l 2,0,1
683 185 m 2,26,27
 786 185 786 185 858 257 c 0,28,29
 931 330 931 330 931 433 c 256,30,31
 931 536 931 536 858 609 c 0,32,33
 786 682 786 682 683 682 c 2,34,-1
 533 682 l 2,35,36
 431 682 431 682 358 609 c 256,37,38
 285 536 285 536 285 433 c 256,39,40
 285 330 285 330 358 257 c 0,41,42
 431 185 431 185 533 185 c 2,43,-1
 683 185 l 2,26,27
683 867 m 2,44,45
 776 867 776 867 842 932 c 0,46,47
 908 998 908 998 908 1092 c 0,48,49
 908 1185 908 1185 842 1251 c 0,50,51
 776 1318 776 1318 683 1318 c 2,52,-1
 533 1318 l 2,53,54
 440 1318 440 1318 374 1251 c 0,55,56
 308 1185 308 1185 308 1092 c 0,57,58
 308 998 308 998 374 932 c 0,59,60
 440 867 440 867 533 867 c 2,61,-1
 683 867 l 2,44,45
EndSplineSet
Substitution2: "'sinf' Scientific Inferiors in Latin lookup 0 subtable" uni2088
EndChar

StartChar: nine
Encoding: 57 57 28
Width: 1198
GlyphClass: 1
Flags: W
LayerCount: 2
Fore
SplineSet
533 820 m 2,0,1
 431 820 431 820 358 893 c 256,2,3
 285 966 285 966 285 1069 c 256,4,5
 285 1172 285 1172 358 1245 c 256,6,7
 431 1318 431 1318 533 1318 c 2,8,-1
 664 1318 l 2,9,10
 767 1318 767 1318 840 1245 c 256,11,12
 913 1172 913 1172 913 1069 c 2,13,-1
 913 820 l 1,14,-1
 533 820 l 2,0,1
533 1502 m 2,15,16
 354 1502 354 1502 227 1375 c 0,17,18
 100 1249 100 1249 100 1069 c 0,19,20
 100 890 100 890 227 763 c 256,21,22
 354 636 354 636 533 636 c 2,23,-1
 913 636 l 1,24,-1
 912 433 l 2,25,26
 912 330 912 330 840 257 c 0,27,28
 767 185 767 185 664 185 c 2,29,-1
 272 185 l 2,30,31
 234 185 234 185 207 158 c 0,32,33
 181 131 181 131 181 93 c 2,34,-1
 181 91 l 2,35,36
 181 53 181 53 207 27 c 0,37,38
 234 0 234 0 272 0 c 2,39,-1
 664 0 l 2,40,41
 844 0 844 0 971 127 c 256,42,43
 1098 254 1098 254 1098 433 c 2,44,-1
 1098 1069 l 2,45,46
 1098 1249 1098 1249 971 1375 c 0,47,48
 844 1502 844 1502 664 1502 c 2,49,-1
 533 1502 l 2,15,16
EndSplineSet
Substitution2: "'sinf' Scientific Inferiors in Latin lookup 0 subtable" uni2089
EndChar

StartChar: colon
Encoding: 58 58 29
Width: 420
GlyphClass: 1
Flags: W
LayerCount: 2
Fore
SplineSet
287 32 m 0,1,2
 320 64 320 64 320 110 c 0,3,4
 320 155 320 155 287 187 c 0,5,6
 255 219 255 219 210 219 c 0,7,8
 164 219 164 219 132 187 c 256,9,10
 100 155 100 155 100 110 c 0,11,12
 100 64 100 64 132 32 c 256,13,14
 164 0 164 0 210 0 c 0,15,0
 255 0 255 0 287 32 c 0,1,2
287 905 m 0,17,18
 320 937 320 937 320 983 c 0,19,20
 320 1028 320 1028 287 1060 c 0,21,22
 255 1092 255 1092 210 1092 c 0,23,24
 164 1092 164 1092 132 1060 c 256,25,26
 100 1028 100 1028 100 983 c 0,27,28
 100 937 100 937 132 905 c 256,29,30
 164 873 164 873 210 873 c 0,31,16
 255 873 255 873 287 905 c 0,17,18
EndSplineSet
EndChar

StartChar: semicolon
Encoding: 59 59 30
AltUni2: 00037e.ffffffff.0 00037e.ffffffff.0
Width: 420
GlyphClass: 1
Flags: W
LayerCount: 2
Fore
SplineSet
258 181 m 2,0,1
 278 181 278 181 290 163 c 0,2,3
 301 146 301 146 292 127 c 2,4,-1
 163 -161 l 2,5,6
 153 -184 153 -184 128 -184 c 2,7,-1
 62 -184 l 2,8,9
 43 -184 43 -184 31 -169 c 0,10,11
 20 -154 20 -154 25 -136 c 2,12,-1
 103 152 l 2,13,14
 110 181 110 181 139 181 c 2,15,-1
 258 181 l 2,0,1
287 905 m 0,17,18
 320 937 320 937 320 983 c 0,19,20
 320 1028 320 1028 287 1060 c 0,21,22
 255 1092 255 1092 210 1092 c 0,23,24
 164 1092 164 1092 132 1060 c 256,25,26
 100 1028 100 1028 100 983 c 0,27,28
 100 937 100 937 132 905 c 256,29,30
 164 873 164 873 210 873 c 0,31,16
 255 873 255 873 287 905 c 0,17,18
EndSplineSet
EndChar

StartChar: less
Encoding: 60 60 31
Width: 1130
GlyphClass: 1
Flags: W
LayerCount: 2
Fore
SplineSet
84 600 m 2,0,1
 50 613 50 613 50 650 c 2,2,-1
 50 831 l 2,3,4
 50 868 50 868 84 882 c 2,5,-1
 1006 1240 l 2,6,7
 1033 1251 1033 1251 1056 1235 c 0,8,9
 1080 1219 1080 1219 1080 1190 c 2,10,-1
 1080 1123 l 2,11,12
 1080 1087 1080 1087 1046 1073 c 2,13,-1
 201 741 l 1,14,-1
 1046 408 l 2,15,16
 1080 395 1080 395 1080 358 c 2,17,-1
 1080 291 l 2,18,19
 1080 262 1080 262 1056 246 c 0,20,21
 1033 230 1033 230 1006 241 c 2,22,-1
 84 600 l 2,0,1
EndSplineSet
EndChar

StartChar: equal
Encoding: 61 61 32
Width: 1092
GlyphClass: 1
Flags: W
LayerCount: 2
Fore
SplineSet
1042 525 m 2,0,1
 1042 487 1042 487 1015 461 c 0,2,3
 988 434 988 434 950 434 c 2,4,-1
 141 434 l 2,5,6
 103 434 103 434 77 461 c 0,7,8
 50 487 50 487 50 525 c 2,9,-1
 50 527 l 2,10,11
 50 565 50 565 77 592 c 0,12,13
 103 619 103 619 141 619 c 2,14,-1
 950 619 l 2,15,16
 988 619 988 619 1015 592 c 256,17,18
 1042 565 1042 565 1042 527 c 2,19,-1
 1042 525 l 2,0,1
1042 960 m 2,20,21
 1042 922 1042 922 1015 896 c 0,22,23
 988 869 988 869 950 869 c 2,24,-1
 141 869 l 2,25,26
 103 869 103 869 77 896 c 0,27,28
 50 922 50 922 50 960 c 2,29,-1
 50 962 l 2,30,31
 50 1000 50 1000 77 1027 c 0,32,33
 103 1054 103 1054 141 1054 c 2,34,-1
 950 1054 l 2,35,36
 988 1054 988 1054 1015 1027 c 256,37,38
 1042 1000 1042 1000 1042 962 c 2,39,-1
 1042 960 l 2,20,21
EndSplineSet
Substitution2: "'sinf' Scientific Inferiors in Latin lookup 0 subtable" uni208C
EndChar

StartChar: greater
Encoding: 62 62 33
Width: 1130
GlyphClass: 1
Flags: W
LayerCount: 2
Fore
SplineSet
124 241 m 2,0,1
 97 230 97 230 74 246 c 0,2,3
 50 262 50 262 50 291 c 2,4,-1
 50 358 l 2,5,6
 50 395 50 395 84 408 c 2,7,-1
 930 741 l 1,8,-1
 84 1073 l 2,9,10
 50 1087 50 1087 50 1123 c 2,11,-1
 50 1190 l 2,12,13
 50 1219 50 1219 74 1235 c 0,14,15
 97 1251 97 1251 124 1240 c 2,16,-1
 1046 882 l 2,17,18
 1080 868 1080 868 1080 831 c 2,19,-1
 1080 650 l 2,20,21
 1080 613 1080 613 1046 600 c 2,22,-1
 124 241 l 2,0,1
EndSplineSet
EndChar

StartChar: question
Encoding: 63 63 34
Width: 1050
GlyphClass: 1
Flags: W
LayerCount: 2
Fore
SplineSet
830 1356 m 0,1,2
 960 1225 960 1225 960 1040 c 0,3,4
 960 882 960 882 861 760 c 0,5,6
 764 639 764 639 602 602 c 1,7,-1
 602 448 l 2,8,9
 602 413 602 413 576 386 c 0,10,11
 550 360 550 360 513 360 c 2,12,-1
 510 360 l 2,13,14
 473 360 473 360 447 386 c 0,15,16
 421 413 421 413 421 450 c 2,17,-1
 421 685 l 2,18,19
 421 722 421 722 447 748 c 256,20,21
 473 774 473 774 509 775 c 2,22,-1
 514 775 l 2,23,24
 624 775 624 775 701 852 c 0,25,26
 779 930 779 930 779 1040 c 256,27,28
 779 1150 779 1150 701 1228 c 0,29,30
 624 1305 624 1305 514 1305 c 0,31,32
 425 1305 425 1305 355 1252 c 0,33,34
 286 1200 286 1200 260 1118 c 0,35,36
 252 1089 252 1089 228 1072 c 0,37,38
 205 1055 205 1055 175 1055 c 2,39,-1
 172 1055 l 2,40,41
 127 1055 127 1055 100 1091 c 0,42,43
 74 1127 74 1127 87 1170 c 0,44,45
 129 1309 129 1309 246 1397 c 0,46,47
 365 1486 365 1486 514 1486 c 0,48,0
 699 1486 699 1486 830 1356 c 0,1,2
588 31 m 0,50,51
 621 63 621 63 621 109 c 0,52,53
 621 154 621 154 588 186 c 0,54,55
 556 218 556 218 511 218 c 0,56,57
 465 218 465 218 433 186 c 256,58,59
 401 154 401 154 401 109 c 0,60,61
 401 63 401 63 433 31 c 256,62,63
 465 -1 465 -1 511 -1 c 0,64,49
 556 -1 556 -1 588 31 c 0,50,51
EndSplineSet
EndChar

StartChar: at
Encoding: 64 64 35
Width: 2145
GlyphClass: 1
Flags: W
LayerCount: 2
Fore
SplineSet
1073 -408 m 2,1,-1
 1071 -408 l 2,2,3
 667 -408 667 -408 384 -123 c 0,4,5
 100 158 100 158 100 558 c 0,6,7
 100 957 100 957 384 1238 c 0,8,9
 668 1524 668 1524 1073 1524 c 0,10,11
 1477 1524 1477 1524 1761 1238 c 0,12,13
 2045 957 2045 957 2045 558 c 0,14,15
 2045 316 2045 316 1919 134 c 0,16,17
 1798 -43 1798 -43 1648 -50 c 1,18,-1
 1632 -50 l 2,19,20
 1544 -50 1544 -50 1486 7 c 0,21,22
 1404 84 1404 84 1404 307 c 2,23,-1
 1404 327 l 1,24,-1
 1406 550 l 2,25,26
 1406 718 1406 718 1297 814 c 0,27,28
 1230 872 1230 872 1132 890 c 0,29,30
 1094 897 1094 897 1057 897 c 0,31,32
 999 897 999 897 941 879 c 0,33,34
 714 809 714 809 714 550 c 0,35,36
 714 336 714 336 900 240 c 0,37,38
 976 201 976 201 1062 201 c 0,39,40
 1074 201 1074 201 1085 203 c 0,41,42
 1177 210 1177 210 1257 263 c 1,43,-1
 1330 99 l 1,44,45
 1225 38 1225 38 1102 29 c 0,46,47
 1082 28 1082 28 1062 28 c 0,48,49
 932 28 932 28 811 89 c 0,50,51
 678 157 678 157 605 278 c 0,52,53
 529 401 529 401 529 550 c 0,54,55
 529 793 529 793 693 937 c 0,56,57
 844 1071 844 1071 1060 1071 c 0,58,59
 1275 1071 1275 1071 1426 937 c 0,60,61
 1591 793 1591 793 1591 550 c 2,62,-1
 1590 325 l 1,63,-1
 1590 301 l 2,64,65
 1590 156 1590 156 1619 127 c 0,66,67
 1624 123 1624 123 1634 123 c 2,68,-1
 1639 123 l 1,69,70
 1703 127 1703 127 1776 246 c 0,71,72
 1860 386 1860 386 1860 558 c 0,73,74
 1860 887 1860 887 1626 1121 c 0,75,76
 1396 1351 1396 1351 1073 1351 c 0,77,78
 749 1351 749 1351 516 1118 c 0,79,80
 285 887 285 887 285 558 c 0,81,82
 285 228 285 228 519 -6 c 0,83,84
 750 -235 750 -235 1071 -235 c 2,85,-1
 1073 -235 l 2,86,87
 1260 -235 1260 -235 1437 -143 c 1,88,-1
 1508 -305 l 1,89,0
 1301 -408 1301 -408 1073 -408 c 2,1,-1
EndSplineSet
EndChar

StartChar: A
Encoding: 65 65 36
Width: 1195
GlyphClass: 1
Flags: W
LayerCount: 2
Fore
SplineSet
1085 91 m 2,0,1
 1085 53 1085 53 1058 27 c 0,2,3
 1031 0 1031 0 994 0 c 2,4,-1
 991 0 l 2,5,6
 954 0 954 0 927 27 c 0,7,8
 900 53 900 53 900 91 c 2,9,-1
 900 567 l 1,10,-1
 295 567 l 1,11,-1
 295 91 l 2,12,13
 295 53 295 53 268 27 c 0,14,15
 241 0 241 0 204 0 c 2,16,-1
 201 0 l 2,17,18
 164 0 164 0 137 27 c 0,19,20
 110 53 110 53 110 91 c 2,21,-1
 110 1015 l 2,22,23
 110 1217 110 1217 253 1360 c 0,24,25
 396 1502 396 1502 597 1502 c 0,26,27
 799 1502 799 1502 942 1360 c 0,28,29
 1085 1217 1085 1217 1085 1015 c 2,30,-1
 1085 91 l 2,0,1
900 751 m 1,31,-1
 900 1015 l 2,32,33
 900 1140 900 1140 812 1229 c 0,34,35
 723 1318 723 1318 597 1318 c 0,36,37
 472 1318 472 1318 383 1229 c 0,38,39
 295 1140 295 1140 295 1015 c 2,40,-1
 295 751 l 1,41,-1
 900 751 l 1,31,-1
EndSplineSet
Substitution2: "'nalt' Alternate Annotation Forms in Latin lookup 3 subtable" uni24B6
EndChar

StartChar: B
Encoding: 66 66 37
Width: 1104
GlyphClass: 1
Flags: W
LayerCount: 2
Fore
SplineSet
295 866 m 1,0,-1
 600 867 l 2,1,2
 694 867 694 867 760 932 c 0,3,4
 826 998 826 998 826 1092 c 0,5,6
 826 1185 826 1185 760 1251 c 0,7,8
 694 1318 694 1318 600 1318 c 2,9,-1
 362 1318 l 2,10,11
 334 1318 334 1318 314 1298 c 0,12,13
 295 1278 295 1278 295 1250 c 2,14,-1
 295 866 l 1,0,-1
110 1250 m 2,15,16
 110 1355 110 1355 184 1429 c 0,17,18
 258 1502 258 1502 362 1502 c 2,19,-1
 600 1502 l 2,20,21
 771 1502 771 1502 891 1382 c 256,22,23
 1011 1262 1011 1262 1011 1092 c 0,24,25
 1011 900 1011 900 864 777 c 1,26,27
 1034 647 1034 647 1034 433 c 0,28,29
 1034 254 1034 254 907 127 c 256,30,31
 780 0 780 0 600 0 c 2,32,-1
 362 0 l 2,33,34
 258 0 258 0 184 74 c 256,35,36
 110 148 110 148 110 252 c 2,37,-1
 110 1250 l 2,15,16
600 185 m 2,38,39
 703 185 703 185 776 257 c 0,40,41
 848 330 848 330 848 433 c 256,42,43
 848 536 848 536 776 609 c 0,44,45
 703 682 703 682 600 682 c 2,46,-1
 295 682 l 1,47,-1
 295 252 l 2,48,49
 295 224 295 224 314 204 c 0,50,51
 334 185 334 185 362 185 c 2,52,-1
 600 185 l 2,38,39
EndSplineSet
Substitution2: "'nalt' Alternate Annotation Forms in Latin lookup 3 subtable" uni24B7
EndChar

StartChar: C
Encoding: 67 67 38
Width: 1142
GlyphClass: 1
Flags: W
LayerCount: 2
Fore
SplineSet
1013 1479 m 0,1,2
 1082 1461 1082 1461 1082 1391 c 2,3,-1
 1082 1388 l 2,4,5
 1082 1344 1082 1344 1046 1316 c 0,6,7
 1011 1289 1011 1289 968 1300 c 0,8,9
 898 1318 898 1318 826 1318 c 0,10,11
 592 1318 592 1318 426 1152 c 256,12,13
 260 986 260 986 260 751 c 256,14,15
 260 516 260 516 426 350 c 0,16,17
 592 185 592 185 826 185 c 0,18,19
 898 185 898 185 968 202 c 0,20,21
 1011 213 1011 213 1046 186 c 0,22,23
 1082 159 1082 159 1082 114 c 2,24,-1
 1082 112 l 2,25,26
 1082 41 1082 41 1013 23 c 0,27,28
 921 0 921 0 826 0 c 0,29,30
 515 0 515 0 295 220 c 256,31,32
 75 440 75 440 75 751 c 256,33,34
 75 1062 75 1062 295 1282 c 256,35,36
 515 1502 515 1502 826 1502 c 0,37,0
 921 1502 921 1502 1013 1479 c 0,1,2
EndSplineSet
Substitution2: "'nalt' Alternate Annotation Forms in Latin lookup 3 subtable" uni24B8
EndChar

StartChar: D
Encoding: 68 68 39
Width: 1324
GlyphClass: 1
Flags: W
LayerCount: 2
Fore
SplineSet
295 252 m 2,0,1
 295 224 295 224 314 204 c 0,2,3
 334 185 334 185 362 185 c 2,4,-1
 513 185 l 2,5,6
 748 185 748 185 914 350 c 0,7,8
 1080 516 1080 516 1080 751 c 256,9,10
 1080 986 1080 986 914 1152 c 256,11,12
 748 1318 748 1318 513 1318 c 2,13,-1
 362 1318 l 2,14,15
 334 1318 334 1318 314 1298 c 0,16,17
 295 1278 295 1278 295 1250 c 2,18,-1
 295 252 l 2,0,1
513 1502 m 2,19,20
 824 1502 824 1502 1044 1282 c 256,21,22
 1264 1062 1264 1062 1264 751 c 256,23,24
 1264 440 1264 440 1044 220 c 256,25,26
 824 0 824 0 513 0 c 2,27,-1
 362 0 l 2,28,29
 258 0 258 0 184 74 c 256,30,31
 110 148 110 148 110 252 c 2,32,-1
 110 1250 l 2,33,34
 110 1355 110 1355 184 1429 c 0,35,36
 258 1502 258 1502 362 1502 c 2,37,-1
 513 1502 l 2,19,20
EndSplineSet
Substitution2: "'nalt' Alternate Annotation Forms in Latin lookup 3 subtable" uni24B9
EndChar

StartChar: E
Encoding: 69 69 40
Width: 948
GlyphClass: 1
Flags: W
LayerCount: 2
Fore
SplineSet
295 843 m 1,0,-1
 802 843 l 2,1,2
 839 843 839 843 866 817 c 0,3,4
 893 790 893 790 893 752 c 2,5,-1
 893 750 l 2,6,7
 893 712 893 712 866 685 c 0,8,9
 839 659 839 659 802 659 c 2,10,-1
 295 659 l 1,11,-1
 295 335 l 2,12,13
 295 273 295 273 339 229 c 256,14,15
 383 185 383 185 445 185 c 2,16,-1
 802 185 l 2,17,18
 839 185 839 185 866 158 c 256,19,20
 893 131 893 131 893 93 c 2,21,-1
 893 91 l 2,22,23
 893 53 893 53 866 27 c 0,24,25
 839 0 839 0 802 0 c 2,26,-1
 445 0 l 2,27,28
 306 0 306 0 208 98 c 256,29,30
 110 196 110 196 110 335 c 2,31,-1
 110 1167 l 2,32,33
 110 1306 110 1306 208 1404 c 256,34,35
 306 1502 306 1502 445 1502 c 2,36,-1
 802 1502 l 2,37,38
 839 1502 839 1502 866 1475 c 0,39,40
 893 1449 893 1449 893 1411 c 2,41,-1
 893 1409 l 2,42,43
 893 1371 893 1371 866 1344 c 256,44,45
 839 1317 839 1317 802 1317 c 2,46,-1
 445 1317 l 2,47,48
 383 1317 383 1317 339 1273 c 256,49,50
 295 1229 295 1229 295 1167 c 2,51,-1
 295 843 l 1,0,-1
EndSplineSet
Substitution2: "'nalt' Alternate Annotation Forms in Latin lookup 3 subtable" uni24BA
EndChar

StartChar: F
Encoding: 70 70 41
Width: 873
GlyphClass: 1
Flags: W
LayerCount: 2
Fore
SplineSet
295 843 m 1,0,-1
 742 843 l 2,1,2
 779 843 779 843 806 817 c 0,3,4
 833 790 833 790 833 752 c 2,5,-1
 833 750 l 2,6,7
 833 712 833 712 806 686 c 0,8,9
 779 659 779 659 742 659 c 2,10,-1
 295 659 l 1,11,-1
 295 91 l 2,12,13
 295 53 295 53 268 27 c 0,14,15
 241 0 241 0 204 0 c 2,16,-1
 201 0 l 2,17,18
 164 0 164 0 137 27 c 0,19,20
 110 53 110 53 110 91 c 2,21,-1
 110 1167 l 2,22,23
 110 1306 110 1306 208 1404 c 256,24,25
 306 1502 306 1502 445 1502 c 2,26,-1
 752 1502 l 2,27,28
 789 1502 789 1502 816 1476 c 0,29,30
 843 1449 843 1449 843 1411 c 2,31,-1
 843 1409 l 2,32,33
 843 1371 843 1371 816 1344 c 0,34,35
 789 1318 789 1318 752 1318 c 2,36,-1
 445 1318 l 2,37,38
 383 1318 383 1318 339 1274 c 256,39,40
 295 1230 295 1230 295 1167 c 2,41,-1
 295 843 l 1,0,-1
EndSplineSet
Substitution2: "'nalt' Alternate Annotation Forms in Latin lookup 3 subtable" uni24BB
EndChar

StartChar: G
Encoding: 71 71 42
Width: 1663
GlyphClass: 1
Flags: W
LayerCount: 2
Fore
SplineSet
1384 1260 m 0,1,2
 1412 1229 1412 1229 1408 1188 c 0,3,4
 1403 1147 1403 1147 1370 1124 c 1,5,-1
 1368 1122 l 1,6,7
 1340 1102 1340 1102 1306 1106 c 0,8,9
 1272 1109 1272 1109 1248 1135 c 0,10,11
 1080 1318 1080 1318 831 1318 c 0,12,13
 597 1318 597 1318 431 1152 c 256,14,15
 265 986 265 986 265 751 c 256,16,17
 265 516 265 516 431 350 c 0,18,19
 597 185 597 185 831 185 c 0,20,21
 1041 185 1041 185 1200 321 c 0,22,23
 1357 456 1357 456 1390 659 c 1,24,-1
 856 659 l 2,25,26
 818 659 818 659 791 686 c 0,27,28
 765 712 765 712 765 750 c 2,29,-1
 765 752 l 2,30,31
 765 790 765 790 791 817 c 0,32,33
 818 843 818 843 856 843 c 2,34,-1
 1491 843 l 2,35,36
 1529 843 1529 843 1556 817 c 0,37,38
 1582 790 1582 790 1583 752 c 2,39,-1
 1583 751 l 2,40,41
 1583 440 1583 440 1363 220 c 0,42,43
 1142 0 1142 0 831 0 c 256,44,45
 520 0 520 0 300 220 c 256,46,47
 80 440 80 440 80 751 c 256,48,49
 80 1062 80 1062 300 1282 c 256,50,51
 520 1502 520 1502 831 1502 c 0,52,0
 1161 1502 1161 1502 1384 1260 c 0,1,2
EndSplineSet
Substitution2: "'nalt' Alternate Annotation Forms in Latin lookup 3 subtable" uni24BC
EndChar

StartChar: H
Encoding: 72 72 43
Width: 1204
GlyphClass: 1
Flags: W
LayerCount: 2
Fore
SplineSet
204 1502 m 2,0,1
 241 1502 241 1502 268 1476 c 0,2,3
 295 1449 295 1449 295 1411 c 2,4,-1
 295 843 l 1,5,-1
 909 843 l 1,6,-1
 909 1411 l 2,7,8
 909 1449 909 1449 936 1476 c 0,9,10
 963 1502 963 1502 1000 1502 c 2,11,-1
 1003 1502 l 2,12,13
 1040 1502 1040 1502 1067 1476 c 0,14,15
 1094 1449 1094 1449 1094 1411 c 2,16,-1
 1094 91 l 2,17,18
 1094 53 1094 53 1067 27 c 0,19,20
 1040 0 1040 0 1003 0 c 2,21,-1
 1000 0 l 2,22,23
 963 0 963 0 936 27 c 0,24,25
 909 53 909 53 909 91 c 2,26,-1
 909 659 l 1,27,-1
 295 659 l 1,28,-1
 295 91 l 2,29,30
 295 53 295 53 268 27 c 0,31,32
 241 0 241 0 204 0 c 2,33,-1
 201 0 l 2,34,35
 164 0 164 0 137 27 c 0,36,37
 110 53 110 53 110 91 c 2,38,-1
 110 1411 l 2,39,40
 110 1449 110 1449 137 1476 c 0,41,42
 164 1502 164 1502 201 1502 c 2,43,-1
 204 1502 l 2,0,1
EndSplineSet
Substitution2: "'nalt' Alternate Annotation Forms in Latin lookup 3 subtable" uni24BD
EndChar

StartChar: I
Encoding: 73 73 44
Width: 465
GlyphClass: 1
Flags: W
LayerCount: 2
Fore
SplineSet
234 1502 m 2,0,1
 271 1502 271 1502 298 1476 c 0,2,3
 325 1449 325 1449 325 1411 c 2,4,-1
 325 91 l 2,5,6
 325 53 325 53 298 27 c 0,7,8
 271 0 271 0 234 0 c 2,9,-1
 231 0 l 2,10,11
 194 0 194 0 167 27 c 0,12,13
 140 53 140 53 140 91 c 2,14,-1
 140 1411 l 2,15,16
 140 1449 140 1449 167 1476 c 0,17,18
 194 1502 194 1502 231 1502 c 2,19,-1
 234 1502 l 2,0,1
EndSplineSet
Substitution2: "'nalt' Alternate Annotation Forms in Latin lookup 3 subtable" uni24BE
EndChar

StartChar: J
Encoding: 74 74 45
Width: 741
GlyphClass: 1
Flags: W
LayerCount: 2
Fore
SplineSet
437 1411 m 2,0,1
 437 1449 437 1449 463 1476 c 0,2,3
 490 1502 490 1502 528 1502 c 2,4,-1
 530 1502 l 2,5,6
 568 1502 568 1502 595 1476 c 0,7,8
 621 1449 621 1449 621 1411 c 2,9,-1
 621 335 l 2,10,11
 621 196 621 196 523 98 c 256,12,13
 425 0 425 0 286 0 c 2,14,-1
 101 0 l 2,15,16
 64 0 64 0 37 27 c 0,17,18
 10 53 10 53 10 91 c 2,19,-1
 10 93 l 2,20,21
 10 131 10 131 37 158 c 256,22,23
 64 185 64 185 101 185 c 2,24,-1
 286 185 l 2,25,26
 349 185 349 185 393 229 c 256,27,28
 437 273 437 273 437 335 c 2,29,-1
 437 1411 l 2,0,1
EndSplineSet
Substitution2: "'nalt' Alternate Annotation Forms in Latin lookup 3 subtable" uni24BF
EndChar

StartChar: K
Encoding: 75 75 46
Width: 1098
GlyphClass: 1
Flags: W
LayerCount: 2
Fore
SplineSet
204 1502 m 2,0,1
 241 1502 241 1502 268 1476 c 0,2,3
 295 1449 295 1449 295 1411 c 2,4,-1
 295 893 l 1,5,-1
 429 893 l 2,6,7
 578 893 578 893 683 998 c 0,8,9
 789 1103 789 1103 790 1252 c 2,10,-1
 790 1411 l 2,11,12
 790 1449 790 1449 817 1476 c 0,13,14
 843 1502 843 1502 881 1502 c 2,15,-1
 884 1502 l 2,16,17
 921 1502 921 1502 948 1476 c 0,18,19
 975 1449 975 1449 975 1411 c 2,20,-1
 975 1252 l 2,21,22
 975 978 975 978 755 814 c 1,23,24
 876 741 876 741 946 619 c 0,25,26
 1018 493 1018 493 1018 347 c 2,27,-1
 1018 91 l 2,28,29
 1018 53 1018 53 992 27 c 0,30,31
 965 0 965 0 927 0 c 2,32,-1
 925 0 l 2,33,34
 887 0 887 0 860 27 c 0,35,36
 834 53 834 53 834 91 c 2,37,-1
 834 347 l 2,38,39
 833 496 833 496 727 601 c 256,40,41
 621 706 621 706 472 706 c 2,42,-1
 295 706 l 1,43,-1
 295 91 l 2,44,45
 295 53 295 53 268 27 c 0,46,47
 241 0 241 0 204 0 c 2,48,-1
 201 0 l 2,49,50
 164 0 164 0 137 27 c 0,51,52
 110 53 110 53 110 91 c 2,53,-1
 110 1411 l 2,54,55
 110 1449 110 1449 137 1476 c 0,56,57
 164 1502 164 1502 201 1502 c 2,58,-1
 204 1502 l 2,0,1
EndSplineSet
Substitution2: "'nalt' Alternate Annotation Forms in Latin lookup 3 subtable" uni24C0
EndChar

StartChar: L
Encoding: 76 76 47
Width: 848
GlyphClass: 1
Flags: W
LayerCount: 2
Fore
SplineSet
305 1411 m 2,0,1
 305 1449 305 1449 278 1476 c 0,2,3
 251 1502 251 1502 214 1502 c 2,4,-1
 211 1502 l 2,5,6
 174 1502 174 1502 147 1476 c 0,7,8
 120 1449 120 1449 120 1411 c 2,9,-1
 120 335 l 2,10,11
 120 196 120 196 218 98 c 256,12,13
 316 0 316 0 455 0 c 2,14,-1
 746 0 l 2,15,16
 784 0 784 0 811 27 c 0,17,18
 838 53 838 53 838 91 c 2,19,-1
 838 93 l 2,20,21
 838 131 838 131 811 158 c 256,22,23
 784 185 784 185 746 185 c 2,24,-1
 455 185 l 2,25,26
 393 185 393 185 349 229 c 256,27,28
 305 273 305 273 305 335 c 2,29,-1
 305 1411 l 2,0,1
EndSplineSet
Substitution2: "'nalt' Alternate Annotation Forms in Latin lookup 3 subtable" uni24C1
EndChar

StartChar: M
Encoding: 77 77 48
Width: 1839
GlyphClass: 1
Flags: W
LayerCount: 2
Fore
SplineSet
295 91 m 2,0,1
 295 53 295 53 268 27 c 0,2,3
 241 0 241 0 204 0 c 2,4,-1
 201 0 l 2,5,6
 164 0 164 0 137 27 c 0,7,8
 110 53 110 53 110 91 c 2,9,-1
 110 1051 l 2,10,11
 110 1238 110 1238 242 1370 c 256,12,13
 374 1502 374 1502 561 1502 c 0,14,15
 784 1502 784 1502 920 1325 c 1,16,17
 1055 1502 1055 1502 1278 1502 c 0,18,19
 1465 1502 1465 1502 1597 1370 c 256,20,21
 1729 1238 1729 1238 1729 1051 c 2,22,-1
 1729 91 l 2,23,24
 1729 53 1729 53 1703 27 c 0,25,26
 1676 0 1676 0 1638 0 c 2,27,-1
 1636 0 l 2,28,29
 1598 0 1598 0 1572 27 c 0,30,31
 1545 53 1545 53 1545 91 c 2,32,-1
 1545 1051 l 2,33,34
 1545 1162 1545 1162 1467 1240 c 256,35,36
 1389 1318 1389 1318 1278 1318 c 0,37,38
 1168 1318 1168 1318 1090 1240 c 256,39,40
 1012 1162 1012 1162 1012 1051 c 2,41,-1
 1012 91 l 2,42,43
 1012 53 1012 53 985 27 c 0,44,45
 959 0 959 0 921 0 c 2,46,-1
 919 0 l 2,47,48
 881 0 881 0 854 27 c 0,49,50
 827 53 827 53 827 91 c 2,51,-1
 827 1051 l 2,52,53
 827 1162 827 1162 749 1240 c 256,54,55
 671 1318 671 1318 561 1318 c 256,56,57
 451 1318 451 1318 373 1240 c 256,58,59
 295 1162 295 1162 295 1051 c 2,60,-1
 295 91 l 2,0,1
EndSplineSet
Substitution2: "'nalt' Alternate Annotation Forms in Latin lookup 3 subtable" uni24C2
EndChar

StartChar: N
Encoding: 78 78 49
Width: 1195
GlyphClass: 1
Flags: W
LayerCount: 2
Fore
SplineSet
1085 91 m 2,0,1
 1085 53 1085 53 1058 27 c 0,2,3
 1031 0 1031 0 994 0 c 2,4,-1
 991 0 l 2,5,6
 954 0 954 0 927 27 c 0,7,8
 900 53 900 53 900 91 c 2,9,-1
 900 1015 l 2,10,11
 900 1140 900 1140 812 1229 c 0,12,13
 723 1318 723 1318 597 1318 c 0,14,15
 472 1318 472 1318 383 1229 c 0,16,17
 295 1140 295 1140 295 1015 c 2,18,-1
 295 91 l 2,19,20
 295 53 295 53 268 27 c 0,21,22
 241 0 241 0 204 0 c 2,23,-1
 201 0 l 2,24,25
 164 0 164 0 137 27 c 0,26,27
 110 53 110 53 110 91 c 2,28,-1
 110 1015 l 2,29,30
 110 1217 110 1217 253 1360 c 0,31,32
 396 1502 396 1502 597 1502 c 0,33,34
 799 1502 799 1502 942 1360 c 0,35,36
 1085 1217 1085 1217 1085 1015 c 2,37,-1
 1085 91 l 2,0,1
EndSplineSet
Substitution2: "'nalt' Alternate Annotation Forms in Latin lookup 3 subtable" uni24C3
EndChar

StartChar: O
Encoding: 79 79 50
Width: 1663
GlyphClass: 1
Flags: W
LayerCount: 2
Fore
SplineSet
1363 1282 m 0,1,2
 1583 1062 1583 1062 1583 751 c 256,3,4
 1583 440 1583 440 1363 220 c 0,5,6
 1142 0 1142 0 831 0 c 256,7,8
 520 0 520 0 300 220 c 256,9,10
 80 440 80 440 80 751 c 256,11,12
 80 1062 80 1062 300 1282 c 256,13,14
 520 1502 520 1502 831 1502 c 256,15,0
 1142 1502 1142 1502 1363 1282 c 0,1,2
431 1152 m 256,17,18
 265 986 265 986 265 751 c 256,19,20
 265 516 265 516 431 350 c 0,21,22
 597 185 597 185 831 185 c 0,23,24
 1066 185 1066 185 1232 350 c 0,25,26
 1398 516 1398 516 1398 751 c 256,27,28
 1398 986 1398 986 1232 1152 c 256,29,30
 1066 1318 1066 1318 831 1318 c 0,31,16
 597 1318 597 1318 431 1152 c 256,17,18
EndSplineSet
EndChar

StartChar: P
Encoding: 80 80 51
Width: 1182
GlyphClass: 1
Flags: W
LayerCount: 2
Fore
SplineSet
295 685 m 1,0,-1
 611 685 l 2,1,2
 742 685 742 685 835 778 c 0,3,4
 927 870 927 870 927 1001 c 256,5,6
 927 1132 927 1132 835 1225 c 0,7,8
 742 1318 742 1318 611 1318 c 256,9,10
 480 1318 480 1318 387 1225 c 0,11,12
 295 1132 295 1132 295 1001 c 2,13,-1
 295 685 l 1,0,-1
295 500 m 1,14,-1
 295 91 l 2,15,16
 295 53 295 53 268 27 c 0,17,18
 241 0 241 0 204 0 c 2,19,-1
 201 0 l 2,20,21
 164 0 164 0 137 27 c 0,22,23
 110 53 110 53 110 91 c 2,24,-1
 110 1001 l 2,25,26
 110 1209 110 1209 257 1356 c 0,27,28
 404 1502 404 1502 611 1502 c 0,29,30
 819 1502 819 1502 965 1356 c 0,31,32
 1112 1209 1112 1209 1112 1001 c 0,33,34
 1112 794 1112 794 965 647 c 0,35,36
 819 500 819 500 611 500 c 2,37,-1
 295 500 l 1,14,-1
EndSplineSet
Substitution2: "'nalt' Alternate Annotation Forms in Latin lookup 3 subtable" uni24C5
EndChar

StartChar: Q
Encoding: 81 81 52
Width: 1663
GlyphClass: 1
Flags: W
LayerCount: 2
Fore
SplineSet
1363 1282 m 0,1,2
 1583 1062 1583 1062 1583 751 c 0,3,4
 1583 465 1583 465 1392 252 c 0,5,6
 1204 40 1204 40 924 6 c 1,7,-1
 924 -178 l 2,8,9
 924 -216 924 -216 897 -243 c 0,10,11
 870 -269 870 -269 832 -269 c 2,12,-1
 830 -269 l 2,13,14
 792 -269 792 -269 766 -243 c 0,15,16
 739 -216 739 -216 739 -178 c 2,17,-1
 739 6 l 1,18,19
 459 40 459 40 270 252 c 0,20,21
 80 465 80 465 80 751 c 0,22,23
 80 1062 80 1062 300 1282 c 256,24,25
 520 1502 520 1502 831 1502 c 256,26,0
 1142 1502 1142 1502 1363 1282 c 0,1,2
832 531 m 2,27,28
 870 531 870 531 897 504 c 256,29,30
 924 477 924 477 924 440 c 2,31,-1
 924 192 l 1,32,33
 1127 225 1127 225 1262 383 c 0,34,35
 1398 542 1398 542 1398 751 c 0,36,37
 1398 986 1398 986 1232 1152 c 256,38,39
 1066 1318 1066 1318 831 1318 c 0,40,41
 597 1318 597 1318 431 1152 c 256,42,43
 265 986 265 986 265 751 c 0,44,45
 265 541 265 541 401 383 c 0,46,47
 536 225 536 225 739 192 c 1,48,-1
 739 440 l 2,49,50
 739 477 739 477 766 504 c 0,51,52
 792 531 792 531 830 531 c 2,53,-1
 832 531 l 2,27,28
EndSplineSet
Substitution2: "'nalt' Alternate Annotation Forms in Latin lookup 3 subtable" uni24C6
EndChar

StartChar: R
Encoding: 82 82 53
Width: 1130
GlyphClass: 1
Flags: W
LayerCount: 2
Fore
SplineSet
600 746 m 2,0,1
 718 746 718 746 802 829 c 0,2,3
 886 913 886 913 886 1031 c 0,4,5
 886 1150 886 1150 802 1234 c 0,6,7
 718 1317 718 1317 600 1317 c 2,8,-1
 485 1317 l 2,9,10
 398 1317 398 1317 347 1267 c 0,11,12
 307 1228 307 1228 297 1174 c 0,13,14
 294 1160 294 1160 294 1133 c 2,15,-1
 294 746 l 1,16,-1
 600 746 l 2,0,1
886 276 m 2,17,18
 886 394 886 394 802 478 c 0,19,20
 726 555 726 555 620 561 c 1,21,-1
 294 561 l 1,22,-1
 294 91 l 2,23,24
 294 53 294 53 268 27 c 0,25,26
 241 0 241 0 203 0 c 2,27,-1
 201 0 l 2,28,29
 163 0 163 0 137 27 c 0,30,31
 110 53 110 53 110 91 c 2,32,-1
 110 1142 l 2,33,34
 110 1291 110 1291 215 1396 c 0,35,36
 321 1502 321 1502 470 1502 c 2,37,-1
 600 1502 l 2,38,39
 795 1502 795 1502 932 1364 c 0,40,41
 1070 1226 1070 1226 1070 1031 c 0,42,43
 1070 837 1070 837 932 699 c 0,44,45
 907 674 907 674 881 654 c 1,46,47
 908 633 908 633 933 608 c 0,48,49
 1070 471 1070 471 1070 276 c 2,50,-1
 1070 91 l 2,51,52
 1070 53 1070 53 1043 27 c 0,53,54
 1016 0 1016 0 979 0 c 2,55,-1
 977 0 l 2,56,57
 940 0 940 0 913 27 c 0,58,59
 886 53 886 53 886 91 c 2,60,-1
 886 276 l 2,17,18
EndSplineSet
Substitution2: "'nalt' Alternate Annotation Forms in Latin lookup 3 subtable" uni24C7
EndChar

StartChar: S
Encoding: 83 83 54
Width: 1036
GlyphClass: 1
Flags: W
LayerCount: 2
Fore
SplineSet
500 1320 m 2,0,1
 402 1320 402 1320 333 1251 c 256,2,3
 264 1182 264 1182 264 1084 c 0,4,5
 264 965 264 965 372 903 c 0,6,7
 416 878 416 878 620 819 c 0,8,9
 784 770 784 770 858 703 c 0,10,11
 966 605 966 605 966 424 c 0,12,13
 966 248 966 248 841 124 c 0,14,15
 717 0 717 0 542 0 c 2,16,-1
 161 0 l 2,17,18
 124 0 124 0 97 27 c 256,19,20
 70 54 70 54 70 91 c 2,21,-1
 70 97 l 2,22,23
 70 134 70 134 97 161 c 256,24,25
 124 188 124 188 161 188 c 2,26,-1
 552 188 l 2,27,28
 649 188 649 188 719 257 c 0,29,30
 788 326 788 326 788 424 c 0,31,32
 788 541 788 541 680 606 c 0,33,34
 633 634 633 634 432 697 c 0,35,36
 267 751 267 751 194 817 c 0,37,38
 86 914 86 914 86 1084 c 0,39,40
 86 1260 86 1260 210 1384 c 256,41,42
 334 1508 334 1508 510 1508 c 2,43,-1
 779 1508 l 2,44,45
 817 1508 817 1508 844 1481 c 0,46,47
 870 1455 870 1455 870 1417 c 2,48,-1
 870 1411 l 2,49,50
 870 1374 870 1374 844 1347 c 0,51,52
 817 1320 817 1320 779 1320 c 2,53,-1
 500 1320 l 2,0,1
EndSplineSet
Substitution2: "'nalt' Alternate Annotation Forms in Latin lookup 3 subtable" uni24C8
EndChar

StartChar: T
Encoding: 84 84 55
Width: 994
GlyphClass: 1
Flags: W
LayerCount: 2
Fore
SplineSet
954 1409 m 2,0,1
 954 1371 954 1371 927 1344 c 0,2,3
 901 1318 901 1318 863 1318 c 2,4,-1
 589 1318 l 1,5,-1
 589 91 l 2,6,7
 589 53 589 53 563 27 c 0,8,9
 536 0 536 0 498 0 c 2,10,-1
 496 0 l 2,11,12
 458 0 458 0 431 27 c 0,13,14
 405 53 405 53 405 91 c 2,15,-1
 405 1318 l 1,16,-1
 131 1318 l 2,17,18
 94 1318 94 1318 67 1344 c 0,19,20
 40 1371 40 1371 40 1409 c 2,21,-1
 40 1411 l 2,22,23
 40 1449 40 1449 67 1476 c 0,24,25
 94 1502 94 1502 131 1502 c 2,26,-1
 863 1502 l 2,27,28
 901 1502 901 1502 927 1476 c 0,29,30
 954 1449 954 1449 954 1411 c 2,31,-1
 954 1409 l 2,0,1
EndSplineSet
Substitution2: "'nalt' Alternate Annotation Forms in Latin lookup 3 subtable" uni24C9
EndChar

StartChar: U
Encoding: 85 85 56
Width: 1195
GlyphClass: 1
Flags: W
LayerCount: 2
Fore
SplineSet
1085 1411 m 2,0,1
 1085 1449 1085 1449 1058 1476 c 0,2,3
 1031 1502 1031 1502 994 1502 c 2,4,-1
 991 1502 l 2,5,6
 954 1502 954 1502 927 1476 c 0,7,8
 900 1449 900 1449 900 1411 c 2,9,-1
 900 487 l 2,10,11
 900 362 900 362 812 273 c 0,12,13
 723 185 723 185 597 185 c 0,14,15
 472 185 472 185 383 273 c 0,16,17
 295 362 295 362 295 487 c 2,18,-1
 295 1411 l 2,19,20
 295 1449 295 1449 268 1476 c 0,21,22
 241 1502 241 1502 204 1502 c 2,23,-1
 201 1502 l 2,24,25
 164 1502 164 1502 137 1476 c 0,26,27
 110 1449 110 1449 110 1411 c 2,28,-1
 110 487 l 2,29,30
 110 285 110 285 253 143 c 0,31,32
 396 0 396 0 597 0 c 0,33,34
 799 0 799 0 942 143 c 0,35,36
 1085 285 1085 285 1085 487 c 2,37,-1
 1085 1411 l 2,0,1
EndSplineSet
Substitution2: "'nalt' Alternate Annotation Forms in Latin lookup 3 subtable" uni24CA
EndChar

StartChar: V
Encoding: 86 86 57
Width: 1156
GlyphClass: 1
Flags: W
LayerCount: 2
Fore
SplineSet
585 249 m 2,1,-1
 588 255 l 1,2,-1
 951 1441 l 2,3,4
 972 1502 972 1502 1037 1502 c 2,5,-1
 1044 1502 l 2,6,7
 1091 1502 1091 1502 1118 1464 c 0,8,9
 1146 1426 1146 1426 1130 1381 c 2,10,-1
 720 97 l 1,11,12
 682 0 682 0 578 0 c 256,13,14
 474 0 474 0 435 97 c 1,15,-1
 26 1381 l 2,16,17
 10 1426 10 1426 37 1464 c 0,18,19
 65 1502 65 1502 112 1502 c 2,20,-1
 119 1502 l 2,21,22
 184 1502 184 1502 205 1441 c 2,23,-1
 568 255 l 1,24,-1
 571 249 l 2,25,26
 574 243 574 243 578 243 c 256,27,0
 582 243 582 243 585 249 c 2,1,-1
EndSplineSet
Substitution2: "'nalt' Alternate Annotation Forms in Latin lookup 3 subtable" uni24CB
EndChar

StartChar: W
Encoding: 87 87 58
Width: 1839
GlyphClass: 1
Flags: W
LayerCount: 2
Fore
SplineSet
295 1411 m 2,0,1
 295 1449 295 1449 268 1476 c 0,2,3
 241 1502 241 1502 204 1502 c 2,4,-1
 201 1502 l 2,5,6
 164 1502 164 1502 137 1476 c 0,7,8
 110 1449 110 1449 110 1411 c 2,9,-1
 110 451 l 2,10,11
 110 264 110 264 242 132 c 256,12,13
 374 0 374 0 561 0 c 0,14,15
 784 0 784 0 920 177 c 1,16,17
 1055 0 1055 0 1278 0 c 0,18,19
 1465 0 1465 0 1597 132 c 256,20,21
 1729 264 1729 264 1729 451 c 2,22,-1
 1729 1411 l 2,23,24
 1729 1449 1729 1449 1703 1476 c 0,25,26
 1676 1502 1676 1502 1638 1502 c 2,27,-1
 1636 1502 l 2,28,29
 1598 1502 1598 1502 1572 1476 c 0,30,31
 1545 1449 1545 1449 1545 1411 c 2,32,-1
 1545 451 l 2,33,34
 1545 341 1545 341 1467 263 c 256,35,36
 1389 185 1389 185 1278 185 c 0,37,38
 1168 185 1168 185 1090 263 c 256,39,40
 1012 341 1012 341 1012 451 c 2,41,-1
 1012 1411 l 2,42,43
 1012 1449 1012 1449 985 1476 c 0,44,45
 959 1502 959 1502 921 1502 c 2,46,-1
 919 1502 l 2,47,48
 881 1502 881 1502 854 1476 c 0,49,50
 827 1449 827 1449 827 1411 c 2,51,-1
 827 451 l 2,52,53
 827 341 827 341 749 263 c 256,54,55
 671 185 671 185 561 185 c 256,56,57
 451 185 451 185 373 263 c 256,58,59
 295 341 295 341 295 451 c 2,60,-1
 295 1411 l 2,0,1
EndSplineSet
Substitution2: "'nalt' Alternate Annotation Forms in Latin lookup 3 subtable" uni24CC
EndChar

StartChar: X
Encoding: 88 88 59
Width: 1175
GlyphClass: 1
Flags: W
LayerCount: 2
Fore
SplineSet
1075 91 m 2,0,1
 1075 53 1075 53 1048 27 c 0,2,3
 1021 0 1021 0 984 0 c 2,4,-1
 981 0 l 2,5,6
 944 0 944 0 917 27 c 0,7,8
 890 53 890 53 890 91 c 2,9,-1
 890 394 l 2,10,11
 890 519 890 519 802 608 c 0,12,13
 713 697 713 697 587 697 c 0,14,15
 462 697 462 697 373 608 c 0,16,17
 285 519 285 519 285 394 c 2,18,-1
 285 91 l 2,19,20
 285 53 285 53 258 27 c 0,21,22
 231 0 231 0 194 0 c 2,23,-1
 191 0 l 2,24,25
 154 0 154 0 127 27 c 0,26,27
 100 53 100 53 100 91 c 2,28,-1
 100 394 l 2,29,30
 100 643 100 643 302 789 c 1,31,32
 100 935 100 935 100 1184 c 2,33,-1
 100 1411 l 2,34,35
 100 1449 100 1449 127 1476 c 0,36,37
 154 1502 154 1502 191 1502 c 2,38,-1
 194 1502 l 2,39,40
 231 1502 231 1502 258 1476 c 0,41,42
 285 1449 285 1449 285 1411 c 2,43,-1
 285 1184 l 2,44,45
 285 1059 285 1059 373 970 c 0,46,47
 462 881 462 881 587 881 c 0,48,49
 713 881 713 881 802 970 c 0,50,51
 890 1059 890 1059 890 1184 c 2,52,-1
 890 1411 l 2,53,54
 890 1449 890 1449 917 1476 c 0,55,56
 944 1502 944 1502 981 1502 c 2,57,-1
 984 1502 l 2,58,59
 1021 1502 1021 1502 1048 1476 c 0,60,61
 1075 1449 1075 1449 1075 1411 c 2,62,-1
 1075 1184 l 2,63,64
 1075 935 1075 935 873 789 c 1,65,66
 1075 643 1075 643 1075 394 c 2,67,-1
 1075 91 l 2,0,1
EndSplineSet
Substitution2: "'nalt' Alternate Annotation Forms in Latin lookup 3 subtable" uni24CD
EndChar

StartChar: Y
Encoding: 89 89 60
Width: 1175
GlyphClass: 1
Flags: W
LayerCount: 2
Fore
SplineSet
1075 1411 m 2,0,1
 1075 1449 1075 1449 1048 1476 c 0,2,3
 1021 1502 1021 1502 984 1502 c 2,4,-1
 981 1502 l 2,5,6
 944 1502 944 1502 917 1476 c 0,7,8
 890 1449 890 1449 890 1411 c 2,9,-1
 890 967 l 2,10,11
 890 841 890 841 802 752 c 0,12,13
 713 664 713 664 587 664 c 0,14,15
 462 664 462 664 373 752 c 0,16,17
 285 841 285 841 285 967 c 2,18,-1
 285 1411 l 2,19,20
 285 1449 285 1449 258 1476 c 0,21,22
 231 1502 231 1502 194 1502 c 2,23,-1
 191 1502 l 2,24,25
 154 1502 154 1502 127 1476 c 0,26,27
 100 1449 100 1449 100 1411 c 2,28,-1
 100 967 l 2,29,30
 100 790 100 790 213 654 c 0,31,32
 325 521 325 521 495 488 c 1,33,-1
 495 91 l 2,34,35
 495 53 495 53 522 27 c 0,36,37
 549 0 549 0 586 0 c 2,38,-1
 589 0 l 2,39,40
 626 0 626 0 653 27 c 0,41,42
 680 53 680 53 680 91 c 2,43,-1
 680 488 l 1,44,45
 850 521 850 521 962 654 c 0,46,47
 1075 790 1075 790 1075 967 c 2,48,-1
 1075 1411 l 2,0,1
EndSplineSet
Substitution2: "'nalt' Alternate Annotation Forms in Latin lookup 3 subtable" uni24CE
EndChar

StartChar: Z
Encoding: 90 90 61
Width: 1033
GlyphClass: 1
Flags: W
LayerCount: 2
Fore
SplineSet
84 1411 m 2,0,1
 84 1449 84 1449 110 1476 c 0,2,3
 137 1502 137 1502 175 1502 c 2,4,-1
 794 1502 l 2,5,6
 869 1501 869 1501 922 1447 c 256,7,8
 975 1393 975 1393 975 1318 c 0,9,10
 975 1262 975 1262 945 1216 c 2,11,-1
 226 185 l 1,12,-1
 902 185 l 2,13,14
 940 185 940 185 966 158 c 0,15,16
 993 131 993 131 993 93 c 2,17,-1
 993 91 l 2,18,19
 993 53 993 53 966 27 c 0,20,21
 940 0 940 0 902 0 c 2,22,-1
 206 0 l 1,23,24
 136 7 136 7 88 60 c 256,25,26
 40 113 40 113 40 185 c 0,27,28
 40 232 40 232 63 274 c 1,29,-1
 791 1318 l 1,30,-1
 175 1318 l 2,31,32
 137 1318 137 1318 110 1344 c 0,33,34
 84 1371 84 1371 84 1409 c 2,35,-1
 84 1411 l 2,0,1
EndSplineSet
Substitution2: "'nalt' Alternate Annotation Forms in Latin lookup 3 subtable" uni24CF
EndChar

StartChar: bracketleft
Encoding: 91 91 62
Width: 651
GlyphClass: 1
Flags: W
LayerCount: 2
Fore
SplineSet
100 1502 m 1,0,-1
 551 1502 l 1,1,-1
 551 1371 l 1,2,-1
 285 1371 l 1,3,-1
 285 -279 l 1,4,-1
 551 -279 l 1,5,-1
 551 -411 l 1,6,-1
 100 -411 l 1,7,-1
 100 1502 l 1,0,-1
EndSplineSet
EndChar

StartChar: backslash
Encoding: 92 92 63
Width: 635
GlyphClass: 1
Flags: W
LayerCount: 2
Fore
SplineSet
180 1502 m 1,0,-1
 625 0 l 1,1,-1
 454 0 l 1,2,-1
 10 1502 l 1,3,-1
 180 1502 l 1,0,-1
EndSplineSet
EndChar

StartChar: bracketright
Encoding: 93 93 64
Width: 651
GlyphClass: 1
Flags: W
LayerCount: 2
Fore
SplineSet
551 -411 m 1,0,-1
 100 -411 l 1,1,-1
 100 -279 l 1,2,-1
 366 -279 l 1,3,-1
 366 1371 l 1,4,-1
 100 1371 l 1,5,-1
 100 1502 l 1,6,-1
 551 1502 l 1,7,-1
 551 -411 l 1,0,-1
EndSplineSet
EndChar

StartChar: asciicircum
Encoding: 94 94 65
Width: 1309
GlyphClass: 1
Flags: W
LayerCount: 2
Fore
SplineSet
523 1465 m 2,0,1
 537 1502 537 1502 577 1502 c 2,2,-1
 731 1502 l 2,3,4
 771 1502 771 1502 786 1465 c 2,5,-1
 1056 898 l 2,6,7
 1068 869 1068 869 1050 844 c 0,8,9
 1033 818 1033 818 1002 818 c 2,10,-1
 930 818 l 2,11,12
 891 818 891 818 876 855 c 2,13,-1
 654 1340 l 1,14,-1
 432 855 l 2,15,16
 418 818 418 818 378 818 c 2,17,-1
 306 818 l 2,18,19
 275 818 275 818 258 844 c 0,20,21
 241 869 241 869 252 898 c 2,22,-1
 523 1465 l 2,0,1
EndSplineSet
EndChar

StartChar: underscore
Encoding: 95 95 66
Width: 947
GlyphClass: 1
Flags: W
LayerCount: 2
Fore
SplineSet
957 -185 m 1,0,-1
 957 0 l 1,1,-1
 -10 0 l 1,2,-1
 -10 -185 l 1,3,-1
 957 -185 l 1,0,-1
EndSplineSet
EndChar

StartChar: grave
Encoding: 96 96 67
Width: 621
GlyphClass: 1
Flags: W
LayerCount: 2
Fore
SplineSet
21 1411 m 2,0,1
 5 1427 5 1427 17 1451 c 0,2,3
 28 1473 28 1473 51 1473 c 2,4,-1
 206 1473 l 2,5,6
 226 1473 226 1473 236 1458 c 2,7,-1
 411 1207 l 2,8,9
 426 1187 426 1187 416 1167 c 0,10,11
 405 1146 405 1146 381 1146 c 2,12,-1
 305 1146 l 2,13,14
 290 1146 290 1146 274 1161 c 2,15,-1
 21 1411 l 2,0,1
EndSplineSet
EndChar

StartChar: a
Encoding: 97 97 68
Width: 1292
GlyphClass: 1
Flags: W
LayerCount: 2
Fore
SplineSet
1032 932 m 256,1,2
 1192 772 1192 772 1192 546 c 2,3,-1
 1192 91 l 2,4,5
 1192 53 1192 53 1165 27 c 0,6,7
 1138 0 1138 0 1101 0 c 2,8,-1
 1098 0 l 2,9,10
 1061 0 1061 0 1034 27 c 0,11,12
 1007 53 1007 53 1007 91 c 2,13,-1
 1007 137 l 1,14,15
 852 0 852 0 646 0 c 0,16,17
 420 0 420 0 260 160 c 256,18,19
 100 320 100 320 100 546 c 256,20,21
 100 772 100 772 260 932 c 256,22,23
 420 1092 420 1092 646 1092 c 256,24,0
 872 1092 872 1092 1032 932 c 256,1,2
390 801 m 0,26,27
 285 695 285 695 285 546 c 0,28,29
 285 396 285 396 390 290 c 0,30,31
 496 185 496 185 646 185 c 256,32,33
 796 185 796 185 901 290 c 0,34,35
 1007 396 1007 396 1007 546 c 0,36,37
 1007 695 1007 695 901 801 c 0,38,39
 796 907 796 907 646 907 c 256,40,25
 496 907 496 907 390 801 c 0,26,27
EndSplineSet
EndChar

StartChar: b
Encoding: 98 98 69
Width: 1262
GlyphClass: 1
Flags: W
LayerCount: 2
Fore
SplineSet
901 799 m 0,1,2
 1007 693 1007 693 1007 543 c 0,3,4
 1007 394 1007 394 901 288 c 0,5,6
 796 182 796 182 646 182 c 256,7,8
 496 182 496 182 390 288 c 0,9,10
 285 394 285 394 285 543 c 0,11,12
 285 693 285 693 390 799 c 0,13,14
 496 905 496 905 646 905 c 256,15,0
 796 905 796 905 901 799 c 0,1,2
191 1502 m 2,16,17
 154 1502 154 1502 127 1476 c 0,18,19
 100 1449 100 1449 100 1411 c 2,20,-1
 100 543 l 2,21,22
 101 318 101 318 261 159 c 0,23,24
 420 0 420 0 646 0 c 256,25,26
 872 0 872 0 1032 160 c 256,27,28
 1192 320 1192 320 1192 546 c 256,29,30
 1192 772 1192 772 1032 932 c 256,31,32
 872 1092 872 1092 646 1092 c 0,33,34
 439 1092 439 1092 285 955 c 1,35,-1
 285 1411 l 2,36,37
 285 1449 285 1449 258 1476 c 0,38,39
 231 1502 231 1502 194 1502 c 2,40,-1
 191 1502 l 2,16,17
EndSplineSet
EndChar

StartChar: c
Encoding: 99 99 70
Width: 915
GlyphClass: 1
Flags: W
LayerCount: 2
Fore
SplineSet
781 1066 m 0,1,2
 845 1046 845 1046 845 979 c 2,3,-1
 845 974 l 2,4,5
 845 928 845 928 808 901 c 0,6,7
 770 873 770 873 726 887 c 0,8,9
 673 905 673 905 616 905 c 0,10,11
 466 905 466 905 360 799 c 0,12,13
 255 693 255 693 255 543 c 0,14,15
 255 394 255 394 360 288 c 0,16,17
 466 182 466 182 616 182 c 0,18,19
 673 182 673 182 726 199 c 0,20,21
 770 213 770 213 808 186 c 0,22,23
 845 159 845 159 845 112 c 0,24,25
 845 46 845 46 781 25 c 0,26,27
 701 0 701 0 616 0 c 0,28,29
 390 0 390 0 230 160 c 256,30,31
 70 320 70 320 70 546 c 256,32,33
 70 772 70 772 230 932 c 256,34,35
 390 1092 390 1092 616 1092 c 0,36,0
 701 1092 701 1092 781 1066 c 0,1,2
EndSplineSet
EndChar

StartChar: d
Encoding: 100 100 71
Width: 1262
GlyphClass: 1
Flags: W
LayerCount: 2
Fore
SplineSet
360 799 m 0,1,2
 255 693 255 693 255 543 c 0,3,4
 255 394 255 394 360 288 c 0,5,6
 466 182 466 182 616 182 c 256,7,8
 766 182 766 182 871 288 c 0,9,10
 977 394 977 394 977 543 c 0,11,12
 977 693 977 693 871 799 c 0,13,14
 766 905 766 905 616 905 c 256,15,0
 466 905 466 905 360 799 c 0,1,2
1071 1502 m 2,16,17
 1108 1502 1108 1502 1135 1476 c 0,18,19
 1162 1449 1162 1449 1162 1411 c 2,20,-1
 1162 543 l 2,21,22
 1161 318 1161 318 1001 159 c 256,23,24
 841 0 841 0 616 0 c 0,25,26
 390 0 390 0 230 160 c 256,27,28
 70 320 70 320 70 546 c 256,29,30
 70 772 70 772 230 932 c 256,31,32
 390 1092 390 1092 616 1092 c 0,33,34
 822 1092 822 1092 977 955 c 1,35,-1
 977 1411 l 2,36,37
 977 1449 977 1449 1004 1476 c 0,38,39
 1031 1502 1031 1502 1068 1502 c 2,40,-1
 1071 1502 l 2,16,17
EndSplineSet
EndChar

StartChar: e
Encoding: 101 101 72
Width: 1217
GlyphClass: 1
Flags: W
LayerCount: 2
Fore
SplineSet
892 776 m 1,1,-1
 259 490 l 1,2,3
 255 516 255 516 255 543 c 0,4,5
 255 693 255 693 360 799 c 0,6,7
 466 905 466 905 616 905 c 0,8,0
 784 905 784 905 892 776 c 1,1,-1
914 1003 m 0,10,11
 779 1092 779 1092 616 1092 c 0,12,13
 390 1092 390 1092 230 932 c 256,14,15
 70 772 70 772 70 546 c 256,16,17
 70 320 70 320 230 160 c 256,18,19
 390 0 390 0 616 0 c 0,20,21
 792 0 792 0 935 103 c 0,22,23
 1075 203 1075 203 1131 365 c 0,24,25
 1147 410 1147 410 1120 448 c 0,26,27
 1092 487 1092 487 1045 487 c 0,28,29
 979 487 979 487 957 425 c 0,30,31
 920 318 920 318 828 251 c 0,32,33
 733 182 733 182 616 182 c 0,34,35
 440 182 440 182 332 320 c 1,36,37
 416 358 416 358 699 486 c 0,38,39
 927 589 927 589 1067 652 c 0,40,41
 1102 668 1102 668 1115 703 c 0,42,43
 1128 739 1128 739 1112 773 c 0,44,9
 1047 916 1047 916 914 1003 c 0,10,11
EndSplineSet
EndChar

StartChar: f
Encoding: 102 102 73
Width: 699
GlyphClass: 1
Flags: W
LayerCount: 2
Fore
SplineSet
511 1502 m 2,0,1
 340 1502 340 1502 220 1382 c 0,2,3
 102 1263 102 1263 100 1092 c 2,4,-1
 100 91 l 2,5,6
 100 53 100 53 127 27 c 0,7,8
 154 0 154 0 191 0 c 2,9,-1
 194 0 l 2,10,11
 231 0 231 0 258 27 c 0,12,13
 285 53 285 53 285 91 c 2,14,-1
 285 906 l 1,15,-1
 568 906 l 2,16,17
 606 906 606 906 633 933 c 0,18,19
 659 960 659 960 659 998 c 2,20,-1
 659 1000 l 2,21,22
 659 1038 659 1038 633 1064 c 0,23,24
 606 1091 606 1091 568 1091 c 2,25,-1
 285 1091 l 1,26,-1
 285 1092 l 2,27,28
 286 1186 286 1186 351 1252 c 0,29,30
 417 1318 417 1318 511 1318 c 2,31,-1
 568 1318 l 2,32,33
 606 1318 606 1318 633 1344 c 0,34,35
 659 1371 659 1371 659 1409 c 2,36,-1
 659 1411 l 2,37,38
 659 1449 659 1449 633 1476 c 0,39,40
 606 1502 606 1502 568 1502 c 2,41,-1
 511 1502 l 2,0,1
EndSplineSet
EndChar

StartChar: g
Encoding: 103 103 74
Width: 1262
GlyphClass: 1
Flags: W
LayerCount: 2
Fore
SplineSet
616 -226 m 0,1,2
 753 -226 753 -226 863 -120 c 0,3,4
 977 -11 977 -11 977 135 c 2,5,-1
 977 137 l 1,6,7
 822 0 822 0 616 0 c 0,8,9
 390 0 390 0 230 160 c 256,10,11
 70 320 70 320 70 546 c 256,12,13
 70 772 70 772 230 932 c 256,14,15
 390 1092 390 1092 616 1092 c 0,16,17
 841 1092 841 1092 1001 933 c 256,18,19
 1161 774 1161 774 1162 548 c 2,20,-1
 1162 135 l 2,21,22
 1162 -86 1162 -86 990 -251 c 0,23,24
 824 -411 824 -411 616 -411 c 0,25,26
 295 -411 295 -411 136 -163 c 0,27,28
 112 -126 112 -126 126 -84 c 256,29,30
 140 -42 140 -42 182 -27 c 2,31,-1
 185 -26 l 2,32,33
 252 -3 252 -3 292 -62 c 0,34,0
 400 -226 400 -226 616 -226 c 0,1,2
977 552 m 2,35,36
 975 700 975 700 869 803 c 0,37,38
 764 907 764 907 616 907 c 0,39,40
 466 907 466 907 360 801 c 0,41,42
 255 695 255 695 255 546 c 0,43,44
 255 396 255 396 360 290 c 0,45,46
 466 185 466 185 616 185 c 256,47,48
 766 185 766 185 871 290 c 0,49,50
 977 396 977 396 977 546 c 2,51,-1
 977 552 l 2,35,36
EndSplineSet
EndChar

StartChar: h
Encoding: 104 104 75
Width: 1107
GlyphClass: 1
Flags: W
LayerCount: 2
Fore
SplineSet
194 1502 m 2,0,1
 231 1502 231 1502 258 1476 c 0,2,3
 285 1449 285 1449 285 1411 c 2,4,-1
 285 1003 l 1,5,6
 404 1092 404 1092 554 1092 c 0,7,8
 741 1092 741 1092 874 959 c 256,9,10
 1007 826 1007 826 1007 638 c 2,11,-1
 1007 91 l 2,12,13
 1007 53 1007 53 980 27 c 0,14,15
 954 0 954 0 916 0 c 2,16,-1
 914 0 l 2,17,18
 876 0 876 0 849 27 c 0,19,20
 822 53 822 53 822 91 c 2,21,-1
 822 638 l 2,22,23
 822 749 822 749 744 828 c 0,24,25
 665 907 665 907 554 907 c 0,26,27
 442 907 442 907 363 828 c 0,28,29
 285 749 285 749 285 638 c 2,30,-1
 285 91 l 2,31,32
 285 53 285 53 258 27 c 0,33,34
 231 0 231 0 194 0 c 2,35,-1
 191 0 l 2,36,37
 154 0 154 0 127 27 c 0,38,39
 100 53 100 53 100 91 c 2,40,-1
 100 1411 l 2,41,42
 100 1449 100 1449 127 1476 c 0,43,44
 154 1502 154 1502 191 1502 c 2,45,-1
 194 1502 l 2,0,1
EndSplineSet
EndChar

StartChar: i
Encoding: 105 105 76
Width: 460
GlyphClass: 1
Flags: W
LayerCount: 2
Fore
SplineSet
231 1092 m 2,0,1
 269 1092 269 1092 295 1065 c 0,2,3
 322 1038 322 1038 322 1000 c 2,4,-1
 322 91 l 2,5,6
 322 53 322 53 295 27 c 0,7,8
 269 0 269 0 231 0 c 2,9,-1
 229 0 l 2,10,11
 191 0 191 0 164 27 c 0,12,13
 137 53 137 53 137 91 c 2,14,-1
 137 1000 l 2,15,16
 137 1038 137 1038 164 1065 c 256,17,18
 191 1092 191 1092 229 1092 c 2,19,-1
 231 1092 l 2,0,1
230 1282 m 0,20,21
 184 1282 184 1282 152 1314 c 256,22,23
 120 1346 120 1346 120 1392 c 0,24,25
 120 1437 120 1437 152 1469 c 256,26,27
 184 1501 184 1501 230 1501 c 0,28,29
 275 1501 275 1501 307 1469 c 0,30,31
 340 1437 340 1437 340 1392 c 0,32,33
 340 1346 340 1346 307 1314 c 0,34,35
 275 1282 275 1282 230 1282 c 0,20,21
EndSplineSet
EndChar

StartChar: j
Encoding: 106 106 77
Width: 469
GlyphClass: 1
Flags: W
LayerCount: 2
Fore
SplineSet
-61 -411 m 2,0,1
 110 -411 110 -411 229 -291 c 0,2,3
 347 -172 347 -172 349 0 c 2,4,-1
 349 1000 l 2,5,6
 349 1038 349 1038 323 1065 c 0,7,8
 296 1092 296 1092 258 1092 c 2,9,-1
 256 1092 l 2,10,11
 218 1092 218 1092 191 1065 c 0,12,13
 165 1038 165 1038 165 1000 c 2,14,-1
 165 0 l 2,15,16
 164 -95 164 -95 98 -160 c 0,17,18
 33 -226 33 -226 -61 -226 c 2,19,-1
 -119 -226 l 2,20,21
 -156 -226 -156 -226 -183 -253 c 256,22,23
 -210 -280 -210 -280 -210 -317 c 2,24,-1
 -210 -320 l 2,25,26
 -210 -357 -210 -357 -183 -384 c 256,27,28
 -156 -411 -156 -411 -119 -411 c 2,29,-1
 -61 -411 l 2,0,1
333 1316 m 0,31,32
 366 1348 366 1348 366 1394 c 0,33,34
 366 1439 366 1439 333 1471 c 0,35,36
 301 1503 301 1503 256 1503 c 0,37,38
 210 1503 210 1503 178 1471 c 256,39,40
 146 1439 146 1439 146 1394 c 0,41,42
 146 1348 146 1348 178 1316 c 256,43,44
 210 1284 210 1284 256 1284 c 0,45,30
 301 1284 301 1284 333 1316 c 0,31,32
EndSplineSet
EndChar

StartChar: k
Encoding: 107 107 78
Width: 1013
GlyphClass: 1
Flags: W
LayerCount: 2
Fore
SplineSet
194 1502 m 2,0,1
 231 1502 231 1502 258 1476 c 0,2,3
 285 1449 285 1449 285 1411 c 2,4,-1
 285 688 l 1,5,-1
 353 688 l 2,6,7
 492 688 492 688 596 781 c 0,8,9
 698 874 698 874 712 1010 c 0,10,11
 716 1045 716 1045 742 1068 c 0,12,13
 768 1092 768 1092 803 1092 c 2,14,-1
 806 1092 l 2,15,16
 846 1092 846 1092 873 1062 c 256,17,18
 900 1032 900 1032 896 991 c 0,19,20
 873 753 873 753 680 609 c 1,21,22
 800 536 800 536 870 414 c 0,23,24
 943 288 943 288 943 142 c 2,25,-1
 943 91 l 2,26,27
 943 53 943 53 916 27 c 0,28,29
 889 0 889 0 852 0 c 2,30,-1
 849 0 l 2,31,32
 812 0 812 0 785 27 c 0,33,34
 758 53 758 53 758 91 c 2,35,-1
 758 142 l 2,36,37
 757 291 757 291 652 396 c 0,38,39
 546 501 546 501 397 501 c 2,40,-1
 285 501 l 1,41,-1
 285 91 l 2,42,43
 285 53 285 53 258 27 c 0,44,45
 231 0 231 0 194 0 c 2,46,-1
 191 0 l 2,47,48
 154 0 154 0 127 27 c 0,49,50
 100 53 100 53 100 91 c 2,51,-1
 100 1411 l 2,52,53
 100 1449 100 1449 127 1476 c 0,54,55
 154 1502 154 1502 191 1502 c 2,56,-1
 194 1502 l 2,0,1
EndSplineSet
EndChar

StartChar: l
Encoding: 108 108 79
Width: 465
GlyphClass: 1
Flags: W
LayerCount: 2
Fore
SplineSet
234 1502 m 2,0,1
 271 1502 271 1502 298 1476 c 0,2,3
 325 1449 325 1449 325 1411 c 2,4,-1
 325 91 l 2,5,6
 325 53 325 53 298 27 c 0,7,8
 271 0 271 0 234 0 c 2,9,-1
 231 0 l 2,10,11
 194 0 194 0 167 27 c 0,12,13
 140 53 140 53 140 91 c 2,14,-1
 140 1411 l 2,15,16
 140 1449 140 1449 167 1476 c 0,17,18
 194 1502 194 1502 231 1502 c 2,19,-1
 234 1502 l 2,0,1
EndSplineSet
EndChar

StartChar: l_alt
Encoding: 65538 -1 80
Width: 607
GlyphClass: 1
Flags: W
LayerCount: 2
Fore
SplineSet
234 1502 m 2,0,1
 271 1502 271 1502 298 1476 c 0,2,3
 325 1449 325 1449 325 1411 c 2,4,-1
 325 284 l 2,5,6
 325 243 325 243 354 214 c 256,7,8
 383 185 383 185 425 185 c 2,9,-1
 505 185 l 2,10,11
 542 185 542 185 569 158 c 256,12,13
 596 131 596 131 596 93 c 2,14,-1
 596 91 l 2,15,16
 596 53 596 53 569 27 c 0,17,18
 542 0 542 0 505 0 c 2,19,-1
 425 0 l 2,20,21
 307 0 307 0 223 83 c 0,22,23
 140 167 140 167 140 284 c 2,24,-1
 140 1411 l 2,25,26
 140 1449 140 1449 167 1476 c 0,27,28
 194 1502 194 1502 231 1502 c 2,29,-1
 234 1502 l 2,0,1
EndSplineSet
EndChar

StartChar: m
Encoding: 109 109 81
Width: 1819
GlyphClass: 1
Flags: W
LayerCount: 2
Fore
SplineSet
285 91 m 2,0,1
 285 53 285 53 258 27 c 0,2,3
 231 0 231 0 194 0 c 2,4,-1
 191 0 l 2,5,6
 154 0 154 0 127 27 c 0,7,8
 100 53 100 53 100 91 c 2,9,-1
 100 641 l 2,10,11
 100 827 100 827 232 960 c 0,12,13
 364 1092 364 1092 551 1092 c 0,14,15
 774 1092 774 1092 910 914 c 1,16,17
 1045 1092 1045 1092 1268 1092 c 0,18,19
 1455 1092 1455 1092 1587 960 c 0,20,21
 1719 827 1719 827 1719 641 c 2,22,-1
 1719 91 l 2,23,24
 1719 53 1719 53 1693 27 c 0,25,26
 1666 0 1666 0 1628 0 c 2,27,-1
 1626 0 l 2,28,29
 1588 0 1588 0 1562 27 c 0,30,31
 1535 53 1535 53 1535 91 c 2,32,-1
 1535 641 l 2,33,34
 1535 751 1535 751 1457 829 c 256,35,36
 1379 907 1379 907 1268 907 c 0,37,38
 1158 907 1158 907 1080 829 c 256,39,40
 1002 751 1002 751 1002 641 c 2,41,-1
 1002 91 l 2,42,43
 1002 53 1002 53 975 27 c 0,44,45
 949 0 949 0 911 0 c 2,46,-1
 909 0 l 2,47,48
 871 0 871 0 844 27 c 0,49,50
 817 53 817 53 817 91 c 2,51,-1
 817 641 l 2,52,53
 817 751 817 751 739 829 c 256,54,55
 661 907 661 907 551 907 c 256,56,57
 441 907 441 907 363 829 c 256,58,59
 285 751 285 751 285 641 c 2,60,-1
 285 91 l 2,0,1
EndSplineSet
EndChar

StartChar: n
Encoding: 110 110 82
Width: 1107
GlyphClass: 1
Flags: W
LayerCount: 2
Fore
SplineSet
285 91 m 2,0,1
 285 53 285 53 258 27 c 0,2,3
 231 0 231 0 194 0 c 2,4,-1
 191 0 l 2,5,6
 154 0 154 0 127 27 c 0,7,8
 100 53 100 53 100 91 c 2,9,-1
 100 638 l 2,10,11
 100 826 100 826 233 959 c 256,12,13
 366 1092 366 1092 554 1092 c 0,14,15
 741 1092 741 1092 874 959 c 256,16,17
 1007 826 1007 826 1007 638 c 2,18,-1
 1007 91 l 2,19,20
 1007 53 1007 53 980 27 c 0,21,22
 954 0 954 0 916 0 c 2,23,-1
 914 0 l 2,24,25
 876 0 876 0 849 27 c 0,26,27
 822 53 822 53 822 91 c 2,28,-1
 822 638 l 2,29,30
 822 749 822 749 744 828 c 0,31,32
 665 907 665 907 554 907 c 0,33,34
 442 907 442 907 363 828 c 0,35,36
 285 749 285 749 285 638 c 2,37,-1
 285 91 l 2,0,1
EndSplineSet
EndChar

StartChar: o
Encoding: 111 111 83
Width: 1232
GlyphClass: 1
Flags: W
LayerCount: 2
Fore
SplineSet
871 799 m 0,1,2
 977 693 977 693 977 543 c 0,3,4
 977 394 977 394 871 288 c 0,5,6
 766 182 766 182 616 182 c 256,7,8
 466 182 466 182 360 288 c 0,9,10
 255 394 255 394 255 543 c 0,11,12
 255 693 255 693 360 799 c 0,13,14
 466 905 466 905 616 905 c 256,15,0
 766 905 766 905 871 799 c 0,1,2
230 932 m 256,17,18
 70 772 70 772 70 546 c 256,19,20
 70 320 70 320 230 160 c 256,21,22
 390 0 390 0 616 0 c 256,23,24
 842 0 842 0 1002 160 c 256,25,26
 1162 320 1162 320 1162 546 c 256,27,28
 1162 772 1162 772 1002 932 c 256,29,30
 842 1092 842 1092 616 1092 c 256,31,16
 390 1092 390 1092 230 932 c 256,17,18
EndSplineSet
EndChar

StartChar: p
Encoding: 112 112 84
Width: 1262
GlyphClass: 1
Flags: W
LayerCount: 2
Fore
SplineSet
901 293 m 0,1,2
 1007 399 1007 399 1007 548 c 0,3,4
 1007 698 1007 698 901 804 c 0,5,6
 796 909 796 909 646 909 c 256,7,8
 496 909 496 909 390 804 c 0,9,10
 285 698 285 698 285 548 c 0,11,12
 285 399 285 399 390 293 c 0,13,14
 496 187 496 187 646 187 c 256,15,0
 796 187 796 187 901 293 c 0,1,2
191 -411 m 2,16,17
 154 -411 154 -411 127 -384 c 256,18,19
 100 -357 100 -357 100 -320 c 2,20,-1
 100 548 l 2,21,22
 101 774 101 774 261 933 c 0,23,24
 420 1092 420 1092 646 1092 c 256,25,26
 872 1092 872 1092 1032 932 c 256,27,28
 1192 772 1192 772 1192 546 c 256,29,30
 1192 320 1192 320 1032 160 c 256,31,32
 872 0 872 0 646 0 c 0,33,34
 439 0 439 0 285 137 c 1,35,-1
 285 -320 l 2,36,37
 285 -357 285 -357 258 -384 c 256,38,39
 231 -411 231 -411 194 -411 c 2,40,-1
 191 -411 l 2,16,17
EndSplineSet
EndChar

StartChar: q
Encoding: 113 113 85
Width: 1262
GlyphClass: 1
Flags: W
LayerCount: 2
Fore
SplineSet
360 293 m 0,1,2
 255 399 255 399 255 548 c 0,3,4
 255 698 255 698 360 804 c 0,5,6
 466 909 466 909 616 909 c 256,7,8
 766 909 766 909 871 804 c 0,9,10
 977 698 977 698 977 548 c 0,11,12
 977 399 977 399 871 293 c 0,13,14
 766 187 766 187 616 187 c 256,15,0
 466 187 466 187 360 293 c 0,1,2
1071 -411 m 2,16,17
 1108 -411 1108 -411 1135 -384 c 256,18,19
 1162 -357 1162 -357 1162 -320 c 2,20,-1
 1162 548 l 2,21,22
 1161 773 1161 773 1001 933 c 0,23,24
 841 1092 841 1092 616 1092 c 0,25,26
 390 1092 390 1092 230 932 c 256,27,28
 70 772 70 772 70 546 c 256,29,30
 70 320 70 320 230 160 c 256,31,32
 390 0 390 0 616 0 c 0,33,34
 822 0 822 0 977 137 c 1,35,-1
 977 -320 l 2,36,37
 977 -357 977 -357 1004 -384 c 256,38,39
 1031 -411 1031 -411 1068 -411 c 2,40,-1
 1071 -411 l 2,16,17
EndSplineSet
EndChar

StartChar: r
Encoding: 114 114 86
Width: 669
GlyphClass: 1
Flags: W
LayerCount: 2
Fore
SplineSet
511 1092 m 2,0,1
 340 1092 340 1092 220 972 c 0,2,3
 102 852 102 852 100 681 c 2,4,-1
 100 91 l 2,5,6
 100 53 100 53 127 27 c 0,7,8
 154 0 154 0 191 0 c 2,9,-1
 194 0 l 2,10,11
 231 0 231 0 258 27 c 0,12,13
 285 53 285 53 285 91 c 2,14,-1
 285 681 l 2,15,16
 286 775 286 775 351 841 c 0,17,18
 417 907 417 907 511 907 c 2,19,-1
 568 907 l 2,20,21
 606 907 606 907 633 934 c 0,22,23
 659 960 659 960 659 998 c 2,24,-1
 659 1000 l 2,25,26
 659 1038 659 1038 633 1065 c 0,27,28
 606 1092 606 1092 568 1092 c 2,29,-1
 511 1092 l 2,0,1
EndSplineSet
EndChar

StartChar: s
Encoding: 115 115 87
Width: 791
GlyphClass: 1
Flags: W
LayerCount: 2
Fore
SplineSet
380 907 m 2,0,1
 324 907 324 907 285 868 c 0,2,3
 246 828 246 828 246 773 c 0,4,5
 246 695 246 695 320 656 c 0,6,7
 343 644 343 644 493 604 c 0,8,9
 605 572 605 572 657 522 c 0,10,11
 731 452 731 452 731 319 c 0,12,13
 731 187 731 187 638 93 c 0,14,15
 544 0 544 0 412 0 c 2,16,-1
 151 0 l 2,17,18
 114 0 114 0 87 27 c 0,19,20
 60 53 60 53 60 91 c 2,21,-1
 60 93 l 2,22,23
 60 131 60 131 87 158 c 256,24,25
 114 185 114 185 151 185 c 2,26,-1
 422 185 l 2,27,28
 478 185 478 185 517 224 c 256,29,30
 556 263 556 263 556 319 c 0,31,32
 556 393 556 393 482 429 c 0,33,34
 465 437 465 437 309 481 c 0,35,36
 198 514 198 514 145 565 c 0,37,38
 71 638 71 638 71 773 c 0,39,40
 71 905 71 905 164 998 c 0,41,42
 258 1092 258 1092 390 1092 c 2,43,-1
 574 1092 l 2,44,45
 612 1092 612 1092 639 1065 c 256,46,47
 666 1038 666 1038 666 1000 c 2,48,-1
 666 998 l 2,49,50
 666 960 666 960 639 934 c 0,51,52
 612 907 612 907 574 907 c 2,53,-1
 380 907 l 2,0,1
EndSplineSet
Substitution2: "'hist' Historical Forms in Latin lookup 4 subtable" longs
EndChar

StartChar: t
Encoding: 116 116 88
Width: 596
GlyphClass: 1
Flags: W
LayerCount: 2
Fore
SplineSet
194 1502 m 2,0,1
 231 1502 231 1502 258 1476 c 0,2,3
 285 1449 285 1449 285 1411 c 2,4,-1
 285 1092 l 1,5,-1
 465 1092 l 2,6,7
 502 1092 502 1092 529 1065 c 256,8,9
 556 1038 556 1038 556 1000 c 2,10,-1
 556 998 l 2,11,12
 556 960 556 960 529 934 c 0,13,14
 502 907 502 907 465 907 c 2,15,-1
 285 907 l 1,16,-1
 285 284 l 2,17,18
 285 243 285 243 314 214 c 256,19,20
 343 185 343 185 385 185 c 2,21,-1
 465 185 l 2,22,23
 502 185 502 185 529 158 c 256,24,25
 556 131 556 131 556 93 c 2,26,-1
 556 91 l 2,27,28
 556 53 556 53 529 27 c 0,29,30
 502 0 502 0 465 0 c 2,31,-1
 385 0 l 2,32,33
 267 0 267 0 183 83 c 0,34,35
 100 167 100 167 100 284 c 2,36,-1
 100 1411 l 2,37,38
 100 1449 100 1449 127 1476 c 0,39,40
 154 1502 154 1502 191 1502 c 2,41,-1
 194 1502 l 2,0,1
EndSplineSet
EndChar

StartChar: u
Encoding: 117 117 89
Width: 1107
GlyphClass: 1
Flags: W
LayerCount: 2
Fore
SplineSet
285 1000 m 2,0,1
 285 1038 285 1038 258 1065 c 256,2,3
 231 1092 231 1092 194 1092 c 2,4,-1
 191 1092 l 2,5,6
 154 1092 154 1092 127 1065 c 256,7,8
 100 1038 100 1038 100 1000 c 2,9,-1
 100 453 l 2,10,11
 100 266 100 266 233 133 c 256,12,13
 366 0 366 0 554 0 c 0,14,15
 741 0 741 0 874 133 c 256,16,17
 1007 266 1007 266 1007 453 c 2,18,-1
 1007 1000 l 2,19,20
 1007 1038 1007 1038 980 1065 c 0,21,22
 954 1092 954 1092 916 1092 c 2,23,-1
 914 1092 l 2,24,25
 876 1092 876 1092 849 1065 c 256,26,27
 822 1038 822 1038 822 1000 c 2,28,-1
 822 453 l 2,29,30
 822 342 822 342 744 263 c 0,31,32
 665 185 665 185 554 185 c 0,33,34
 442 185 442 185 363 263 c 0,35,36
 285 342 285 342 285 453 c 2,37,-1
 285 1000 l 2,0,1
EndSplineSet
EndChar

StartChar: v
Encoding: 118 118 90
Width: 1087
GlyphClass: 1
Flags: W
LayerCount: 2
Fore
SplineSet
533 257 m 1,1,2
 533 258 533 258 537 249 c 0,3,4
 543 234 543 234 551 249 c 2,5,-1
 553 255 l 1,6,-1
 888 1036 l 2,7,8
 912 1092 912 1092 972 1092 c 2,9,-1
 974 1092 l 2,10,11
 1023 1092 1023 1092 1050 1051 c 256,12,13
 1077 1010 1077 1010 1058 965 c 2,14,-1
 686 97 l 2,15,16
 648 0 648 0 544 0 c 0,17,18
 439 0 439 0 401 97 c 2,19,-1
 29 965 l 2,20,21
 10 1010 10 1010 37 1051 c 256,22,23
 64 1092 64 1092 113 1092 c 2,24,-1
 116 1092 l 2,25,26
 176 1092 176 1092 199 1036 c 0,27,0
 439 477 439 477 533 257 c 1,1,2
EndSplineSet
EndChar

StartChar: w
Encoding: 119 119 91
Width: 1819
GlyphClass: 1
Flags: W
LayerCount: 2
Fore
SplineSet
285 1000 m 2,0,1
 285 1038 285 1038 258 1065 c 256,2,3
 231 1092 231 1092 194 1092 c 2,4,-1
 191 1092 l 2,5,6
 154 1092 154 1092 127 1065 c 256,7,8
 100 1038 100 1038 100 1000 c 2,9,-1
 100 451 l 2,10,11
 100 264 100 264 232 132 c 256,12,13
 364 0 364 0 551 0 c 0,14,15
 774 0 774 0 910 177 c 1,16,17
 1045 0 1045 0 1268 0 c 0,18,19
 1455 0 1455 0 1587 132 c 256,20,21
 1719 264 1719 264 1719 451 c 2,22,-1
 1719 1000 l 2,23,24
 1719 1038 1719 1038 1693 1065 c 0,25,26
 1666 1092 1666 1092 1628 1092 c 2,27,-1
 1626 1092 l 2,28,29
 1588 1092 1588 1092 1562 1065 c 0,30,31
 1535 1038 1535 1038 1535 1000 c 2,32,-1
 1535 451 l 2,33,34
 1535 341 1535 341 1457 263 c 256,35,36
 1379 185 1379 185 1268 185 c 0,37,38
 1158 185 1158 185 1080 263 c 256,39,40
 1002 341 1002 341 1002 451 c 2,41,-1
 1002 1000 l 2,42,43
 1002 1038 1002 1038 975 1065 c 0,44,45
 949 1092 949 1092 911 1092 c 2,46,-1
 909 1092 l 2,47,48
 871 1092 871 1092 844 1065 c 256,49,50
 817 1038 817 1038 817 1000 c 2,51,-1
 817 451 l 2,52,53
 817 341 817 341 739 263 c 256,54,55
 661 185 661 185 551 185 c 256,56,57
 441 185 441 185 363 263 c 256,58,59
 285 341 285 341 285 451 c 2,60,-1
 285 1000 l 2,0,1
EndSplineSet
EndChar

StartChar: x
Encoding: 120 120 92
Width: 1077
GlyphClass: 1
Flags: W
LayerCount: 2
Fore
SplineSet
270 1000 m 2,0,1
 270 1038 270 1038 243 1065 c 256,2,3
 216 1092 216 1092 179 1092 c 2,4,-1
 176 1092 l 2,5,6
 139 1092 139 1092 112 1065 c 256,7,8
 85 1038 85 1038 85 1000 c 2,9,-1
 85 912 l 2,10,11
 85 687 85 687 264 551 c 1,12,13
 85 414 85 414 85 190 c 2,14,-1
 85 91 l 2,15,16
 85 53 85 53 112 27 c 0,17,18
 139 0 139 0 176 0 c 2,19,-1
 179 0 l 2,20,21
 216 0 216 0 243 27 c 0,22,23
 270 53 270 53 270 91 c 2,24,-1
 270 190 l 2,25,26
 270 301 270 301 348 380 c 0,27,28
 427 458 427 458 539 458 c 0,29,30
 650 458 650 458 729 380 c 0,31,32
 807 301 807 301 807 190 c 2,33,-1
 807 91 l 2,34,35
 807 53 807 53 834 27 c 0,36,37
 861 0 861 0 899 0 c 2,38,-1
 901 0 l 2,39,40
 939 0 939 0 965 27 c 0,41,42
 992 53 992 53 992 91 c 2,43,-1
 992 190 l 2,44,45
 992 414 992 414 813 551 c 1,46,47
 992 687 992 687 992 912 c 2,48,-1
 992 1001 l 2,49,50
 992 1038 992 1038 965 1065 c 0,51,52
 939 1092 939 1092 901 1092 c 2,53,-1
 899 1092 l 2,54,55
 861 1092 861 1092 834 1065 c 256,56,57
 807 1038 807 1038 807 1000 c 2,58,-1
 807 912 l 2,59,60
 807 801 807 801 729 722 c 0,61,62
 650 643 650 643 539 643 c 0,63,64
 427 643 427 643 348 722 c 0,65,66
 270 801 270 801 270 912 c 2,67,-1
 270 1000 l 2,0,1
EndSplineSet
EndChar

StartChar: y
Encoding: 121 121 93
Width: 1107
GlyphClass: 1
Flags: W
LayerCount: 2
Fore
SplineSet
285 1000 m 2,0,1
 285 1038 285 1038 258 1065 c 256,2,3
 231 1092 231 1092 194 1092 c 2,4,-1
 191 1092 l 2,5,6
 154 1092 154 1092 127 1065 c 256,7,8
 100 1038 100 1038 100 1000 c 2,9,-1
 100 475 l 2,10,11
 100 287 100 287 233 155 c 0,12,13
 366 22 366 22 554 22 c 0,14,15
 703 22 703 22 822 110 c 1,16,-1
 822 43 l 2,17,18
 822 -67 822 -67 741 -147 c 0,19,20
 661 -226 661 -226 554 -226 c 0,21,22
 470 -226 470 -226 398 -184 c 0,23,24
 327 -143 327 -143 291 -75 c 0,25,26
 275 -45 275 -45 244 -32 c 0,27,28
 213 -20 213 -20 181 -31 c 1,29,-1
 177 -33 l 1,30,31
 138 -46 138 -46 123 -85 c 0,32,33
 107 -123 107 -123 126 -160 c 0,34,35
 184 -274 184 -274 296 -341 c 0,36,37
 412 -411 412 -411 554 -411 c 0,38,39
 731 -411 731 -411 867 -278 c 0,40,41
 1007 -142 1007 -142 1007 43 c 2,42,-1
 1007 1000 l 2,43,44
 1007 1038 1007 1038 980 1065 c 0,45,46
 954 1092 954 1092 916 1092 c 2,47,-1
 914 1092 l 2,48,49
 876 1092 876 1092 849 1065 c 256,50,51
 822 1038 822 1038 822 1000 c 2,52,-1
 822 475 l 2,53,54
 822 363 822 363 743 285 c 0,55,56
 665 206 665 206 554 206 c 0,57,58
 442 206 442 206 363 285 c 0,59,60
 285 364 285 364 285 475 c 2,61,-1
 285 1000 l 2,0,1
EndSplineSet
EndChar

StartChar: z
Encoding: 122 122 94
Width: 1023
GlyphClass: 1
Flags: W
LayerCount: 2
Fore
SplineSet
716 897 m 0,1,2
 727 909 727 909 710 910 c 2,3,-1
 196 910 l 2,4,5
 158 910 158 910 132 937 c 0,6,7
 105 964 105 964 105 1001 c 2,8,-1
 105 1004 l 2,9,10
 105 1041 105 1041 132 1068 c 0,11,12
 158 1095 158 1095 196 1095 c 2,13,-1
 797 1095 l 2,14,15
 901 1097 901 1097 942 1002 c 0,16,17
 983 905 983 905 909 832 c 0,18,19
 570 476 570 476 313 207 c 0,20,21
 313 206 313 206 308 201 c 0,22,23
 296 189 296 189 313 188 c 2,24,-1
 320 188 l 1,25,-1
 871 187 l 2,26,27
 909 187 909 187 935 161 c 0,28,29
 962 134 962 134 962 96 c 2,30,-1
 962 94 l 2,31,32
 962 56 962 56 935 29 c 0,33,34
 909 3 909 3 871 3 c 2,35,-1
 226 3 l 2,36,37
 122 0 122 0 81 96 c 256,38,39
 40 192 40 192 114 266 c 0,40,41
 212 368 212 368 412 578 c 0,42,43
 609 785 609 785 710 891 c 0,44,0
 710 892 710 892 716 897 c 0,1,2
EndSplineSet
EndChar

StartChar: braceleft
Encoding: 123 123 95
Width: 677
GlyphClass: 1
Flags: W
LayerCount: 2
Fore
SplineSet
176 665 m 0,1,2
 225 705 225 705 241 773 c 0,3,4
 259 853 259 853 259 999 c 0,5,6
 259 1185 259 1185 263 1229 c 0,7,8
 272 1314 272 1314 296 1364 c 0,9,10
 320 1415 320 1415 356 1445 c 0,11,12
 393 1476 393 1476 448 1492 c 0,13,14
 483 1501 483 1501 557 1502 c 0,15,16
 586 1502 586 1502 607 1482 c 0,17,18
 627 1461 627 1461 627 1432 c 2,19,-1
 627 1412 l 2,20,21
 627 1385 627 1385 609 1365 c 0,22,23
 590 1345 590 1345 563 1343 c 0,24,25
 488 1338 488 1338 460 1307 c 0,26,27
 427 1270 427 1270 424 1077 c 0,28,29
 419 832 419 832 415 809 c 0,30,31
 381 604 381 604 249 541 c 1,32,33
 389 483 389 483 418 237 c 0,34,35
 427 158 427 158 427 33 c 0,36,37
 427 -117 427 -117 429 -139 c 0,38,39
 437 -207 437 -207 469 -234 c 0,40,41
 495 -255 495 -255 562 -260 c 0,42,43
 589 -261 589 -261 608 -281 c 256,44,45
 627 -301 627 -301 627 -329 c 2,46,-1
 627 -348 l 2,47,48
 627 -378 627 -378 606 -398 c 0,49,50
 586 -418 586 -418 557 -418 c 0,51,52
 470 -417 470 -417 429 -402 c 0,53,54
 365 -379 365 -379 324 -328 c 0,55,56
 282 -277 282 -277 269 -198 c 0,57,58
 257 -124 257 -124 257 59 c 0,59,60
 258 228 258 228 239 309 c 0,61,62
 223 378 223 378 175 418 c 0,63,64
 149 440 149 440 115 450 c 0,65,66
 50 470 50 470 50 537 c 2,67,-1
 50 546 l 2,68,69
 50 614 50 614 115 633 c 0,70,0
 150 644 150 644 176 665 c 0,1,2
EndSplineSet
EndChar

StartChar: bar
Encoding: 124 124 96
Width: 585
GlyphClass: 1
Flags: W
LayerCount: 2
Fore
SplineSet
200 -416 m 1,0,-1
 381 -416 l 1,1,-1
 381 1502 l 1,2,-1
 200 1502 l 1,3,-1
 200 -416 l 1,0,-1
EndSplineSet
EndChar

StartChar: braceright
Encoding: 125 125 97
Width: 677
GlyphClass: 1
Flags: W
LayerCount: 2
Fore
SplineSet
562 633 m 0,0,1
 627 614 627 614 627 546 c 2,2,-1
 627 537 l 2,3,4
 627 470 627 470 563 450 c 0,5,6
 529 440 529 440 502 418 c 0,7,8
 454 378 454 378 439 309 c 0,9,10
 420 228 420 228 420 59 c 0,11,12
 420 -124 420 -124 408 -198 c 0,13,14
 396 -277 396 -277 354 -328 c 256,15,16
 312 -379 312 -379 248 -402 c 0,17,18
 207 -417 207 -417 120 -418 c 0,19,20
 91 -418 91 -418 71 -398 c 0,21,22
 50 -378 50 -378 50 -348 c 2,23,-1
 50 -329 l 2,24,25
 50 -301 50 -301 69 -281 c 256,26,27
 88 -261 88 -261 115 -260 c 0,28,29
 182 -255 182 -255 208 -234 c 0,30,31
 240 -207 240 -207 249 -139 c 0,32,33
 250 -117 250 -117 250 33 c 0,34,35
 250 158 250 158 259 237 c 0,36,37
 288 483 288 483 429 541 c 1,38,39
 296 604 296 604 262 809 c 0,40,41
 258 832 258 832 254 1077 c 0,42,43
 250 1270 250 1270 217 1307 c 0,44,45
 190 1338 190 1338 115 1343 c 0,46,47
 87 1345 87 1345 69 1365 c 0,48,49
 50 1385 50 1385 50 1412 c 2,50,-1
 50 1432 l 2,51,52
 50 1461 50 1461 71 1482 c 0,53,54
 91 1502 91 1502 120 1502 c 0,55,56
 194 1501 194 1501 229 1492 c 0,57,58
 285 1476 285 1476 321 1445 c 0,59,60
 357 1415 357 1415 381 1364 c 0,61,62
 405 1314 405 1314 414 1229 c 0,63,64
 418 1185 418 1185 418 999 c 0,65,66
 418 853 418 853 437 773 c 0,67,68
 452 705 452 705 501 665 c 0,69,70
 528 644 528 644 562 633 c 0,0,1
EndSplineSet
EndChar

StartChar: asciitilde
Encoding: 126 126 98
Width: 994
GlyphClass: 1
Flags: W
LayerCount: 2
Fore
SplineSet
279 812 m 0,1,2
 336 816 336 816 402 800 c 0,3,4
 444 790 444 790 515 765 c 0,5,6
 592 737 592 737 621 729 c 0,7,8
 679 713 679 713 723 716 c 0,9,10
 789 719 789 719 859 769 c 0,11,12
 888 789 888 789 921 774 c 0,13,14
 936 766 936 766 945 748 c 0,15,16
 954 732 954 732 957 710 c 0,17,18
 959 689 959 689 954 671 c 0,19,20
 949 651 949 651 937 640 c 0,21,22
 889 595 889 595 837 573 c 0,23,24
 783 550 783 550 715 546 c 0,25,26
 650 542 650 542 582 560 c 0,27,28
 541 571 541 571 454 605 c 0,29,30
 345 647 345 647 273 643 c 0,31,32
 200 639 200 639 135 592 c 0,33,34
 122 582 122 582 105 580 c 0,35,36
 89 579 89 579 74 586 c 256,37,38
 59 593 59 593 49 610 c 0,39,40
 40 625 40 625 38 645 c 0,41,42
 35 665 35 665 39 683 c 0,43,44
 43 702 43 702 54 713 c 0,45,0
 140 805 140 805 279 812 c 0,1,2
EndSplineSet
EndChar

StartChar: cent
Encoding: 162 162 100
Width: 1072
GlyphClass: 1
Flags: W
LayerCount: 2
Fore
SplineSet
710 888 m 1,0,1
 717 883 717 883 723 878 c 0,2,3
 784 828 784 828 829 747 c 1,4,-1
 1020 781 l 1,5,6
 966 932 966 932 851 1025 c 0,7,8
 807 1057 807 1057 759 1079 c 1,9,-1
 860 1475 l 1,10,-1
 716 1475 l 1,11,-1
 625 1118 l 1,12,13
 591 1122 591 1122 556 1122 c 0,14,15
 345 1122 345 1122 197 954 c 0,16,17
 48 786 48 786 48 548 c 0,18,19
 48 316 48 316 208 142 c 0,20,21
 274 71 274 71 347 29 c 1,22,-1
 235 -408 l 1,23,-1
 380 -408 l 1,24,-1
 479 -19 l 1,25,26
 517 -26 517 -26 556 -26 c 0,27,28
 737 -26 737 -26 869 72 c 1,29,30
 979 162 979 162 1034 312 c 1,31,-1
 857 352 l 1,32,33
 748 146 748 146 556 156 c 0,34,35
 540 156 540 156 524 158 c 1,36,-1
 710 888 l 1,0,1
396 220 m 1,37,38
 369 243 369 243 343 273 c 0,39,40
 242 404 242 404 242 548 c 0,41,42
 242 698 242 698 334 823 c 1,43,44
 428 941 428 941 556 941 c 0,45,46
 568 941 568 941 579 940 c 1,47,-1
 396 220 l 1,37,38
EndSplineSet
EndChar

StartChar: sterling
Encoding: 163 163 101
Width: 1161
GlyphClass: 1
Flags: W
LayerCount: 2
Fore
SplineSet
772 1266 m 0,1,2
 705 1318 705 1318 621 1318 c 0,3,4
 518 1318 518 1318 445 1245 c 256,5,6
 372 1172 372 1172 372 1069 c 2,7,-1
 372 771 l 1,8,-1
 690 771 l 2,9,10
 728 771 728 771 755 744 c 0,11,12
 781 717 781 717 781 680 c 2,13,-1
 781 677 l 2,14,15
 781 640 781 640 755 613 c 0,16,17
 728 586 728 586 690 586 c 2,18,-1
 372 586 l 1,19,-1
 372 185 l 1,20,-1
 969 185 l 2,21,22
 1007 185 1007 185 1034 158 c 256,23,24
 1061 131 1061 131 1061 93 c 2,25,-1
 1061 91 l 2,26,27
 1061 53 1061 53 1034 27 c 0,28,29
 1007 0 1007 0 969 0 c 2,30,-1
 278 0 l 2,31,32
 241 0 241 0 214 27 c 0,33,34
 187 53 187 53 187 91 c 2,35,-1
 187 586 l 1,36,-1
 158 586 l 2,37,38
 134 586 134 586 117 603 c 256,39,40
 100 620 100 620 100 645 c 2,41,-1
 100 712 l 2,42,43
 100 737 100 737 117 754 c 256,44,45
 134 771 134 771 158 771 c 2,46,-1
 187 771 l 1,47,-1
 187 1069 l 2,48,49
 187 1249 187 1249 314 1375 c 0,50,51
 441 1502 441 1502 621 1502 c 0,52,53
 768 1502 768 1502 885 1412 c 0,54,55
 1000 1324 1000 1324 1038 1184 c 0,56,57
 1050 1141 1050 1141 1023 1105 c 256,58,59
 996 1069 996 1069 950 1069 c 2,60,-1
 947 1069 l 2,61,62
 878 1069 878 1069 859 1136 c 0,63,0
 837 1215 837 1215 772 1266 c 0,1,2
EndSplineSet
EndChar

StartChar: currency
Encoding: 164 164 102
Width: 1174
GlyphClass: 1
Flags: W
LayerCount: 2
Fore
SplineSet
587 1058 m 256,0,1
 464 1058 464 1058 377 971 c 128,-1,2
 290 884 290 884 290 761 c 0,3,4
 290 637 290 637 377 550 c 128,-1,5
 464 463 464 463 587 463 c 256,6,7
 710 463 710 463 797 550 c 128,-1,8
 884 637 884 637 884 761 c 0,9,10
 884 884 884 884 797 971 c 128,-1,11
 710 1058 710 1058 587 1058 c 256,0,1
205 1017 m 1,12,-1
 50 1172 l 1,13,-1
 175 1297 l 1,14,-1
 330 1142 l 1,15,16
 442 1220 442 1220 588 1220 c 0,17,18
 733 1220 733 1220 846 1142 c 1,19,-1
 1001 1297 l 1,20,-1
 1124 1174 l 1,21,-1
 969 1018 l 1,22,23
 1047 906 1047 906 1047 761 c 0,24,25
 1047 615 1047 615 969 503 c 1,26,-1
 1124 347 l 1,27,-1
 1000 224 l 1,28,-1
 845 379 l 1,29,30
 732 301 732 301 588 301 c 0,31,32
 442 301 442 301 330 379 c 1,33,-1
 175 224 l 1,34,-1
 51 347 l 1,35,-1
 206 502 l 1,36,37
 128 616 128 616 128 761 c 0,38,39
 128 905 128 905 205 1017 c 1,12,-1
EndSplineSet
EndChar

StartChar: yen
Encoding: 165 165 103
Width: 1155
GlyphClass: 1
Flags: W
LayerCount: 2
Fore
SplineSet
657 226 m 1,0,-1
 657 0 l 1,1,-1
 480 0 l 1,2,-1
 480 226 l 1,3,-1
 196 226 l 1,4,-1
 196 389 l 1,5,-1
 480 389 l 1,6,-1
 480 492 l 1,7,-1
 196 492 l 1,8,-1
 196 655 l 1,9,-1
 471 655 l 1,10,-1
 10 1565 l 1,11,-1
 195 1565 l 1,12,-1
 568 792 l 1,13,-1
 968 1565 l 1,14,-1
 1145 1565 l 1,15,-1
 666 655 l 1,16,-1
 959 655 l 1,17,-1
 959 492 l 1,18,-1
 657 492 l 1,19,-1
 657 389 l 1,20,-1
 959 389 l 1,21,-1
 959 226 l 1,22,-1
 657 226 l 1,0,-1
EndSplineSet
EndChar

StartChar: brokenbar
Encoding: 166 166 104
Width: 483
GlyphClass: 1
Flags: W
LayerCount: 2
Fore
SplineSet
150 719 m 1,0,-1
 333 719 l 1,1,-1
 333 1563 l 1,2,-1
 150 1563 l 1,3,-1
 150 719 l 1,0,-1
150 -463 m 1,4,-1
 333 -463 l 1,5,-1
 333 381 l 1,6,-1
 150 381 l 1,7,-1
 150 -463 l 1,4,-1
EndSplineSet
EndChar

StartChar: section
Encoding: 167 167 105
Width: 1075
GlyphClass: 1
Flags: W
LayerCount: 2
Fore
SplineSet
941 321 m 0,1,2
 1025 419 1025 419 1029 543 c 0,3,4
 1031 607 1031 607 1017 660 c 0,5,6
 1003 711 1003 711 973 753 c 0,7,8
 889 870 889 870 642 944 c 0,9,10
 527 975 527 975 465.5 995.5 c 128,-1,11
 404 1016 404 1016 357 1064 c 0,12,13
 327 1094 327 1094 313 1133 c 0,14,15
 297 1175 297 1175 299 1228 c 0,16,17
 302 1326 302 1326 384 1387 c 0,18,19
 459 1442 459 1442 559 1442 c 0,20,21
 628 1442 628 1442 680 1417 c 0,22,23
 800 1358 800 1358 830 1208 c 1,24,-1
 1005 1234 l 1,25,26
 974 1412 974 1412 865 1500 c 0,27,28
 760 1585 760 1585 577 1591 c 0,29,30
 516 1593 516 1593 460 1584 c 0,31,32
 345 1564 345 1564 263 1504 c 0,33,34
 120 1398 120 1398 120 1199 c 0,35,36
 120 1036 120 1036 223 943 c 0,37,38
 259 911 259 911 322 881 c 1,39,40
 291 865 291 865 263 845 c 0,41,42
 120 739 120 739 120 540 c 0,43,44
 120 377 120 377 223 284 c 0,45,46
 305 211 305 211 532 145 c 0,47,48
 622 119 622 119 697 89 c 0,49,50
 792 47 792 47 830 -13 c 0,51,52
 872 -79 872 -79 848 -167 c 0,53,54
 832 -225 832 -225 786 -269 c 0,55,56
 691 -360 691 -360 548 -350 c 0,57,58
 475 -345 475 -345 425 -321 c 0,59,60
 282 -252 282 -252 243 -76 c 1,61,-1
 75 -105 l 1,62,63
 151 -488 151 -488 555 -499 c 0,64,65
 648 -502 648 -502 741 -469 c 0,66,67
 865 -426 865 -426 941 -338 c 0,68,69
 1025 -240 1025 -240 1029 -116 c 0,70,71
 1031 -52 1031 -52 1017 1 c 0,72,73
 1003 52 1003 52 973 94 c 0,74,75
 922 165 922 165 811 220 c 1,76,0
 888 259 888 259 941 321 c 0,1,2
465 337 m 0,78,79
 404 357 404 357 357 405 c 0,80,81
 327 435 327 435 313 474 c 0,82,83
 297 516 297 516 299 569 c 0,84,85
 302 667 302 667 384 728 c 0,86,87
 459 783 459 783 559 783 c 0,88,89
 589 783 589 783 616 778 c 0,90,91
 658 764 658 764 697 748 c 0,92,93
 792 706 792 706 830 646 c 0,94,95
 872 580 872 580 848 492 c 0,96,97
 832 434 832 434 786 390 c 0,98,99
 694 302 694 302 557 309 c 1,100,77
 502 325 502 325 465 337 c 0,78,79
EndSplineSet
EndChar

StartChar: dieresis
Encoding: 168 168 106
Width: 783
GlyphClass: 1
Flags: W
LayerCount: 2
Fore
SplineSet
287 1215 m 0,1,2
 320 1247 320 1247 320 1293 c 0,3,4
 320 1338 320 1338 287 1370 c 0,5,6
 255 1402 255 1402 210 1402 c 0,7,8
 164 1402 164 1402 132 1370 c 256,9,10
 100 1338 100 1338 100 1293 c 0,11,12
 100 1247 100 1247 132 1215 c 256,13,14
 164 1183 164 1183 210 1183 c 0,15,0
 255 1183 255 1183 287 1215 c 0,1,2
650 1215 m 0,17,18
 683 1247 683 1247 683 1293 c 0,19,20
 683 1338 683 1338 650 1370 c 0,21,22
 618 1402 618 1402 573 1402 c 0,23,24
 527 1402 527 1402 495 1370 c 256,25,26
 463 1338 463 1338 463 1293 c 0,27,28
 463 1247 463 1247 495 1215 c 256,29,30
 527 1183 527 1183 573 1183 c 0,31,16
 618 1183 618 1183 650 1215 c 0,17,18
EndSplineSet
EndChar

StartChar: copyright
Encoding: 169 169 107
Width: 1811
GlyphClass: 1
Flags: W
LayerCount: 2
Fore
SplineSet
906 1553 m 256,0,1
 1109 1553 1109 1553 1302 1449 c 128,-1,2
 1495 1345 1495 1345 1603 1151 c 128,-1,3
 1711 957 1711 957 1711 747 c 0,4,5
 1711 539 1711 539 1605 346.5 c 128,-1,6
 1499 154 1499 154 1307 48 c 128,-1,7
 1115 -58 1115 -58 906 -58 c 256,8,9
 697 -58 697 -58 505.5 48 c 128,-1,10
 314 154 314 154 207 346.5 c 128,-1,11
 100 539 100 539 100 747 c 0,12,13
 100 957 100 957 208.5 1151 c 128,-1,14
 317 1345 317 1345 510 1449 c 128,-1,15
 703 1553 703 1553 906 1553 c 256,0,1
906 1420 m 0,16,17
 736 1420 736 1420 575.5 1333 c 128,-1,18
 415 1246 415 1246 324 1084 c 128,-1,19
 233 922 233 922 233 747 c 0,20,21
 233 573 233 573 322.5 413.5 c 128,-1,22
 412 254 412 254 572 164.5 c 128,-1,23
 732 75 732 75 906 75 c 256,24,25
 1080 75 1080 75 1240 164.5 c 128,-1,26
 1400 254 1400 254 1489 413.5 c 128,-1,27
 1578 573 1578 573 1578 747 c 0,28,29
 1578 922 1578 922 1487.5 1084 c 128,-1,30
 1397 1246 1397 1246 1236 1333 c 128,-1,31
 1075 1420 1075 1420 906 1420 c 0,16,17
1183 920 m 1,32,33
 1165 1004 1165 1004 1107 1061 c 0,34,35
 1032 1133 1032 1133 921 1133 c 0,36,37
 798 1133 798 1133 712 1044 c 0,38,39
 627 957 627 957 627 831 c 2,40,-1
 627 653 l 2,41,42
 627 528 627 528 712 441 c 0,43,44
 798 351 798 351 921 351 c 0,45,46
 1029 351 1029 351 1104 422 c 0,47,48
 1177 491 1177 491 1191 598 c 1,49,-1
 1310 586 l 1,50,51
 1289 434 1289 434 1181 334 c 0,52,53
 1071 232 1071 232 921 232 c 0,54,55
 746 232 746 232 623 358 c 0,56,57
 502 483 502 483 502 659 c 2,58,-1
 502 825 l 2,59,60
 502 1002 502 1002 623 1127 c 0,61,62
 746 1253 746 1253 921 1253 c 0,63,64
 1071 1253 1071 1253 1182 1150 c 0,65,66
 1272 1066 1272 1066 1299 944 c 1,67,-1
 1183 920 l 1,32,33
EndSplineSet
EndChar

StartChar: ordfeminine
Encoding: 170 170 108
Width: 921
GlyphClass: 1
Flags: W
LayerCount: 2
Fore
SplineSet
715 1406 m 0,1,2
 821 1310 821 1310 821 1174 c 2,3,-1
 821 901 l 2,4,5
 821 879 821 879 803 863 c 256,6,7
 785 847 785 847 761 847 c 2,8,-1
 759 847 l 2,9,10
 734 847 734 847 716 863 c 0,11,12
 699 879 699 879 699 901 c 2,13,-1
 699 929 l 1,14,15
 596 847 596 847 460 847 c 0,16,17
 311 847 311 847 206 943 c 0,18,19
 100 1039 100 1039 100 1174 c 0,20,21
 100 1310 100 1310 206 1406 c 0,22,23
 311 1502 311 1502 460 1502 c 0,24,0
 610 1502 610 1502 715 1406 c 0,1,2
291 1327 m 0,26,27
 222 1264 222 1264 222 1174 c 256,28,29
 222 1084 222 1084 291 1021 c 0,30,31
 361 958 361 958 460 958 c 256,32,33
 559 958 559 958 629 1021 c 256,34,35
 699 1084 699 1084 699 1174 c 256,36,37
 699 1264 699 1264 629 1327 c 0,38,39
 559 1391 559 1391 460 1391 c 256,40,25
 361 1391 361 1391 291 1327 c 0,26,27
EndSplineSet
EndChar

StartChar: guillemotleft
Encoding: 171 171 109
Width: 1072
GlyphClass: 1
Flags: W
LayerCount: 2
Fore
SplineSet
421 1091 m 1,0,-1
 648 1091 l 1,1,-1
 223 720 l 1,2,-1
 648 349 l 1,3,-1
 421 349 l 1,4,-1
 48 679 l 2,5,6
 30 695 30 695 30 720 c 0,7,8
 30 746 30 746 48 762 c 2,9,-1
 421 1091 l 1,0,-1
815 1091 m 1,10,-1
 1042 1091 l 1,11,-1
 617 720 l 1,12,-1
 1042 349 l 1,13,-1
 815 349 l 1,14,-1
 442 679 l 2,15,16
 424 695 424 695 424 720 c 0,17,18
 424 746 424 746 442 762 c 2,19,-1
 815 1091 l 1,10,-1
EndSplineSet
EndChar

StartChar: logicalnot
Encoding: 172 172 110
Width: 1047
GlyphClass: 1
Flags: W
LayerCount: 2
Fore
SplineSet
130 816 m 1,0,-1
 917 816 l 1,1,-1
 917 350 l 1,2,-1
 785 350 l 1,3,-1
 785 695 l 1,4,-1
 130 695 l 1,5,-1
 130 816 l 1,0,-1
EndSplineSet
EndChar

StartChar: registered
Encoding: 174 174 111
Width: 1811
GlyphClass: 1
Flags: W
LayerCount: 2
Fore
SplineSet
906 1563 m 256,0,1
 1109 1563 1109 1563 1302 1459 c 128,-1,2
 1495 1355 1495 1355 1603 1161 c 128,-1,3
 1711 967 1711 967 1711 757 c 0,4,5
 1711 549 1711 549 1605 356.5 c 128,-1,6
 1499 164 1499 164 1307 58 c 128,-1,7
 1115 -48 1115 -48 906 -48 c 256,8,9
 697 -48 697 -48 505.5 58 c 128,-1,10
 314 164 314 164 207 356.5 c 128,-1,11
 100 549 100 549 100 757 c 0,12,13
 100 967 100 967 208.5 1161 c 128,-1,14
 317 1355 317 1355 510 1459 c 128,-1,15
 703 1563 703 1563 906 1563 c 256,0,1
906 1430 m 0,16,17
 736 1430 736 1430 575.5 1343 c 128,-1,18
 415 1256 415 1256 324 1094 c 128,-1,19
 233 932 233 932 233 757 c 0,20,21
 233 583 233 583 322.5 423.5 c 128,-1,22
 412 264 412 264 572 174.5 c 128,-1,23
 732 85 732 85 906 85 c 256,24,25
 1080 85 1080 85 1240 174.5 c 128,-1,26
 1400 264 1400 264 1489 423.5 c 128,-1,27
 1578 583 1578 583 1578 757 c 0,28,29
 1578 932 1578 932 1487.5 1094 c 128,-1,30
 1397 1256 1397 1256 1236 1343 c 128,-1,31
 1075 1430 1075 1430 906 1430 c 0,16,17
615 1237 m 1,32,-1
 998 1236 l 2,33,34
 1111 1235 1111 1235 1190 1155 c 256,35,36
 1269 1075 1269 1075 1269 963 c 0,37,38
 1269 835 1269 835 1171 752 c 1,39,40
 1107 688 1107 688 969 688 c 1,41,-1
 971 688 l 1,42,-1
 1279 211 l 1,43,-1
 1143 211 l 1,44,-1
 835 688 l 1,45,-1
 742 688 l 1,46,-1
 742 211 l 1,47,-1
 615 211 l 1,48,-1
 615 1237 l 1,32,-1
998 807 m 2,49,50
 1061 808 1061 808 1106 854 c 0,51,52
 1150 899 1150 899 1150 963 c 0,53,54
 1150 1026 1150 1026 1106 1071 c 0,55,56
 1061 1116 1061 1116 998 1118 c 2,57,-1
 742 1118 l 1,58,-1
 742 807 l 1,59,-1
 998 807 l 2,49,50
EndSplineSet
EndChar

StartChar: degree
Encoding: 176 176 113
Width: 842
GlyphClass: 1
Flags: W
LayerCount: 2
Fore
SplineSet
297 1325 m 0,1,2
 344 1372 344 1372 409 1372 c 2,3,-1
 431 1372 l 2,4,5
 498 1372 498 1372 545 1325 c 0,6,7
 593 1277 593 1277 593 1212 c 0,8,9
 593 1145 593 1145 545 1098 c 0,10,11
 498 1050 498 1050 431 1050 c 2,12,-1
 409 1050 l 2,13,14
 344 1050 344 1050 297 1098 c 0,15,16
 249 1145 249 1145 249 1212 c 0,17,0
 249 1277 249 1277 297 1325 c 0,1,2
189 997 m 256,19,20
 278 908 278 908 404 908 c 2,21,-1
 438 908 l 2,22,23
 563 908 563 908 653 997 c 0,24,25
 742 1086 742 1086 742 1212 c 0,26,27
 742 1336 742 1336 653 1425 c 0,28,29
 563 1514 563 1514 438 1514 c 2,30,-1
 404 1514 l 2,31,32
 278 1514 278 1514 189 1425 c 256,33,34
 100 1336 100 1336 100 1212 c 0,35,18
 100 1086 100 1086 189 997 c 256,19,20
EndSplineSet
EndChar

StartChar: plusminus
Encoding: 177 177 114
Width: 1092
GlyphClass: 1
Flags: W
LayerCount: 2
Fore
SplineSet
639 844 m 1,0,-1
 950 844 l 2,1,2
 988 844 988 844 1015 817 c 256,3,4
 1042 790 1042 790 1042 752 c 2,5,-1
 1042 750 l 2,6,7
 1042 712 1042 712 1015 686 c 0,8,9
 988 659 988 659 950 659 c 2,10,-1
 639 659 l 1,11,-1
 639 348 l 2,12,13
 639 310 639 310 612 283 c 256,14,15
 585 256 585 256 547 256 c 2,16,-1
 545 256 l 2,17,18
 507 256 507 256 481 283 c 0,19,20
 454 310 454 310 454 348 c 2,21,-1
 454 659 l 1,22,-1
 141 659 l 2,23,24
 103 659 103 659 77 686 c 0,25,26
 50 712 50 712 50 750 c 2,27,-1
 50 752 l 2,28,29
 50 790 50 790 77 817 c 0,30,31
 103 844 103 844 141 844 c 2,32,-1
 454 844 l 1,33,-1
 454 1157 l 2,34,35
 454 1195 454 1195 481 1221 c 0,36,37
 507 1248 507 1248 545 1248 c 2,38,-1
 547 1248 l 2,39,40
 585 1248 585 1248 612 1221 c 0,41,42
 639 1195 639 1195 639 1157 c 2,43,-1
 639 844 l 1,0,-1
1042 91 m 2,44,45
 1042 53 1042 53 1015 27 c 0,46,47
 988 0 988 0 950 0 c 2,48,-1
 141 0 l 2,49,50
 103 0 103 0 77 27 c 0,51,52
 50 53 50 53 50 91 c 2,53,-1
 50 93 l 2,54,55
 50 131 50 131 77 158 c 0,56,57
 103 185 103 185 141 185 c 2,58,-1
 950 185 l 2,59,60
 988 185 988 185 1015 158 c 256,61,62
 1042 131 1042 131 1042 93 c 2,63,-1
 1042 91 l 2,44,45
EndSplineSet
EndChar

StartChar: acute
Encoding: 180 180 115
Width: 621
GlyphClass: 1
Flags: W
LayerCount: 2
Fore
SplineSet
329 1161 m 2,0,1
 313 1146 313 1146 298 1146 c 2,2,-1
 221 1146 l 2,3,4
 197 1146 197 1146 187 1167 c 0,5,6
 177 1187 177 1187 191 1207 c 2,7,-1
 367 1458 l 2,8,9
 377 1473 377 1473 397 1473 c 2,10,-1
 551 1473 l 2,11,12
 575 1473 575 1473 585 1451 c 0,13,14
 598 1427 598 1427 582 1411 c 2,15,-1
 329 1161 l 2,0,1
EndSplineSet
EndChar

StartChar: mu
Encoding: 181 181 116
Width: 1127
GlyphClass: 1
Flags: W
LayerCount: 2
Fore
SplineSet
564 -1 m 0,1,2
 749 -1 749 -1 832 129 c 1,3,-1
 832 -20 l 2,4,5
 832 -58 832 -58 859 -84 c 0,6,7
 886 -111 886 -111 923 -111 c 2,8,-1
 926 -111 l 2,9,10
 963 -111 963 -111 990 -84 c 0,11,12
 1017 -58 1017 -58 1017 -20 c 2,13,-1
 1017 1000 l 2,14,15
 1017 1038 1017 1038 990 1065 c 0,16,17
 963 1091 963 1091 926 1091 c 2,18,-1
 923 1091 l 2,19,20
 886 1091 886 1091 859 1065 c 0,21,22
 832 1038 832 1038 832 1000 c 2,23,-1
 832 452 l 2,24,25
 832 341 832 341 754 262 c 0,26,27
 675 184 675 184 564 184 c 0,28,29
 452 184 452 184 373 262 c 0,30,31
 295 341 295 341 295 452 c 2,32,-1
 295 999 l 2,33,34
 295 1037 295 1037 268 1064 c 256,35,36
 241 1091 241 1091 204 1091 c 2,37,-1
 201 1091 l 2,38,39
 164 1091 164 1091 137 1065 c 0,40,41
 110 1038 110 1038 110 1000 c 2,42,-1
 110 -320 l 2,43,44
 110 -358 110 -358 137 -384 c 0,45,46
 164 -411 164 -411 201 -411 c 2,47,-1
 204 -411 l 2,48,49
 241 -411 241 -411 268 -384 c 0,50,51
 295 -358 295 -358 295 -320 c 2,52,-1
 295 129 l 1,53,0
 378 -1 378 -1 564 -1 c 0,1,2
EndSplineSet
EndChar

StartChar: paragraph
Encoding: 182 182 117
Width: 1068
GlyphClass: 1
Flags: W
LayerCount: 2
Fore
SplineSet
1012 1414 m 1,0,-1
 925 1414 l 1,1,-1
 925 0 l 1,2,-1
 776 0 l 1,3,-1
 776 1414 l 1,4,-1
 654 1414 l 1,5,-1
 654 0 l 1,6,-1
 495 0 l 1,7,-1
 495 703 l 1,8,9
 309 731 309 731 205 852 c 0,10,11
 100 972 100 972 100 1131 c 0,12,13
 100 1288 100 1288 205 1409 c 1,14,15
 316 1548 316 1548 495 1563 c 1,16,-1
 1012 1563 l 1,17,-1
 1012 1414 l 1,0,-1
EndSplineSet
EndChar

StartChar: periodcentered
Encoding: 183 183 118
AltUni2: 002219.ffffffff.0 002219.ffffffff.0
Width: 387
GlyphClass: 1
Flags: W
LayerCount: 2
Fore
SplineSet
259 685 m 0,1,2
 287 712 287 712 287 751 c 256,3,4
 287 790 287 790 259 817 c 0,5,6
 232 844 232 844 194 844 c 0,7,8
 154 844 154 844 127 817 c 256,9,10
 100 790 100 790 100 751 c 256,11,12
 100 712 100 712 127 685 c 256,13,14
 154 658 154 658 194 658 c 0,15,0
 232 658 232 658 259 685 c 0,1,2
EndSplineSet
EndChar

StartChar: cedilla
Encoding: 184 184 119
Width: 640
GlyphClass: 1
Flags: W
LayerCount: 2
Fore
SplineSet
245 1 m 1,0,-1
 390 1 l 1,1,-1
 368 -109 l 1,2,3
 458 -119 458 -119 504 -164 c 0,4,5
 548 -207 548 -207 548 -260 c 0,6,7
 548 -338 548 -338 473 -397 c 0,8,9
 399 -456 399 -456 248 -456 c 2,10,-1
 153 -456 l 2,11,12
 126 -456 126 -456 108 -436 c 0,13,14
 90 -417 90 -417 92 -390 c 2,15,-1
 93 -382 l 2,16,17
 95 -358 95 -358 113 -342 c 0,18,19
 130 -326 130 -326 155 -326 c 0,20,21
 186 -327 186 -327 207 -327 c 0,22,23
 305 -327 305 -327 345 -300 c 0,24,25
 375 -279 375 -279 375 -250 c 0,26,27
 375 -231 375 -231 363 -217 c 0,28,29
 351 -202 351 -202 320 -192 c 0,30,31
 304 -187 304 -187 279 -185 c 0,32,33
 252 -182 252 -182 237 -161 c 0,34,35
 221 -140 221 -140 225 -114 c 2,36,-1
 245 1 l 1,0,-1
EndSplineSet
EndChar

StartChar: guillemotright
Encoding: 187 187 120
Width: 1082
GlyphClass: 1
Flags: W
LayerCount: 2
Fore
SplineSet
630 762 m 2,0,1
 648 746 648 746 648 720 c 0,2,3
 648 695 648 695 630 679 c 2,4,-1
 257 349 l 1,5,-1
 30 349 l 1,6,-1
 455 720 l 1,7,-1
 30 1091 l 1,8,-1
 257 1091 l 1,9,-1
 630 762 l 2,0,1
1034 762 m 2,10,11
 1052 746 1052 746 1052 720 c 0,12,13
 1052 695 1052 695 1034 679 c 2,14,-1
 661 349 l 1,15,-1
 434 349 l 1,16,-1
 859 720 l 1,17,-1
 434 1091 l 1,18,-1
 661 1091 l 1,19,-1
 1034 762 l 2,10,11
EndSplineSet
EndChar

StartChar: AE
Encoding: 198 198 131
Width: 1759
GlyphClass: 1
Flags: W
LayerCount: 2
Fore
SplineSet
900 751 m 1,0,-1
 900 1015 l 2,1,2
 900 1140 900 1140 812 1229 c 0,3,4
 723 1318 723 1318 597 1318 c 0,5,6
 472 1318 472 1318 383 1229 c 0,7,8
 295 1140 295 1140 295 1015 c 2,9,-1
 295 751 l 1,10,-1
 900 751 l 1,0,-1
901 427 m 2,11,12
 900 434 900 434 900 441 c 2,13,-1
 900 567 l 1,14,-1
 295 567 l 1,15,-1
 295 91 l 2,16,17
 295 53 295 53 268 27 c 0,18,19
 241 0 241 0 204 0 c 2,20,-1
 201 0 l 2,21,22
 164 0 164 0 137 27 c 0,23,24
 110 53 110 53 110 91 c 2,25,-1
 110 1015 l 2,26,27
 110 1217 110 1217 253 1360 c 0,28,29
 396 1502 396 1502 597 1502 c 0,30,31
 799 1502 799 1502 942 1360 c 0,32,33
 948 1354 948 1354 954 1348 c 1,34,35
 973 1377 973 1377 999 1404 c 0,36,37
 1097 1502 1097 1502 1236 1502 c 2,38,-1
 1592 1502 l 2,39,40
 1630 1502 1630 1502 1657 1475 c 256,41,42
 1684 1448 1684 1448 1684 1411 c 2,43,-1
 1684 1408 l 2,44,45
 1684 1371 1684 1371 1657 1344 c 256,46,47
 1630 1317 1630 1317 1592 1317 c 2,48,-1
 1236 1317 l 2,49,50
 1173 1317 1173 1317 1129 1273 c 256,51,52
 1085 1229 1085 1229 1085 1167 c 2,53,-1
 1085 843 l 1,54,-1
 1592 843 l 2,55,56
 1630 843 1630 843 1657 816 c 256,57,58
 1684 789 1684 789 1684 752 c 2,59,-1
 1684 749 l 2,60,61
 1684 712 1684 712 1657 685 c 256,62,63
 1630 658 1630 658 1592 658 c 2,64,-1
 1085 658 l 1,65,-1
 1085 335 l 2,66,67
 1085 272 1085 272 1129 228 c 256,68,69
 1173 184 1173 184 1236 184 c 2,70,-1
 1592 184 l 2,71,72
 1630 184 1630 184 1657 158 c 0,73,74
 1684 131 1684 131 1684 93 c 2,75,-1
 1684 91 l 2,76,77
 1684 53 1684 53 1657 26 c 0,78,79
 1630 0 1630 0 1592 0 c 2,80,-1
 1236 0 l 2,81,82
 1097 0 1097 0 999 98 c 256,83,84
 901 196 901 196 901 335 c 2,85,-1
 901 427 l 2,11,12
EndSplineSet
EndChar

StartChar: Eth
Encoding: 208 208 141
Width: 1354
GlyphClass: 1
Flags: W
LayerCount: 2
Fore
SplineSet
130 844 m 1,0,-1
 130 1250 l 2,1,2
 130 1355 130 1355 204 1429 c 0,3,4
 278 1502 278 1502 382 1502 c 2,5,-1
 533 1502 l 2,6,7
 844 1502 844 1502 1064 1282 c 256,8,9
 1284 1062 1284 1062 1284 751 c 256,10,11
 1284 440 1284 440 1064 220 c 256,12,13
 844 0 844 0 533 0 c 2,14,-1
 382 0 l 2,15,16
 278 0 278 0 204 74 c 256,17,18
 130 148 130 148 130 252 c 2,19,-1
 130 659 l 1,20,-1
 10 659 l 1,21,-1
 10 844 l 1,22,-1
 130 844 l 1,0,-1
315 844 m 1,23,-1
 620 844 l 1,24,-1
 620 659 l 1,25,-1
 315 659 l 1,26,-1
 315 252 l 2,27,28
 315 224 315 224 334 204 c 0,29,30
 354 185 354 185 382 185 c 2,31,-1
 533 185 l 2,32,33
 768 185 768 185 934 350 c 0,34,35
 1100 516 1100 516 1100 751 c 256,36,37
 1100 986 1100 986 934 1152 c 256,38,39
 768 1318 768 1318 533 1318 c 2,40,-1
 382 1318 l 2,41,42
 354 1318 354 1318 334 1298 c 0,43,44
 315 1278 315 1278 315 1250 c 2,45,-1
 315 844 l 1,23,-1
EndSplineSet
EndChar

StartChar: multiply
Encoding: 215 215 148
Width: 857
GlyphClass: 1
Flags: W
LayerCount: 2
Fore
SplineSet
429 883 m 1,0,-1
 649 1103 l 2,1,2
 676 1130 676 1130 714 1130 c 256,3,4
 752 1130 752 1130 779 1103 c 1,5,-1
 780 1101 l 1,6,7
 807 1074 807 1074 807 1037 c 0,8,9
 807 999 807 999 780 972 c 2,10,-1
 560 752 l 1,11,-1
 780 532 l 2,12,13
 807 505 807 505 807 467 c 256,14,15
 807 429 807 429 780 402 c 1,16,-1
 778 401 l 1,17,18
 751 374 751 374 714 374 c 0,19,20
 676 374 676 374 649 401 c 2,21,-1
 429 621 l 1,22,-1
 208 400 l 2,23,24
 181 373 181 373 143 374 c 0,25,26
 106 373 106 373 79 400 c 2,27,-1
 78 401 l 2,28,29
 51 428 51 428 51 466 c 0,30,31
 50 504 50 504 77 531 c 2,32,-1
 298 752 l 1,33,-1
 77 973 l 2,34,35
 50 1000 50 1000 51 1038 c 0,36,37
 50 1075 50 1075 77 1102 c 2,38,-1
 78 1103 l 2,39,40
 105 1130 105 1130 143 1130 c 0,41,42
 181 1131 181 1131 208 1104 c 2,43,-1
 429 883 l 1,0,-1
EndSplineSet
EndChar

StartChar: Oslash
Encoding: 216 216 149
Width: 1663
GlyphClass: 1
Flags: W
LayerCount: 2
Fore
SplineSet
990 1297 m 1,0,1
 915 1318 915 1318 831 1318 c 0,2,3
 597 1318 597 1318 431 1152 c 256,4,5
 265 986 265 986 265 751 c 256,6,7
 265 516 265 516 431 350 c 0,8,9
 480 301 480 301 534 267 c 1,10,-1
 990 1297 l 1,0,1
678 205 m 1,11,12
 750 185 750 185 831 185 c 0,13,14
 1066 185 1066 185 1232 350 c 0,15,16
 1398 516 1398 516 1398 751 c 256,17,18
 1398 986 1398 986 1232 1152 c 0,19,20
 1185 1199 1185 1199 1132 1233 c 1,21,-1
 678 205 l 1,11,12
1208 1403 m 1,22,23
 1290 1354 1290 1354 1363 1282 c 0,24,25
 1583 1062 1583 1062 1583 751 c 256,26,27
 1583 440 1583 440 1363 220 c 0,28,29
 1142 0 1142 0 831 0 c 0,30,31
 709 0 709 0 602 34 c 1,32,-1
 491 -217 l 1,33,-1
 320 -217 l 1,34,-1
 459 97 l 1,35,36
 374 146 374 146 300 220 c 0,37,38
 80 440 80 440 80 751 c 256,39,40
 80 1062 80 1062 300 1282 c 256,41,42
 520 1502 520 1502 831 1502 c 0,43,44
 956 1502 956 1502 1066 1467 c 1,45,-1
 1139 1632 l 1,46,-1
 1309 1632 l 1,47,-1
 1208 1403 l 1,22,23
EndSplineSet
EndChar

StartChar: Thorn
Encoding: 222 222 155
Width: 1220
GlyphClass: 1
Flags: W
LayerCount: 2
Fore
SplineSet
325 298 m 1,0,-1
 325 91 l 2,1,2
 325 53 325 53 298 27 c 0,3,4
 271 0 271 0 234 0 c 2,5,-1
 231 0 l 2,6,7
 194 0 194 0 167 27 c 0,8,9
 140 53 140 53 140 91 c 2,10,-1
 140 1411 l 2,11,12
 140 1449 140 1449 167 1476 c 0,13,14
 194 1502 194 1502 231 1502 c 2,15,-1
 234 1502 l 2,16,17
 271 1502 271 1502 298 1476 c 0,18,19
 325 1449 325 1449 325 1411 c 2,20,-1
 325 1205 l 1,21,-1
 691 1205 l 2,22,23
 879 1205 879 1205 1012 1072 c 256,24,25
 1145 939 1145 939 1145 752 c 0,26,27
 1145 564 1145 564 1012 431 c 256,28,29
 879 298 879 298 691 298 c 2,30,-1
 325 298 l 1,0,-1
325 1020 m 1,31,-1
 325 483 l 1,32,-1
 691 483 l 2,33,34
 802 483 802 483 881 561 c 0,35,36
 960 640 960 640 960 752 c 0,37,38
 960 863 960 863 881 942 c 0,39,40
 802 1020 802 1020 691 1020 c 2,41,-1
 325 1020 l 1,31,-1
EndSplineSet
EndChar

StartChar: germandbls
Encoding: 223 223 156
Width: 1124
GlyphClass: 1
Flags: W
LayerCount: 2
Fore
SplineSet
285 91 m 2,0,1
 285 53 285 53 258 27 c 0,2,3
 231 0 231 0 194 0 c 2,4,-1
 191 0 l 2,5,6
 154 0 154 0 127 27 c 0,7,8
 100 53 100 53 100 91 c 2,9,-1
 100 1250 l 2,10,11
 100 1355 100 1355 174 1429 c 0,12,13
 248 1502 248 1502 352 1502 c 2,14,-1
 590 1502 l 2,15,16
 761 1502 761 1502 881 1382 c 256,17,18
 1001 1262 1001 1262 1001 1092 c 0,19,20
 1001 900 1001 900 854 777 c 1,21,22
 1024 647 1024 647 1024 433 c 0,23,24
 1024 254 1024 254 897 127 c 256,25,26
 770 0 770 0 590 0 c 2,27,-1
 529 0 l 2,28,29
 491 0 491 0 464 27 c 0,30,31
 438 53 438 53 438 91 c 2,32,-1
 438 93 l 2,33,34
 438 131 438 131 464 158 c 0,35,36
 491 185 491 185 529 185 c 2,37,-1
 590 185 l 2,38,39
 693 185 693 185 766 257 c 0,40,41
 838 330 838 330 838 433 c 256,42,43
 838 536 838 536 766 609 c 0,44,45
 693 682 693 682 590 682 c 2,46,-1
 533 682 l 2,47,48
 495 682 495 682 468 709 c 0,49,50
 442 735 442 735 442 773 c 2,51,-1
 442 775 l 2,52,53
 442 813 442 813 468 840 c 0,54,55
 495 866 495 866 533 866 c 2,56,-1
 590 867 l 2,57,58
 684 867 684 867 750 932 c 0,59,60
 816 998 816 998 816 1092 c 0,61,62
 816 1185 816 1185 750 1251 c 0,63,64
 684 1318 684 1318 590 1318 c 2,65,-1
 352 1318 l 2,66,67
 324 1318 324 1318 304 1298 c 0,68,69
 285 1278 285 1278 285 1250 c 2,70,-1
 285 91 l 2,0,1
EndSplineSet
EndChar

StartChar: ae
Encoding: 230 230 163
Width: 2185
GlyphClass: 1
Flags: W
LayerCount: 2
Fore
SplineSet
390 801 m 0,0,1
 285 695 285 695 285 546 c 0,2,3
 285 396 285 396 390 290 c 0,4,5
 496 185 496 185 646 185 c 256,6,7
 796 185 796 185 901 290 c 0,8,9
 1007 396 1007 396 1007 546 c 0,10,11
 1007 695 1007 695 901 801 c 0,12,13
 796 907 796 907 646 907 c 256,14,15
 496 907 496 907 390 801 c 0,0,1
1554 905 m 0,16,17
 1404 905 1404 905 1298 799 c 0,18,19
 1193 693 1193 693 1193 543 c 0,20,21
 1193 516 1193 516 1197 490 c 1,22,-1
 1830 776 l 1,23,24
 1722 905 1722 905 1554 905 c 0,16,17
1192 137 m 1,25,-1
 1192 91 l 2,26,27
 1192 53 1192 53 1165 27 c 0,28,29
 1138 0 1138 0 1101 0 c 2,30,-1
 1098 0 l 2,31,32
 1061 0 1061 0 1034 27 c 0,33,34
 1007 53 1007 53 1007 91 c 2,35,-1
 1007 137 l 1,36,37
 852 0 852 0 646 0 c 0,38,39
 420 0 420 0 260 160 c 256,40,41
 100 320 100 320 100 546 c 256,42,43
 100 772 100 772 260 932 c 256,44,45
 420 1092 420 1092 646 1092 c 256,46,47
 872 1092 872 1092 1032 932 c 0,48,49
 1071 893 1071 893 1100 851 c 1,50,51
 1129 893 1129 893 1168 932 c 0,52,53
 1328 1092 1328 1092 1554 1092 c 0,54,55
 1717 1092 1717 1092 1852 1003 c 0,56,57
 1985 916 1985 916 2050 773 c 0,58,59
 2066 739 2066 739 2053 703 c 0,60,61
 2040 668 2040 668 2005 652 c 0,62,63
 1865 589 1865 589 1637 486 c 0,64,65
 1354 358 1354 358 1270 320 c 1,66,67
 1378 182 1378 182 1554 182 c 0,68,69
 1671 182 1671 182 1766 251 c 0,70,71
 1858 318 1858 318 1895 425 c 0,72,73
 1917 487 1917 487 1983 487 c 0,74,75
 2030 487 2030 487 2058 448 c 0,76,77
 2085 410 2085 410 2069 365 c 0,78,79
 2013 203 2013 203 1873 103 c 0,80,81
 1730 0 1730 0 1554 0 c 0,82,83
 1345 0 1345 0 1192 137 c 1,25,-1
EndSplineSet
EndChar

StartChar: eth
Encoding: 240 240 173
Width: 1292
GlyphClass: 1
Flags: W
LayerCount: 2
Fore
SplineSet
901 799 m 0,1,2
 1007 693 1007 693 1007 543 c 0,3,4
 1007 394 1007 394 901 288 c 0,5,6
 796 182 796 182 646 182 c 256,7,8
 496 182 496 182 390 288 c 0,9,10
 285 394 285 394 285 543 c 0,11,12
 285 693 285 693 390 799 c 0,13,14
 496 905 496 905 646 905 c 256,15,0
 796 905 796 905 901 799 c 0,1,2
666 1547 m 2,17,-1
 590 1445 l 1,18,19
 545 1469 545 1469 497 1490 c 0,20,21
 467 1503 467 1503 450 1475 c 2,22,-1
 407 1411 l 2,23,24
 398 1396 398 1396 403 1380 c 0,25,26
 407 1363 407 1363 423 1355 c 0,27,28
 459 1338 459 1338 494 1318 c 1,29,-1
 418 1216 l 2,30,31
 395 1185 395 1185 425 1162 c 2,32,-1
 473 1126 l 2,33,34
 504 1103 504 1103 526 1134 c 2,35,-1
 609 1244 l 1,36,37
 718 1166 718 1166 803 1069 c 1,38,39
 727 1092 727 1092 646 1092 c 0,40,41
 420 1092 420 1092 260 932 c 256,42,43
 100 772 100 772 100 546 c 256,44,45
 100 320 100 320 260 160 c 256,46,47
 420 0 420 0 646 0 c 256,48,49
 872 0 872 0 1032 160 c 256,50,51
 1192 320 1192 320 1192 546 c 0,52,53
 1192 575 1192 575 1189 605 c 0,54,55
 1184 720 1184 720 1121 874 c 0,56,57
 996 1182 996 1182 707 1375 c 1,58,-1
 775 1466 l 2,59,60
 798 1496 798 1496 768 1519 c 2,61,-1
 720 1555 l 2,62,16
 689 1578 689 1578 666 1547 c 2,17,-1
EndSplineSet
EndChar

StartChar: divide
Encoding: 247 247 180
Width: 892
GlyphClass: 1
Flags: W
LayerCount: 2
Fore
SplineSet
842 750 m 2,0,1
 842 712 842 712 815 686 c 0,2,3
 788 659 788 659 750 659 c 2,4,-1
 141 659 l 2,5,6
 103 659 103 659 77 686 c 0,7,8
 50 712 50 712 50 750 c 2,9,-1
 50 752 l 2,10,11
 50 790 50 790 77 817 c 0,12,13
 103 844 103 844 141 844 c 2,14,-1
 750 844 l 2,15,16
 788 844 788 844 815 817 c 256,17,18
 842 790 842 790 842 752 c 2,19,-1
 842 750 l 2,0,1
523 338 m 0,21,22
 556 370 556 370 556 416 c 0,23,24
 556 461 556 461 523 493 c 0,25,26
 491 525 491 525 446 525 c 0,27,28
 400 525 400 525 368 493 c 256,29,30
 336 461 336 461 336 416 c 0,31,32
 336 370 336 370 368 338 c 256,33,34
 400 306 400 306 446 306 c 0,35,20
 491 306 491 306 523 338 c 0,21,22
523 1011 m 0,37,38
 556 1043 556 1043 556 1089 c 0,39,40
 556 1134 556 1134 523 1166 c 0,41,42
 491 1198 491 1198 446 1198 c 0,43,44
 400 1198 400 1198 368 1166 c 256,45,46
 336 1134 336 1134 336 1089 c 0,47,48
 336 1043 336 1043 368 1011 c 256,49,50
 400 979 400 979 446 979 c 0,51,36
 491 979 491 979 523 1011 c 0,37,38
EndSplineSet
EndChar

StartChar: oslash
Encoding: 248 248 181
Width: 1232
GlyphClass: 1
Flags: W
LayerCount: 2
Fore
SplineSet
323 84 m 1,0,1
 274 116 274 116 230 160 c 0,2,3
 70 320 70 320 70 546 c 256,4,5
 70 772 70 772 230 932 c 256,6,7
 390 1092 390 1092 616 1092 c 0,8,9
 699 1092 699 1092 774 1070 c 1,10,-1
 875 1292 l 1,11,-1
 1045 1292 l 1,12,-1
 914 1005 l 1,13,14
 960 974 960 974 1002 932 c 0,15,16
 1162 772 1162 772 1162 546 c 256,17,18
 1162 320 1162 320 1002 160 c 256,19,20
 842 0 842 0 616 0 c 0,21,22
 536 0 536 0 465 20 c 1,23,-1
 360 -210 l 1,24,-1
 189 -210 l 1,25,-1
 323 84 l 1,0,1
835 831 m 1,26,-1
 542 189 l 1,27,28
 578 182 578 182 616 182 c 0,29,30
 766 182 766 182 871 288 c 0,31,32
 977 394 977 394 977 543 c 0,33,34
 977 693 977 693 871 799 c 0,35,36
 854 817 854 817 835 831 c 1,26,-1
400 253 m 1,37,-1
 695 897 l 1,38,39
 657 905 657 905 616 905 c 0,40,41
 466 905 466 905 360 799 c 0,42,43
 255 693 255 693 255 543 c 0,44,45
 255 394 255 394 360 288 c 0,46,47
 379 269 379 269 400 253 c 1,37,-1
EndSplineSet
EndChar

StartChar: thorn
Encoding: 254 254 187
Width: 1262
GlyphClass: 1
Flags: W
LayerCount: 2
Fore
SplineSet
285 956 m 1,0,1
 437 1092 437 1092 646 1092 c 0,2,3
 872 1092 872 1092 1032 932 c 256,4,5
 1192 772 1192 772 1192 546 c 256,6,7
 1192 320 1192 320 1032 160 c 256,8,9
 872 0 872 0 646 0 c 0,10,11
 439 0 439 0 285 137 c 1,12,-1
 285 -320 l 2,13,14
 285 -357 285 -357 258 -384 c 256,15,16
 231 -411 231 -411 194 -411 c 2,17,-1
 191 -411 l 2,18,19
 154 -411 154 -411 127 -384 c 256,20,21
 100 -357 100 -357 100 -320 c 2,22,-1
 100 1411 l 2,23,24
 100 1449 100 1449 127 1476 c 0,25,26
 154 1502 154 1502 191 1502 c 2,27,-1
 194 1502 l 2,28,29
 231 1502 231 1502 258 1476 c 0,30,31
 285 1449 285 1449 285 1411 c 2,32,-1
 285 956 l 1,0,1
285 548 m 0,33,34
 285 399 285 399 390 293 c 0,35,36
 496 187 496 187 646 187 c 256,37,38
 796 187 796 187 901 293 c 0,39,40
 1007 399 1007 399 1007 548 c 0,41,42
 1007 698 1007 698 901 804 c 0,43,44
 796 909 796 909 646 909 c 256,45,46
 496 909 496 909 390 804 c 0,47,48
 285 698 285 698 285 548 c 0,33,34
EndSplineSet
EndChar

StartChar: dotlessi
Encoding: 305 305 189
Width: 460
GlyphClass: 1
Flags: W
LayerCount: 2
Fore
SplineSet
231 1092 m 2,0,1
 269 1092 269 1092 295 1065 c 0,2,3
 322 1038 322 1038 322 1000 c 2,4,-1
 322 91 l 2,5,6
 322 53 322 53 295 27 c 0,7,8
 269 0 269 0 231 0 c 2,9,-1
 229 0 l 2,10,11
 191 0 191 0 164 27 c 0,12,13
 137 53 137 53 137 91 c 2,14,-1
 137 1000 l 2,15,16
 137 1038 137 1038 164 1065 c 256,17,18
 191 1092 191 1092 229 1092 c 2,19,-1
 231 1092 l 2,0,1
EndSplineSet
EndChar

StartChar: circumflex
Encoding: 710 710 190
Width: 882
GlyphClass: 1
Flags: W
LayerCount: 2
Fore
SplineSet
630 1166 m 2,0,1
 645 1151 645 1151 660 1151 c 2,2,-1
 737 1151 l 2,3,4
 761 1151 761 1151 771 1172 c 0,5,6
 782 1194 782 1194 767 1212 c 2,7,-1
 569 1463 l 2,8,9
 558 1478 558 1478 539 1478 c 2,10,-1
 342 1478 l 2,11,12
 324 1478 324 1478 312 1463 c 2,13,-1
 115 1212 l 2,14,15
 100 1194 100 1194 111 1172 c 0,16,17
 121 1151 121 1151 145 1151 c 2,18,-1
 222 1151 l 2,19,20
 237 1151 237 1151 252 1166 c 2,21,-1
 441 1352 l 1,22,-1
 630 1166 l 2,0,1
EndSplineSet
EndChar

StartChar: caron
Encoding: 711 711 191
Width: 882
GlyphClass: 1
Flags: W
LayerCount: 2
Fore
SplineSet
252 1472 m 2,0,1
 237 1487 237 1487 222 1487 c 2,2,-1
 145 1487 l 2,3,4
 121 1487 121 1487 110 1466 c 0,5,6
 100 1444 100 1444 115 1426 c 2,7,-1
 312 1175 l 2,8,9
 324 1161 324 1161 342 1161 c 2,10,-1
 539 1161 l 2,11,12
 558 1161 558 1161 569 1175 c 2,13,-1
 767 1426 l 2,14,15
 782 1444 782 1444 771 1466 c 0,16,17
 761 1487 761 1487 737 1487 c 2,18,-1
 660 1487 l 2,19,20
 645 1487 645 1487 629 1472 c 0,21,22
 598 1441 598 1441 535 1379 c 256,23,24
 472 1317 472 1317 441 1286 c 1,25,-1
 252 1472 l 2,0,1
EndSplineSet
EndChar

StartChar: uni02C9
Encoding: 713 713 192
Width: 592
GlyphClass: 1
Flags: W
LayerCount: 2
Fore
SplineSet
542 1274 m 2,0,1
 542 1236 542 1236 515 1210 c 0,2,3
 488 1183 488 1183 450 1183 c 2,4,-1
 141 1183 l 2,5,6
 103 1183 103 1183 77 1210 c 0,7,8
 50 1236 50 1236 50 1274 c 2,9,-1
 50 1276 l 2,10,11
 50 1314 50 1314 77 1341 c 0,12,13
 103 1368 103 1368 141 1368 c 2,14,-1
 450 1368 l 2,15,16
 488 1368 488 1368 515 1341 c 256,17,18
 542 1314 542 1314 542 1276 c 2,19,-1
 542 1274 l 2,0,1
EndSplineSet
EndChar

StartChar: breve
Encoding: 728 728 193
Width: 874
GlyphClass: 1
Flags: W
LayerCount: 2
Fore
SplineSet
706 1460 m 2,0,1
 737 1460 737 1460 756 1435 c 0,2,3
 774 1409 774 1409 764 1379 c 0,4,5
 727 1270 727 1270 633 1208 c 0,6,7
 546 1151 546 1151 437 1151 c 256,8,9
 328 1151 328 1151 241 1208 c 0,10,11
 147 1270 147 1270 110 1379 c 0,12,13
 100 1409 100 1409 118 1435 c 0,14,15
 137 1460 137 1460 169 1460 c 2,16,-1
 190 1460 l 2,17,18
 231 1460 231 1460 247 1422 c 0,19,20
 297 1297 297 1297 437 1297 c 0,21,22
 578 1296 578 1296 628 1421 c 0,23,24
 643 1460 643 1460 685 1460 c 2,25,-1
 706 1460 l 2,0,1
EndSplineSet
EndChar

StartChar: dotaccent
Encoding: 729 729 194
Width: 420
GlyphClass: 1
Flags: W
LayerCount: 2
Fore
SplineSet
287 1215 m 0,1,2
 320 1247 320 1247 320 1293 c 0,3,4
 320 1338 320 1338 287 1370 c 0,5,6
 255 1402 255 1402 210 1402 c 0,7,8
 164 1402 164 1402 132 1370 c 256,9,10
 100 1338 100 1338 100 1293 c 0,11,12
 100 1247 100 1247 132 1215 c 256,13,14
 164 1183 164 1183 210 1183 c 0,15,0
 255 1183 255 1183 287 1215 c 0,1,2
EndSplineSet
EndChar

StartChar: ring
Encoding: 730 730 195
Width: 648
GlyphClass: 1
Flags: W
LayerCount: 2
Fore
SplineSet
252 1369 m 0,1,2
 279 1396 279 1396 317 1396 c 2,3,-1
 330 1396 l 2,4,5
 369 1396 369 1396 396 1369 c 0,6,7
 424 1341 424 1341 424 1303 c 0,8,9
 424 1264 424 1264 396 1237 c 0,10,11
 369 1209 369 1209 330 1209 c 2,12,-1
 317 1209 l 2,13,14
 279 1209 279 1209 252 1237 c 0,15,16
 224 1264 224 1264 224 1303 c 0,17,0
 224 1341 224 1341 252 1369 c 0,1,2
162 1153 m 256,19,20
 224 1091 224 1091 312 1091 c 2,21,-1
 336 1091 l 2,22,23
 423 1091 423 1091 486 1153 c 0,24,25
 548 1215 548 1215 548 1303 c 0,26,27
 548 1390 548 1390 486 1452 c 0,28,29
 423 1514 423 1514 336 1514 c 2,30,-1
 312 1514 l 2,31,32
 224 1514 224 1514 162 1452 c 256,33,34
 100 1390 100 1390 100 1303 c 0,35,18
 100 1215 100 1215 162 1153 c 256,19,20
EndSplineSet
EndChar

StartChar: ogonek
Encoding: 731 731 196
Width: 523
GlyphClass: 1
Flags: W
LayerCount: 2
Fore
SplineSet
423 -387 m 1,0,1
 380 -426 380 -426 281 -426 c 0,2,3
 203 -426 203 -426 153 -381 c 0,4,5
 100 -333 100 -333 100 -253 c 0,6,7
 100 -184 100 -184 157 -90 c 0,8,9
 175 -61 175 -61 199 -30 c 0,10,11
 223 3 223 3 221 0 c 1,12,-1
 362 0 l 1,13,14
 322 -39 322 -39 289 -89 c 0,15,16
 223 -188 223 -188 255 -244 c 0,17,18
 287 -299 287 -299 358 -285 c 0,19,20
 394 -278 394 -278 423 -260 c 1,21,-1
 423 -387 l 1,0,1
EndSplineSet
EndChar

StartChar: tilde
Encoding: 732 732 197
Width: 908
GlyphClass: 1
Flags: W
LayerCount: 2
Fore
SplineSet
171 1325 m 0,1,2
 229 1374 229 1374 317 1374 c 0,3,4
 391 1374 391 1374 495 1325 c 0,5,6
 542 1303 542 1303 592 1305 c 0,7,8
 654 1307 654 1307 666 1351 c 0,9,10
 675 1383 675 1383 710 1383 c 2,11,-1
 761 1383 l 2,12,13
 782 1383 782 1383 795 1368 c 256,14,15
 808 1353 808 1353 805 1334 c 0,16,17
 776 1157 776 1157 601 1157 c 0,18,19
 527 1157 527 1157 426 1210 c 0,20,21
 375 1236 375 1236 323 1236 c 0,22,23
 257 1236 257 1236 244 1184 c 0,24,25
 237 1151 237 1151 201 1151 c 2,26,-1
 147 1151 l 2,27,28
 127 1151 127 1151 113 1166 c 0,29,30
 100 1181 100 1181 103 1200 c 0,31,0
 116 1279 116 1279 171 1325 c 0,1,2
EndSplineSet
EndChar

StartChar: endash
Encoding: 8211 8211 199
Width: 1137
GlyphClass: 1
Flags: W
LayerCount: 2
Fore
SplineSet
100 629 m 1,0,-1
 1037 629 l 1,1,-1
 1037 460 l 1,2,-1
 100 460 l 1,3,-1
 100 629 l 1,0,-1
EndSplineSet
EndChar

StartChar: emdash
Encoding: 8212 8212 200
Width: 1537
GlyphClass: 1
Flags: W
LayerCount: 2
Fore
SplineSet
100 629 m 1,0,-1
 1437 629 l 1,1,-1
 1437 460 l 1,2,-1
 100 460 l 1,3,-1
 100 629 l 1,0,-1
EndSplineSet
EndChar

StartChar: quoteleft
Encoding: 8216 8216 201
Width: 395
GlyphClass: 1
Flags: W
LayerCount: 2
Fore
SplineSet
268 1223 m 0,1,2
 295 1196 295 1196 295 1159 c 2,3,-1
 295 1093 l 2,4,5
 295 1055 295 1055 268 1028 c 0,6,7
 241 1002 241 1002 204 1002 c 2,8,-1
 192 1002 l 2,9,10
 154 1002 154 1002 127 1028 c 0,11,12
 100 1055 100 1055 100 1093 c 2,13,-1
 100 1250 l 2,14,15
 100 1379 100 1379 151 1453 c 0,16,17
 176 1490 176 1490 201 1502 c 1,18,-1
 255 1461 l 1,19,20
 188 1378 188 1378 204 1250 c 1,21,0
 242 1250 242 1250 268 1223 c 0,1,2
EndSplineSet
EndChar

StartChar: quoteright
Encoding: 8217 8217 202
Width: 395
GlyphClass: 1
Flags: W
LayerCount: 2
Fore
SplineSet
127 1281 m 0,1,2
 100 1308 100 1308 100 1345 c 2,3,-1
 100 1411 l 2,4,5
 100 1449 100 1449 127 1476 c 0,6,7
 154 1502 154 1502 191 1502 c 2,8,-1
 203 1502 l 2,9,10
 241 1502 241 1502 268 1476 c 0,11,12
 295 1449 295 1449 295 1411 c 2,13,-1
 295 1254 l 2,14,15
 295 1125 295 1125 244 1051 c 0,16,17
 219 1014 219 1014 194 1002 c 1,18,-1
 140 1043 l 1,19,20
 207 1126 207 1126 191 1254 c 1,21,0
 153 1254 153 1254 127 1281 c 0,1,2
EndSplineSet
EndChar

StartChar: dagger
Encoding: 8224 8224 207
Width: 1080
GlyphClass: 1
Flags: W
LayerCount: 2
Fore
SplineSet
1070 952 m 1,0,-1
 1070 1112 l 1,1,-1
 620 1112 l 1,2,-1
 620 1562 l 1,3,-1
 460 1562 l 1,4,-1
 460 1112 l 1,5,-1
 10 1112 l 1,6,-1
 10 952 l 1,7,-1
 460 952 l 1,8,-1
 460 -278 l 1,9,-1
 620 -278 l 1,10,-1
 620 952 l 1,11,-1
 1070 952 l 1,0,-1
EndSplineSet
EndChar

StartChar: daggerdbl
Encoding: 8225 8225 208
Width: 1080
GlyphClass: 1
Flags: W
LayerCount: 2
Fore
SplineSet
10 1102 m 1,0,-1
 10 942 l 1,1,-1
 460 942 l 1,2,-1
 460 342 l 1,3,-1
 10 342 l 1,4,-1
 10 182 l 1,5,-1
 460 182 l 1,6,-1
 460 -278 l 1,7,-1
 620 -278 l 1,8,-1
 620 182 l 1,9,-1
 1070 182 l 1,10,-1
 1070 342 l 1,11,-1
 620 342 l 1,12,-1
 620 942 l 1,13,-1
 1070 942 l 1,14,-1
 1070 1102 l 1,15,-1
 620 1102 l 1,16,-1
 620 1562 l 1,17,-1
 460 1562 l 1,18,-1
 460 1102 l 1,19,-1
 10 1102 l 1,0,-1
EndSplineSet
EndChar

StartChar: bullet
Encoding: 8226 8226 209
Width: 833
GlyphClass: 1
Flags: W
LayerCount: 2
Fore
SplineSet
640.5 927.5 m 128,-1,1
 733 835 733 835 733 704 c 0,2,3
 733 572 733 572 640.5 479.5 c 128,-1,4
 548 387 548 387 416 387 c 0,5,6
 285 387 285 387 192.5 479.5 c 128,-1,7
 100 572 100 572 100 704 c 0,8,9
 100 835 100 835 192.5 927.5 c 128,-1,10
 285 1020 285 1020 416 1020 c 0,11,0
 548 1020 548 1020 640.5 927.5 c 128,-1,1
EndSplineSet
EndChar

StartChar: ellipsis
Encoding: 8230 8230 210
Width: 2048
GlyphClass: 1
Flags: W
LayerCount: 2
Fore
SplineSet
287 32 m 0,1,2
 320 64 320 64 320 110 c 0,3,4
 320 155 320 155 287 187 c 0,5,6
 255 219 255 219 210 219 c 0,7,8
 164 219 164 219 132 187 c 256,9,10
 100 155 100 155 100 110 c 0,11,12
 100 64 100 64 132 32 c 256,13,14
 164 0 164 0 210 0 c 0,15,0
 255 0 255 0 287 32 c 0,1,2
970 32 m 0,17,18
 1003 64 1003 64 1003 110 c 0,19,20
 1003 155 1003 155 970 187 c 0,21,22
 938 219 938 219 893 219 c 0,23,24
 847 219 847 219 815 187 c 256,25,26
 783 155 783 155 783 110 c 0,27,28
 783 64 783 64 815 32 c 256,29,30
 847 0 847 0 893 0 c 0,31,16
 938 0 938 0 970 32 c 0,17,18
1653 32 m 0,33,34
 1686 64 1686 64 1686 110 c 0,35,36
 1686 155 1686 155 1653 187 c 0,37,38
 1621 219 1621 219 1576 219 c 0,39,40
 1530 219 1530 219 1498 187 c 256,41,42
 1466 155 1466 155 1466 110 c 0,43,44
 1466 64 1466 64 1498 32 c 256,45,46
 1530 0 1530 0 1576 0 c 0,47,32
 1621 0 1621 0 1653 32 c 0,33,34
EndSplineSet
EndChar

StartChar: guilsinglleft
Encoding: 8249 8249 211
Width: 678
GlyphClass: 1
Flags: W
LayerCount: 2
Fore
SplineSet
421 1091 m 1,0,-1
 648 1091 l 1,1,-1
 223 720 l 1,2,-1
 648 349 l 1,3,-1
 421 349 l 1,4,-1
 48 679 l 2,5,6
 30 695 30 695 30 720 c 0,7,8
 30 746 30 746 48 762 c 2,9,-1
 421 1091 l 1,0,-1
EndSplineSet
EndChar

StartChar: guilsinglright
Encoding: 8250 8250 212
Width: 678
GlyphClass: 1
Flags: W
LayerCount: 2
Fore
SplineSet
630 762 m 2,0,1
 648 746 648 746 648 720 c 0,2,3
 648 695 648 695 630 679 c 2,4,-1
 257 349 l 1,5,-1
 30 349 l 1,6,-1
 455 720 l 1,7,-1
 30 1091 l 1,8,-1
 257 1091 l 1,9,-1
 630 762 l 2,0,1
EndSplineSet
EndChar

StartChar: fraction
Encoding: 8260 8260 213
AltUni2: 002215.ffffffff.0 002215.ffffffff.0
Width: 436
GlyphClass: 1
Flags: W
LayerCount: 2
Fore
SplineSet
584 1572 m 1,0,-1
 82 -124 l 1,1,-1
 -39 -124 l 1,2,-1
 464 1572 l 1,3,-1
 584 1572 l 1,0,-1
EndSplineSet
EndChar

StartChar: franc
Encoding: 8355 8355 214
Width: 970
GlyphClass: 1
Flags: W
LayerCount: 2
Fore
SplineSet
484 468 m 2,0,1
 518 467 518 467 544 442 c 0,2,3
 571 415 571 415 571 377 c 2,4,-1
 571 375 l 2,5,6
 571 337 571 337 544 310 c 0,7,8
 518 285 518 285 484 284 c 1,9,-1
 484 283 l 1,10,-1
 372 283 l 1,11,-1
 372 91 l 2,12,13
 372 53 372 53 345 27 c 0,14,15
 318 0 318 0 281 0 c 2,16,-1
 278 0 l 2,17,18
 241 0 241 0 214 27 c 0,19,20
 187 53 187 53 187 91 c 2,21,-1
 187 283 l 1,22,-1
 97 283 l 1,23,-1
 97 284 l 1,24,25
 62 285 62 285 37 310 c 0,26,27
 10 337 10 337 10 375 c 2,28,-1
 10 377 l 2,29,30
 10 415 10 415 37 442 c 0,31,32
 62 467 62 467 97 468 c 2,33,-1
 187 468 l 1,34,-1
 187 1167 l 2,35,36
 187 1306 187 1306 285 1404 c 256,37,38
 383 1502 383 1502 522 1502 c 2,39,-1
 829 1502 l 2,40,41
 866 1502 866 1502 893 1476 c 0,42,43
 920 1449 920 1449 920 1411 c 2,44,-1
 920 1409 l 2,45,46
 920 1371 920 1371 893 1344 c 0,47,48
 866 1318 866 1318 829 1318 c 2,49,-1
 522 1318 l 2,50,51
 460 1318 460 1318 416 1274 c 256,52,53
 372 1230 372 1230 372 1167 c 2,54,-1
 372 843 l 1,55,-1
 819 843 l 2,56,57
 856 843 856 843 883 817 c 0,58,59
 910 790 910 790 910 752 c 2,60,-1
 910 750 l 2,61,62
 910 712 910 712 883 686 c 0,63,64
 856 659 856 659 819 659 c 2,65,-1
 372 659 l 1,66,-1
 372 468 l 1,67,-1
 484 468 l 2,0,1
EndSplineSet
EndChar

StartChar: peseta
Encoding: 8359 8359 216
Width: 2413
GlyphClass: 1
Flags: W
LayerCount: 2
Fore
SplineSet
833 873 m 0,0,1
 772 805 772 805 686 802 c 2,2,-1
 334 802 l 1,3,-1
 334 1382 l 1,4,-1
 686 1382 l 2,5,6
 772 1379 772 1379 833 1311 c 0,7,8
 894 1242 894 1242 894 1092 c 128,-1,9
 894 942 894 942 833 873 c 0,0,1
1956 -13 m 1,10,11
 2111 -4 2111 -4 2228 67 c 0,12,13
 2372 153 2372 153 2385 302 c 0,14,15
 2399 457 2399 457 2278 545 c 0,16,17
 2202 601 2202 601 2012 650 c 0,18,19
 1845 694 1845 694 1797 713 c 0,20,21
 1710 749 1710 749 1713 829 c 0,22,23
 1716 896 1716 896 1795 936 c 0,24,25
 1861 970 1861 970 1936 970 c 0,26,27
 2136 970 2136 970 2171 808 c 1,28,-1
 2348 830 l 1,29,30
 2294 1112 2294 1112 1952 1122 c 0,31,32
 1845 1125 1845 1125 1759 1097 c 1,33,-1
 1360 1097 l 1,34,-1
 1360 1562 l 1,35,-1
 1187 1454 l 1,36,-1
 1187 1097 l 1,37,-1
 1056 1097 l 1,38,39
 1053 1320 1053 1320 948 1438 c 0,40,41
 840 1560 840 1560 686 1562 c 1,42,-1
 686 1563 l 1,43,-1
 160 1563 l 1,44,-1
 160 0 l 1,45,-1
 334 0 l 1,46,-1
 334 630 l 1,47,-1
 654 630 l 2,48,49
 834 630 834 630 922 729 c 1,50,51
 1010 811 1010 811 1040 939 c 1,52,-1
 1167 939 l 1,53,-1
 1167 358 l 2,54,55
 1168 96 1168 96 1276 26 c 0,56,57
 1338 -15 1338 -15 1555 -13 c 2,58,-1
 1956 -13 l 1,10,11
1555 149 m 1,59,-1
 1555 150 l 1,60,61
 1441 155 1441 155 1414 170 c 0,62,63
 1366 199 1366 199 1360 338 c 1,64,-1
 1360 939 l 1,65,-1
 1560 939 l 1,66,67
 1531 881 1531 881 1531 806 c 0,68,69
 1531 657 1531 657 1655 575 c 0,70,71
 1732 524 1732 524 1910 479 c 0,72,73
 2079 435 2079 435 2113 419 c 0,74,75
 2228 362 2228 362 2194 264 c 0,76,77
 2172 202 2172 202 2086 170 c 0,78,79
 2027 148 2027 148 1956 149 c 2,80,-1
 1555 149 l 1,59,-1
EndSplineSet
EndChar

StartChar: Euro
Encoding: 8364 8364 217
Width: 1376
GlyphClass: 1
Flags: W
LayerCount: 2
Fore
SplineSet
1208 1479 m 0,1,2
 1276 1461 1276 1461 1276 1391 c 2,3,-1
 1276 1388 l 2,4,5
 1276 1344 1276 1344 1241 1316 c 0,6,7
 1205 1289 1205 1289 1162 1300 c 0,8,9
 1093 1318 1093 1318 1021 1318 c 0,10,11
 837 1318 837 1318 688 1210 c 0,12,13
 542 1104 542 1104 485 934 c 1,14,-1
 955 934 l 2,15,16
 979 934 979 934 996 917 c 256,17,18
 1013 900 1013 900 1013 876 c 2,19,-1
 1013 853 l 2,20,21
 1013 829 1013 829 996 812 c 0,22,23
 979 794 979 794 955 794 c 2,24,-1
 456 794 l 1,25,26
 454 773 454 773 454 751 c 0,27,28
 454 718 454 718 458 684 c 1,29,-1
 889 684 l 2,30,31
 913 684 913 684 931 667 c 0,32,33
 948 650 948 650 948 626 c 2,34,-1
 948 603 l 2,35,36
 948 579 948 579 931 562 c 0,37,38
 913 544 913 544 889 544 c 2,39,-1
 493 544 l 1,40,41
 556 384 556 384 698 285 c 0,42,43
 843 185 843 185 1021 185 c 0,44,45
 1093 185 1093 185 1162 202 c 0,46,47
 1205 213 1205 213 1241 186 c 0,48,49
 1276 159 1276 159 1276 114 c 2,50,-1
 1276 112 l 2,51,52
 1276 41 1276 41 1208 23 c 0,53,54
 1116 0 1116 0 1021 0 c 0,55,56
 766 0 766 0 565 154 c 0,57,58
 366 306 366 306 298 544 c 1,59,-1
 158 544 l 2,60,61
 134 544 134 544 117 561 c 0,62,63
 100 579 100 579 100 603 c 2,64,-1
 100 626 l 2,65,66
 100 650 100 650 117 667 c 256,67,68
 134 684 134 684 158 684 c 2,69,-1
 273 684 l 1,70,71
 270 718 270 718 270 751 c 0,72,73
 270 772 270 772 271 794 c 1,74,-1
 158 794 l 2,75,76
 134 794 134 794 117 811 c 0,77,78
 100 829 100 829 100 853 c 2,79,-1
 100 876 l 2,80,81
 100 900 100 900 117 917 c 256,82,83
 134 934 134 934 158 934 c 2,84,-1
 292 934 l 1,85,86
 354 1182 354 1182 555 1341 c 0,87,88
 760 1502 760 1502 1021 1502 c 0,89,0
 1116 1502 1116 1502 1208 1479 c 0,1,2
EndSplineSet
EndChar

StartChar: uni2116
Encoding: 8470 8470 218
Width: 2229
GlyphClass: 1
Flags: W
LayerCount: 2
Fore
SplineSet
160 1563 m 1,0,-1
 160 0 l 1,1,-1
 353 0 l 1,2,-1
 353 1258 l 1,3,4
 533 906 533 906 1070 0 c 1,5,-1
 1263 0 l 1,6,-1
 1263 1563 l 1,7,-1
 1070 1563 l 1,8,-1
 1070 316 l 1,9,10
 891 658 891 658 353 1563 c 1,11,-1
 160 1563 l 1,0,-1
2152 1 m 1,12,-1
 2152 176 l 1,13,-1
 1426 176 l 1,14,-1
 1426 1 l 1,15,-1
 2152 1 l 1,12,-1
1539 455 m 0,17,18
 1646 347 1646 347 1802 347 c 0,19,20
 1957 347 1957 347 2065 455 c 0,21,22
 2184 574 2184 574 2184 778 c 0,23,24
 2184 983 2184 983 2065 1103 c 0,25,26
 1957 1211 1957 1211 1802 1211 c 0,27,28
 1646 1211 1646 1211 1539 1103 c 0,29,30
 1419 983 1419 983 1419 778 c 0,31,16
 1419 574 1419 574 1539 455 c 0,17,18
1664 964 m 0,33,34
 1720 1025 1720 1025 1801 1025 c 256,35,36
 1882 1025 1882 1025 1938 964 c 0,37,38
 2001 895 2001 895 2001 779 c 0,39,40
 2001 662 2001 662 1938 594 c 0,41,42
 1882 533 1882 533 1801 533 c 256,43,44
 1720 533 1720 533 1664 594 c 0,45,46
 1601 662 1601 662 1601 779 c 0,47,32
 1601 895 1601 895 1664 964 c 0,33,34
EndSplineSet
EndChar

StartChar: trademark
Encoding: 8482 8482 219
Width: 1258
GlyphClass: 1
Flags: W
LayerCount: 2
Fore
SplineSet
225 1492 m 1,0,-1
 225 938 l 1,1,-1
 312 938 l 1,2,-1
 312 1492 l 1,3,-1
 516 1492 l 1,4,-1
 516 1563 l 1,5,-1
 20 1563 l 1,6,-1
 20 1492 l 1,7,-1
 225 1492 l 1,0,-1
834 976 m 1,8,-1
 657 1480 l 1,9,-1
 657 938 l 1,10,-1
 576 938 l 1,11,-1
 576 1563 l 1,12,-1
 701 1563 l 1,13,-1
 848 1144 l 2,14,15
 860 1106 860 1106 867 1079 c 1,16,17
 874 1106 874 1106 886 1144 c 2,18,-1
 1033 1563 l 1,19,-1
 1158 1563 l 1,20,-1
 1158 938 l 1,21,-1
 1077 938 l 1,22,-1
 1077 1480 l 1,23,-1
 900 976 l 1,24,-1
 834 976 l 1,8,-1
EndSplineSet
EndChar

StartChar: partialdiff
Encoding: 8706 8706 220
Width: 1005
GlyphClass: 1
Flags: W
LayerCount: 2
Fore
SplineSet
438 717 m 0,1,2
 273 624 273 624 253 444 c 0,3,4
 235 283 235 283 315 239 c 0,5,6
 394 195 394 195 515 267 c 0,7,8
 656 351 656 351 717 519 c 0,9,10
 761 638 761 638 774 800 c 0,11,12
 774 802 774 802 774 803 c 1,13,0
 569 792 569 792 438 717 c 0,1,2
904 868 m 2,14,15
 904 864 904 864 904 861 c 0,16,17
 902 824 902 824 900 791 c 0,18,19
 886 611 886 611 836 475 c 0,20,21
 759 265 759 265 580 159 c 0,22,23
 397 50 397 50 254 128 c 0,24,25
 100 212 100 212 127 458 c 0,26,27
 153 692 153 692 356 815 c 0,28,29
 523 918 523 918 779 930 c 1,30,31
 779 951 779 951 779 1011 c 0,32,33
 779 1113 779 1113 753 1181 c 0,34,35
 716 1281 716 1281 632 1281 c 0,36,37
 574 1281 574 1281 512 1218 c 0,38,39
 461 1167 461 1167 431 1103 c 0,40,41
 419 1079 419 1079 395 1070 c 0,42,43
 370 1061 370 1061 346 1072 c 0,44,45
 323 1083 323 1083 314 1108 c 256,46,47
 305 1133 305 1133 316 1156 c 0,48,49
 345 1218 345 1218 395 1278 c 0,50,51
 504 1407 504 1407 632 1407 c 0,52,53
 714 1407 714 1407 776 1361 c 0,54,55
 905 1264 905 1264 905 1011 c 0,56,57
 905 914 905 914 904 871 c 2,58,-1
 904 868 l 2,14,15
EndSplineSet
EndChar

StartChar: Delta
Encoding: 8710 8710 221
Width: 1269
GlyphClass: 1
Flags: W
LayerCount: 2
Fore
SplineSet
596 1325 m 2,0,1
 607 1350 607 1350 634 1350 c 0,2,3
 662 1350 662 1350 673 1325 c 2,4,-1
 1159 239 l 2,5,6
 1169 218 1169 218 1156 199 c 0,7,8
 1144 180 1144 180 1121 180 c 2,9,-1
 148 180 l 2,10,11
 125 180 125 180 112 199 c 0,12,13
 100 218 100 218 109 239 c 2,14,-1
 596 1325 l 2,0,1
991 309 m 1,15,-1
 634 1106 l 1,16,-1
 277 309 l 1,17,-1
 991 309 l 1,15,-1
EndSplineSet
EndChar

StartChar: product
Encoding: 8719 8719 222
Width: 1345
GlyphClass: 1
Flags: W
LayerCount: 2
Fore
SplineSet
1118 1377 m 1,0,-1
 227 1377 l 1,1,-1
 227 -123 l 2,2,3
 227 -149 227 -149 208 -167 c 0,4,5
 189 -186 189 -186 163 -186 c 256,6,7
 137 -186 137 -186 119 -167 c 0,8,9
 100 -149 100 -149 100 -123 c 2,10,-1
 100 1440 l 2,11,12
 100 1466 100 1466 119 1485 c 0,13,14
 137 1504 137 1504 163 1504 c 2,15,-1
 1181 1504 l 2,16,17
 1208 1504 1208 1504 1226 1485 c 0,18,19
 1245 1466 1245 1466 1245 1440 c 2,20,-1
 1245 -123 l 2,21,22
 1245 -149 1245 -149 1226 -167 c 0,23,24
 1208 -186 1208 -186 1181 -186 c 0,25,26
 1155 -186 1155 -186 1137 -167 c 0,27,28
 1118 -149 1118 -149 1118 -123 c 2,29,-1
 1118 1377 l 1,0,-1
EndSplineSet
EndChar

StartChar: summation
Encoding: 8721 8721 223
Width: 1369
GlyphClass: 1
Flags: W
LayerCount: 2
Fore
SplineSet
305 1375 m 1,0,-1
 818 725 l 2,1,2
 849 686 849 686 818 647 c 2,3,-1
 305 -3 l 1,4,-1
 1206 -3 l 2,5,6
 1232 -3 1232 -3 1251 -22 c 0,7,8
 1269 -41 1269 -41 1269 -67 c 256,9,10
 1269 -93 1269 -93 1251 -111 c 0,11,12
 1232 -130 1232 -130 1206 -130 c 2,13,-1
 174 -130 l 2,14,15
 135 -130 135 -130 117 -94 c 0,16,17
 100 -59 100 -59 125 -27 c 2,18,-1
 688 686 l 1,19,-1
 125 1399 l 2,20,21
 100 1430 100 1430 117 1466 c 0,22,23
 135 1502 135 1502 174 1502 c 2,24,-1
 1206 1502 l 2,25,26
 1232 1502 1232 1502 1251 1483 c 0,27,28
 1269 1464 1269 1464 1269 1438 c 256,29,30
 1269 1412 1269 1412 1251 1394 c 0,31,32
 1232 1375 1232 1375 1206 1375 c 2,33,-1
 305 1375 l 1,0,-1
EndSplineSet
EndChar

StartChar: minus
Encoding: 8722 8722 224
Width: 892
GlyphClass: 1
Flags: W
LayerCount: 2
Fore
SplineSet
842 750 m 2,0,1
 842 712 842 712 815 686 c 0,2,3
 788 659 788 659 750 659 c 2,4,-1
 141 659 l 2,5,6
 103 659 103 659 77 686 c 0,7,8
 50 712 50 712 50 750 c 2,9,-1
 50 752 l 2,10,11
 50 790 50 790 77 817 c 0,12,13
 103 844 103 844 141 844 c 2,14,-1
 750 844 l 2,15,16
 788 844 788 844 815 817 c 256,17,18
 842 790 842 790 842 752 c 2,19,-1
 842 750 l 2,0,1
EndSplineSet
Substitution2: "'sinf' Scientific Inferiors in Latin lookup 0 subtable" uni208B
EndChar

StartChar: radical
Encoding: 8730 8730 225
Width: 1161
GlyphClass: 1
Flags: W
LayerCount: 2
Fore
SplineSet
932 1571 m 2,0,1
 936 1596 936 1596 958 1612 c 0,2,3
 979 1627 979 1627 1005 1623 c 256,4,5
 1031 1619 1031 1619 1046 1598 c 0,6,7
 1061 1576 1061 1576 1057 1550 c 2,8,-1
 816 54 l 2,9,10
 809 9 809 9 763 2 c 256,11,12
 717 -5 717 -5 697 37 c 2,13,-1
 343 760 l 1,14,-1
 193 698 l 2,15,16
 168 688 168 688 144 698 c 256,17,18
 120 708 120 708 110 733 c 0,19,20
 100 757 100 757 110 781 c 256,21,22
 120 805 120 805 144 815 c 2,23,-1
 350 900 l 2,24,25
 373 910 373 910 396 901 c 0,26,27
 420 892 420 892 431 869 c 2,28,-1
 723 272 l 1,29,-1
 932 1571 l 2,0,1
EndSplineSet
EndChar

StartChar: infinity
Encoding: 8734 8734 226
Width: 1215
GlyphClass: 1
Flags: W
LayerCount: 2
Fore
SplineSet
862 1046 m 0,1,2
 1001 1046 1001 1046 1061 968 c 0,3,4
 1115 899 1115 899 1115 755 c 0,5,6
 1115 619 1115 619 1054 544 c 0,7,8
 987 464 987 464 855 464 c 0,9,10
 701 464 701 464 568 644 c 1,11,12
 457 513 457 513 315 513 c 0,13,14
 206 513 206 513 150 586 c 0,15,16
 100 651 100 651 100 762 c 0,17,18
 100 865 100 865 152 928 c 0,19,20
 208 996 208 996 310 1001 c 1,21,-1
 312 1001 l 2,22,23
 453 1004 453 1004 569 859 c 1,24,0
 705 1046 705 1046 862 1046 c 0,1,2
718 629 m 0,26,27
 782 569 782 569 855 569 c 0,28,29
 922 569 922 569 957 597 c 0,30,31
 1010 638 1010 638 1010 755 c 0,32,33
 1010 875 1010 875 970 911 c 0,34,35
 939 940 939 940 862 940 c 0,36,37
 810 940 810 940 766 914 c 0,38,39
 710 880 710 880 622 750 c 1,40,25
 683 663 683 663 718 629 c 0,26,27
314 896 m 1,42,43
 205 890 205 890 205 762 c 0,44,45
 205 618 205 618 315 618 c 0,46,47
 422 618 422 618 519 751 c 1,48,41
 415 897 415 897 314 896 c 1,42,43
EndSplineSet
EndChar

StartChar: integral
Encoding: 8747 8747 227
Width: 608
GlyphClass: 1
Flags: W
LayerCount: 2
Fore
SplineSet
432 1376 m 0,1,2
 398 1378 398 1378 394 1369 c 0,3,4
 384 1348 384 1348 377 1246 c 0,5,6
 371 1156 371 1156 368 1014 c 0,7,8
 367 964 367 964 367 629 c 256,9,10
 367 294 367 294 366 243 c 0,11,12
 364 93 364 93 357 -1 c 0,13,14
 347 -129 347 -129 327 -168 c 0,15,16
 291 -237 291 -237 199 -243 c 0,17,18
 127 -248 127 -248 46 -215 c 0,19,20
 21 -205 21 -205 11 -181 c 256,21,22
 1 -157 1 -157 11 -132 c 0,23,24
 21 -108 21 -108 45 -98 c 256,25,26
 69 -88 69 -88 93 -97 c 0,27,28
 135 -114 135 -114 176 -117 c 0,29,30
 210 -119 210 -119 214 -110 c 0,31,32
 223 -89 223 -89 231 13 c 0,33,34
 237 103 237 103 240 245 c 0,35,36
 241 295 241 295 241 629 c 0,37,38
 241 965 241 965 242 1016 c 0,39,40
 244 1166 244 1166 251 1260 c 0,41,42
 261 1388 261 1388 281 1427 c 0,43,44
 317 1496 317 1496 409 1502 c 0,45,46
 481 1507 481 1507 562 1474 c 0,47,48
 586 1464 586 1464 597 1440 c 0,49,50
 607 1415 607 1415 597 1391 c 256,51,52
 587 1367 587 1367 563 1357 c 256,53,54
 539 1347 539 1347 515 1356 c 0,55,0
 473 1373 473 1373 432 1376 c 0,1,2
EndSplineSet
EndChar

StartChar: approxequal
Encoding: 8776 8776 228
Width: 1198
GlyphClass: 1
Flags: W
LayerCount: 2
Fore
SplineSet
408 967 m 0,1,2
 484 967 484 967 611 921 c 0,3,4
 780 860 780 860 814 860 c 0,5,6
 897 860 897 860 992 939 c 0,7,8
 1012 956 1012 956 1039 954 c 0,9,10
 1065 951 1065 951 1081 931 c 0,11,12
 1098 911 1098 911 1096 885 c 256,13,14
 1094 859 1094 859 1073 842 c 0,15,16
 943 733 943 733 814 733 c 0,17,18
 758 733 758 733 568 802 c 0,19,20
 462 840 462 840 408 840 c 0,21,22
 300 840 300 840 206 760 c 0,23,24
 186 743 186 743 160 745 c 256,25,26
 134 747 134 747 117 767 c 256,27,28
 100 787 100 787 102 813 c 256,29,30
 104 839 104 839 124 857 c 0,31,0
 252 967 252 967 408 967 c 0,1,2
408 695 m 0,33,34
 484 695 484 695 610 649 c 0,35,36
 780 588 780 588 814 588 c 0,37,38
 897 588 897 588 992 667 c 0,39,40
 1012 684 1012 684 1038 682 c 0,41,42
 1065 680 1065 680 1081 659 c 0,43,44
 1098 639 1098 639 1096 613 c 0,45,46
 1093 587 1093 587 1073 570 c 0,47,48
 943 461 943 461 814 461 c 0,49,50
 758 461 758 461 567 530 c 0,51,52
 462 568 462 568 408 568 c 0,53,54
 300 568 300 568 206 489 c 0,55,56
 186 472 186 472 160 474 c 256,57,58
 134 476 134 476 117 496 c 0,59,60
 100 515 100 515 102 542 c 0,61,62
 104 568 104 568 124 585 c 0,63,32
 252 695 252 695 408 695 c 0,33,34
EndSplineSet
EndChar

StartChar: lessequal
Encoding: 8804 8804 229
Width: 1102
GlyphClass: 1
Flags: W
LayerCount: 2
Fore
SplineSet
934 358 m 2,0,1
 960 358 960 358 978 339 c 0,2,3
 997 321 997 321 997 295 c 0,4,5
 997 268 997 268 978 250 c 0,6,7
 960 231 960 231 934 231 c 2,8,-1
 163 231 l 2,9,10
 137 231 137 231 119 250 c 0,11,12
 100 268 100 268 100 295 c 0,13,14
 100 321 100 321 119 339 c 0,15,16
 137 358 137 358 163 358 c 2,17,-1
 934 358 l 2,0,1
958 614 m 2,18,19
 982 604 982 604 992 580 c 0,20,21
 1002 555 1002 555 992 531 c 256,22,23
 982 507 982 507 958 497 c 0,24,25
 933 487 933 487 909 497 c 2,26,-1
 139 821 l 2,27,28
 100 838 100 838 100 880 c 256,29,30
 100 922 100 922 139 938 c 2,31,-1
 909 1262 l 2,32,33
 933 1272 933 1272 958 1262 c 0,34,35
 982 1252 982 1252 992 1228 c 256,36,37
 1002 1204 1002 1204 992 1179 c 0,38,39
 982 1155 982 1155 958 1145 c 2,40,-1
 327 880 l 1,41,-1
 958 614 l 2,18,19
EndSplineSet
EndChar

StartChar: greaterequal
Encoding: 8805 8805 230
Width: 1102
GlyphClass: 1
Flags: W
LayerCount: 2
Fore
SplineSet
934 358 m 2,0,1
 960 358 960 358 979 339 c 0,2,3
 997 321 997 321 997 295 c 0,4,5
 997 268 997 268 979 250 c 0,6,7
 960 231 960 231 934 231 c 2,8,-1
 163 231 l 2,9,10
 137 231 137 231 119 250 c 0,11,12
 100 268 100 268 100 295 c 0,13,14
 100 321 100 321 119 339 c 0,15,16
 137 358 137 358 163 358 c 2,17,-1
 934 358 l 2,0,1
770 880 m 1,18,-1
 139 1145 l 2,19,20
 115 1155 115 1155 105 1179 c 0,21,22
 95 1204 95 1204 105 1228 c 256,23,24
 115 1252 115 1252 140 1262 c 0,25,26
 164 1272 164 1272 188 1262 c 2,27,-1
 958 938 l 2,28,29
 997 922 997 922 997 880 c 256,30,31
 997 838 997 838 958 821 c 2,32,-1
 188 497 l 2,33,34
 164 487 164 487 140 497 c 0,35,36
 115 507 115 507 105 531 c 256,37,38
 95 555 95 555 105 580 c 0,39,40
 115 604 115 604 139 614 c 2,41,-1
 770 880 l 1,18,-1
EndSplineSet
EndChar

StartChar: uni2070
Encoding: 8304 8304 233
Width: 792
GlyphClass: 1
Flags: W
LayerCount: 2
Fore
SplineSet
647 1408 m 0,1,2
 752 1311 752 1311 752 1179 c 2,3,-1
 752 886 l 2,4,5
 752 753 752 753 647 656 c 0,6,7
 544 561 544 561 396 561 c 256,8,9
 248 561 248 561 145 656 c 0,10,11
 40 753 40 753 40 886 c 2,12,-1
 40 1179 l 2,13,14
 40 1311 40 1311 145 1408 c 0,15,16
 248 1503 248 1503 396 1503 c 256,17,0
 544 1503 544 1503 647 1408 c 0,1,2
267 1299 m 0,19,20
 212 1248 212 1248 212 1175 c 2,21,-1
 212 890 l 2,22,23
 212 817 212 817 267 765 c 0,24,25
 321 716 321 716 396 716 c 0,26,27
 470 716 470 716 526 767 c 0,28,29
 580 817 580 817 580 890 c 2,30,-1
 580 1175 l 2,31,32
 580 1248 580 1248 526 1297 c 0,33,34
 470 1349 470 1349 396 1349 c 0,35,18
 321 1349 321 1349 267 1299 c 0,19,20
EndSplineSet
EndChar

StartChar: uni00B9
Encoding: 185 185 234
Width: 437
GlyphClass: 1
Flags: W
LayerCount: 2
Fore
SplineSet
397 635 m 2,0,1
 397 606 397 606 372 582 c 0,2,3
 348 561 348 561 312 561 c 2,4,-1
 310 561 l 2,5,6
 274 561 274 561 251 582 c 0,7,8
 225 606 225 606 225 635 c 2,9,-1
 225 1352 l 1,10,-1
 125 1352 l 2,11,12
 90 1352 90 1352 64 1374 c 0,13,14
 40 1396 40 1396 40 1426 c 2,15,-1
 40 1427 l 2,16,17
 40 1457 40 1457 64 1479 c 0,18,19
 90 1502 90 1502 125 1502 c 2,20,-1
 312 1502 l 2,21,22
 348 1502 348 1502 374 1479 c 0,23,24
 397 1457 397 1457 397 1427 c 2,25,-1
 397 635 l 2,0,1
EndSplineSet
EndChar

StartChar: uni00B2
Encoding: 178 178 235
Width: 759
GlyphClass: 1
Flags: W
LayerCount: 2
Fore
SplineSet
419 1502 m 2,0,1
 542 1502 542 1502 626 1425 c 0,2,3
 712 1345 712 1345 712 1236 c 0,4,5
 712 1140 712 1140 629 1062 c 0,6,7
 579 1015 579 1015 454 943 c 0,8,9
 331 873 331 873 288 834 c 0,10,11
 217 769 217 769 217 712 c 1,12,-1
 633 712 l 2,13,14
 670 712 670 712 695 688 c 0,15,16
 719 666 719 666 719 637 c 2,17,-1
 719 635 l 2,18,19
 719 605 719 605 695 584 c 0,20,21
 670 561 670 561 633 561 c 2,22,-1
 125 561 l 2,23,24
 89 561 89 561 64 584 c 0,25,26
 40 605 40 605 40 635 c 2,27,-1
 40 692 l 2,28,29
 40 802 40 802 123 892 c 0,30,31
 180 953 180 953 300 1024 c 0,32,33
 445 1110 445 1110 470 1128 c 0,34,35
 540 1182 540 1182 540 1236 c 0,36,37
 540 1285 540 1285 503 1319 c 0,38,39
 468 1352 468 1352 419 1352 c 2,40,-1
 158 1352 l 2,41,42
 121 1352 121 1352 96 1374 c 0,43,44
 72 1396 72 1396 72 1426 c 2,45,-1
 72 1427 l 2,46,47
 72 1457 72 1457 96 1479 c 0,48,49
 121 1502 121 1502 158 1502 c 2,50,-1
 419 1502 l 2,0,1
EndSplineSet
EndChar

StartChar: uni00B3
Encoding: 179 179 236
Width: 655
GlyphClass: 1
Flags: W
LayerCount: 2
Fore
SplineSet
307 1502 m 2,0,1
 429 1502 429 1502 516 1423 c 0,2,3
 600 1345 600 1345 600 1236 c 0,4,5
 600 1113 600 1113 516 1048 c 1,6,7
 615 978 615 978 615 841 c 0,8,9
 615 726 615 726 524 642 c 0,10,11
 436 561 436 561 307 561 c 2,12,-1
 125 561 l 2,13,14
 89 561 89 561 64 584 c 0,15,16
 40 605 40 605 40 635 c 2,17,-1
 40 637 l 2,18,19
 40 666 40 666 66 690 c 0,20,21
 89 712 89 712 125 712 c 2,22,-1
 307 712 l 2,23,24
 362 712 362 712 402 748 c 0,25,26
 442 786 442 786 442 841 c 256,27,28
 442 896 442 896 402 934 c 0,29,30
 362 970 362 970 307 970 c 2,31,-1
 154 970 l 2,32,33
 117 970 117 970 94 992 c 0,34,35
 69 1015 69 1015 69 1045 c 2,36,-1
 69 1046 l 2,37,38
 69 1075 69 1075 92 1097 c 0,39,40
 117 1120 117 1120 154 1120 c 2,41,-1
 307 1121 l 2,42,43
 356 1121 356 1121 391 1153 c 0,44,45
 427 1187 427 1187 427 1236 c 256,46,47
 427 1285 427 1285 391 1319 c 0,48,49
 356 1352 356 1352 307 1352 c 2,50,-1
 125 1352 l 2,51,52
 90 1352 90 1352 64 1374 c 0,53,54
 40 1396 40 1396 40 1426 c 2,55,-1
 40 1427 l 2,56,57
 40 1457 40 1457 64 1479 c 0,58,59
 90 1502 90 1502 125 1502 c 2,60,-1
 307 1502 l 2,0,1
EndSplineSet
EndChar

StartChar: uni2074
Encoding: 8308 8308 237
Width: 847
GlyphClass: 1
Flags: W
LayerCount: 2
Fore
SplineSet
395 1462 m 2,0,1
 419 1502 419 1502 471 1502 c 2,2,-1
 568 1502 l 2,3,4
 604 1502 604 1502 630 1479 c 0,5,6
 654 1457 654 1457 654 1427 c 2,7,-1
 654 886 l 1,8,-1
 722 886 l 2,9,10
 758 886 758 886 784 862 c 0,11,12
 807 840 807 840 807 811 c 2,13,-1
 807 809 l 2,14,15
 807 780 807 780 782 756 c 0,16,17
 758 735 758 735 722 735 c 2,18,-1
 654 735 l 1,19,-1
 654 635 l 2,20,21
 654 605 654 605 630 584 c 0,22,23
 604 561 604 561 568 561 c 2,24,-1
 567 561 l 2,25,26
 531 561 531 561 505 584 c 0,27,28
 481 605 481 605 481 635 c 2,29,-1
 481 735 l 1,30,-1
 125 735 l 2,31,32
 89 735 89 735 64 758 c 0,33,34
 40 779 40 779 40 809 c 2,35,-1
 40 851 l 2,36,37
 40 870 40 870 49 886 c 2,38,-1
 395 1462 l 2,0,1
481 886 m 1,39,-1
 481 1282 l 1,40,-1
 244 886 l 1,41,-1
 481 886 l 1,39,-1
EndSplineSet
EndChar

StartChar: uni2075
Encoding: 8309 8309 238
Width: 733
GlyphClass: 1
Flags: W
LayerCount: 2
Fore
SplineSet
125 970 m 2,0,1
 89 970 89 970 64 993 c 0,2,3
 40 1015 40 1015 40 1045 c 2,4,-1
 40 1427 l 2,5,6
 40 1457 40 1457 64 1479 c 0,7,8
 90 1502 90 1502 125 1502 c 2,9,-1
 522 1502 l 2,10,11
 557 1502 557 1502 583 1479 c 0,12,13
 607 1457 607 1457 607 1427 c 2,14,-1
 607 1426 l 2,15,16
 607 1396 607 1396 583 1374 c 0,17,18
 557 1352 557 1352 522 1352 c 2,19,-1
 212 1352 l 1,20,-1
 212 1120 l 1,21,-1
 385 1120 l 2,22,23
 513 1120 513 1120 604 1037 c 0,24,25
 693 956 693 956 693 841 c 256,26,27
 693 726 693 726 602 642 c 0,28,29
 513 561 513 561 385 561 c 2,30,-1
 125 561 l 2,31,32
 89 561 89 561 64 584 c 0,33,34
 40 605 40 605 40 635 c 2,35,-1
 40 637 l 2,36,37
 40 666 40 666 66 690 c 0,38,39
 89 712 89 712 125 712 c 2,40,-1
 385 712 l 2,41,42
 440 712 440 712 479 748 c 0,43,44
 520 786 520 786 520 841 c 256,45,46
 520 896 520 896 479 934 c 0,47,48
 440 970 440 970 385 970 c 2,49,-1
 125 970 l 2,0,1
EndSplineSet
EndChar

StartChar: uni2076
Encoding: 8310 8310 239
Width: 781
GlyphClass: 1
Flags: W
LayerCount: 2
Fore
SplineSet
212 970 m 1,0,-1
 212 841 l 2,1,2
 212 786 212 786 253 748 c 0,3,4
 293 712 293 712 347 712 c 2,5,-1
 433 712 l 2,6,7
 488 712 488 712 527 748 c 0,8,9
 568 786 568 786 568 841 c 256,10,11
 568 896 568 896 527 934 c 0,12,13
 488 970 488 970 433 970 c 2,14,-1
 212 970 l 1,0,-1
347 561 m 2,15,16
 219 561 219 561 131 642 c 0,17,18
 40 726 40 726 40 841 c 2,19,-1
 40 1222 l 2,20,21
 40 1337 40 1337 129 1418 c 0,22,23
 219 1502 219 1502 347 1502 c 2,24,-1
 546 1502 l 2,25,26
 582 1502 582 1502 608 1479 c 0,27,28
 632 1457 632 1457 632 1427 c 2,29,-1
 632 1426 l 2,30,31
 632 1396 632 1396 608 1374 c 0,32,33
 582 1352 582 1352 546 1352 c 2,34,-1
 347 1352 l 2,35,36
 293 1352 293 1352 251 1313 c 0,37,38
 212 1277 212 1277 212 1222 c 2,39,-1
 212 1120 l 1,40,-1
 433 1120 l 2,41,42
 561 1120 561 1120 652 1037 c 0,43,44
 741 956 741 956 741 841 c 256,45,46
 741 726 741 726 650 642 c 0,47,48
 561 561 561 561 433 561 c 2,49,-1
 347 561 l 2,15,16
EndSplineSet
EndChar

StartChar: uni2077
Encoding: 8311 8311 240
Width: 691
GlyphClass: 1
Flags: W
LayerCount: 2
Fore
SplineSet
651 635 m 2,0,1
 651 606 651 606 626 582 c 0,2,3
 602 561 602 561 566 561 c 2,4,-1
 565 561 l 2,5,6
 528 561 528 561 503 584 c 0,7,8
 479 605 479 605 479 635 c 2,9,-1
 479 1352 l 1,10,-1
 125 1352 l 2,11,12
 90 1352 90 1352 64 1374 c 0,13,14
 40 1396 40 1396 40 1426 c 2,15,-1
 40 1427 l 2,16,17
 40 1457 40 1457 64 1479 c 0,18,19
 90 1502 90 1502 125 1502 c 2,20,-1
 566 1502 l 2,21,22
 602 1502 602 1502 628 1479 c 0,23,24
 651 1457 651 1457 651 1427 c 2,25,-1
 651 635 l 2,0,1
EndSplineSet
EndChar

StartChar: uni2078
Encoding: 8312 8312 241
Width: 792
GlyphClass: 1
Flags: W
LayerCount: 2
Fore
SplineSet
445 1502 m 2,0,1
 567 1502 567 1502 653 1423 c 0,2,3
 738 1345 738 1345 738 1236 c 0,4,5
 738 1113 738 1113 654 1048 c 1,6,7
 752 978 752 978 752 841 c 0,8,9
 752 726 752 726 664 644 c 0,10,11
 574 561 574 561 445 561 c 2,12,-1
 347 561 l 2,13,14
 219 561 219 561 131 642 c 0,15,16
 40 726 40 726 40 841 c 0,17,18
 40 978 40 978 139 1048 c 1,19,20
 55 1113 55 1113 55 1236 c 0,21,22
 55 1345 55 1345 141 1425 c 0,23,24
 225 1502 225 1502 347 1502 c 2,25,-1
 445 1502 l 2,0,1
445 712 m 2,26,27
 500 712 500 712 541 750 c 0,28,29
 580 786 580 786 580 841 c 0,30,31
 580 895 580 895 539 934 c 0,32,33
 500 970 500 970 445 970 c 2,34,-1
 347 970 l 2,35,36
 293 970 293 970 251 932 c 0,37,38
 212 895 212 895 212 841 c 0,39,40
 212 786 212 786 253 748 c 0,41,42
 293 712 293 712 347 712 c 2,43,-1
 445 712 l 2,26,27
445 1121 m 2,44,45
 494 1121 494 1121 529 1153 c 0,46,47
 565 1187 565 1187 565 1236 c 256,48,49
 565 1285 565 1285 528 1319 c 0,50,51
 493 1352 493 1352 445 1352 c 2,52,-1
 347 1352 l 2,53,54
 299 1352 299 1352 264 1319 c 0,55,56
 227 1285 227 1285 227 1236 c 256,57,58
 227 1187 227 1187 264 1153 c 0,59,60
 299 1121 299 1121 347 1121 c 2,61,-1
 445 1121 l 2,44,45
EndSplineSet
EndChar

StartChar: uni2079
Encoding: 8313 8313 242
Width: 781
GlyphClass: 1
Flags: W
LayerCount: 2
Fore
SplineSet
568 1093 m 1,0,-1
 568 1222 l 2,1,2
 568 1277 568 1277 529 1313 c 0,3,4
 488 1352 488 1352 433 1352 c 2,5,-1
 347 1352 l 2,6,7
 293 1352 293 1352 251 1313 c 0,8,9
 212 1277 212 1277 212 1222 c 256,10,11
 212 1167 212 1167 251 1131 c 0,12,13
 293 1093 293 1093 347 1093 c 2,14,-1
 568 1093 l 1,0,-1
433 1502 m 2,15,16
 561 1502 561 1502 652 1418 c 0,17,18
 741 1337 741 1337 741 1222 c 2,19,-1
 741 841 l 2,20,21
 741 726 741 726 650 642 c 0,22,23
 561 561 561 561 433 561 c 2,24,-1
 178 561 l 2,25,26
 141 561 141 561 118 582 c 0,27,28
 93 606 93 606 93 635 c 2,29,-1
 93 637 l 2,30,31
 93 666 93 666 116 688 c 0,32,33
 141 712 141 712 178 712 c 2,34,-1
 433 712 l 2,35,36
 488 712 488 712 527 748 c 0,37,38
 568 786 568 786 568 841 c 2,39,-1
 568 942 l 1,40,-1
 347 942 l 2,41,42
 219 942 219 942 131 1024 c 0,43,44
 40 1108 40 1108 40 1222 c 0,45,46
 40 1337 40 1337 129 1418 c 0,47,48
 219 1502 219 1502 347 1502 c 2,49,-1
 433 1502 l 2,15,16
EndSplineSet
EndChar

StartChar: uni207A
Encoding: 8314 8314 243
Width: 777
GlyphClass: 1
Flags: W
LayerCount: 2
Fore
SplineSet
475 1006 m 1,0,-1
 651 1006 l 2,1,2
 688 1006 688 1006 711 984 c 0,3,4
 737 960 737 960 737 930 c 2,5,-1
 737 929 l 2,6,7
 737 899 737 899 713 878 c 0,8,9
 688 855 688 855 651 855 c 2,10,-1
 475 855 l 1,11,-1
 475 688 l 2,12,13
 475 658 475 658 449 634 c 0,14,15
 426 613 426 613 389 613 c 2,16,-1
 388 613 l 2,17,18
 351 613 351 613 326 636 c 0,19,20
 303 658 303 658 303 688 c 2,21,-1
 303 855 l 1,22,-1
 125 855 l 2,23,24
 88 855 88 855 64 878 c 0,25,26
 40 899 40 899 40 929 c 2,27,-1
 40 930 l 2,28,29
 40 960 40 960 64 982 c 0,30,31
 88 1006 88 1006 125 1006 c 2,32,-1
 303 1006 l 1,33,-1
 303 1173 l 2,34,35
 303 1203 303 1203 326 1224 c 0,36,37
 351 1248 351 1248 388 1248 c 2,38,-1
 389 1248 l 2,39,40
 426 1248 426 1248 451 1225 c 0,41,42
 475 1203 475 1203 475 1173 c 2,43,-1
 475 1006 l 1,0,-1
EndSplineSet
EndChar

StartChar: uni207B
Encoding: 8315 8315 244
Width: 647
GlyphClass: 1
Flags: W
LayerCount: 2
Fore
SplineSet
607 768 m 2,0,1
 607 738 607 738 583 716 c 0,2,3
 558 693 558 693 521 693 c 2,4,-1
 125 693 l 2,5,6
 88 693 88 693 64 717 c 0,7,8
 40 738 40 738 40 768 c 2,9,-1
 40 769 l 2,10,11
 40 799 40 799 64 820 c 0,12,13
 88 844 88 844 125 844 c 2,14,-1
 521 844 l 2,15,16
 558 844 558 844 581 822 c 0,17,18
 607 799 607 799 607 769 c 2,19,-1
 607 768 l 2,0,1
EndSplineSet
EndChar

StartChar: uni207C
Encoding: 8316 8316 245
Width: 777
GlyphClass: 1
Flags: W
LayerCount: 2
Fore
SplineSet
737 717 m 2,0,1
 737 687 737 687 713 665 c 0,2,3
 688 642 688 642 651 642 c 2,4,-1
 125 642 l 2,5,6
 88 642 88 642 64 666 c 0,7,8
 40 687 40 687 40 717 c 2,9,-1
 40 718 l 2,10,11
 40 748 40 748 64 769 c 0,12,13
 88 793 88 793 125 793 c 2,14,-1
 651 793 l 2,15,16
 688 793 688 793 711 771 c 0,17,18
 737 748 737 748 737 718 c 2,19,-1
 737 717 l 2,0,1
737 978 m 2,20,21
 737 948 737 948 713 926 c 0,22,23
 688 903 688 903 651 903 c 2,24,-1
 125 903 l 2,25,26
 88 903 88 903 64 927 c 0,27,28
 40 948 40 948 40 978 c 2,29,-1
 40 979 l 2,30,31
 40 1009 40 1009 64 1030 c 0,32,33
 88 1054 88 1054 125 1054 c 2,34,-1
 651 1054 l 2,35,36
 688 1054 688 1054 711 1032 c 0,37,38
 737 1009 737 1009 737 979 c 2,39,-1
 737 978 l 2,20,21
EndSplineSet
EndChar

StartChar: uni2071
Encoding: 8305 8305 246
Width: 275
GlyphClass: 1
Flags: W
LayerCount: 2
Fore
SplineSet
138 1256 m 2,0,1
 175 1256 175 1256 200 1232 c 0,2,3
 223 1210 223 1210 223 1180 c 2,4,-1
 223 635 l 2,5,6
 223 605 223 605 200 584 c 0,7,8
 175 560 175 560 138 560 c 2,9,-1
 137 560 l 2,10,11
 100 560 100 560 75 584 c 0,12,13
 51 605 51 605 51 635 c 2,14,-1
 51 1180 l 2,15,16
 51 1210 51 1210 77 1234 c 0,17,18
 100 1256 100 1256 137 1256 c 2,19,-1
 138 1256 l 2,0,1
138 1330 m 0,20,21
 96 1330 96 1330 69 1354 c 0,22,23
 40 1381 40 1381 40 1416 c 0,24,25
 40 1450 40 1450 69 1476 c 0,26,27
 96 1501 96 1501 138 1501 c 0,28,29
 179 1501 179 1501 207 1475 c 0,30,31
 235 1450 235 1450 235 1416 c 0,32,33
 235 1381 235 1381 207 1356 c 0,34,35
 179 1330 179 1330 138 1330 c 0,20,21
EndSplineSet
EndChar

StartChar: uni207D
Encoding: 8317 8317 247
Width: 465
GlyphClass: 1
Flags: W
LayerCount: 2
Fore
SplineSet
119 434 m 256,1,2
 40 524 40 524 40 638 c 2,3,-1
 40 1183 l 2,4,5
 40 1297 40 1297 119 1387 c 256,6,7
 198 1477 198 1477 320 1502 c 0,8,9
 362 1511 362 1511 394 1487 c 0,10,11
 425 1465 425 1465 425 1429 c 2,12,-1
 425 1424 l 2,13,14
 425 1399 425 1399 406 1376 c 0,15,16
 389 1357 389 1357 359 1351 c 0,17,18
 295 1338 295 1338 252 1291 c 0,19,20
 206 1242 206 1242 206 1179 c 2,21,-1
 206 642 l 2,22,23
 206 579 206 579 252 530 c 0,24,25
 295 483 295 483 359 470 c 0,26,27
 389 464 389 464 406 445 c 0,28,29
 425 423 425 423 425 397 c 2,30,-1
 425 392 l 2,31,32
 425 357 425 357 394 334 c 0,33,34
 362 310 362 310 320 319 c 0,35,0
 198 344 198 344 119 434 c 256,1,2
EndSplineSet
EndChar

StartChar: uni207E
Encoding: 8318 8318 248
Width: 465
GlyphClass: 1
Flags: W
LayerCount: 2
Fore
SplineSet
145 319 m 0,0,1
 104 310 104 310 71 334 c 0,2,3
 40 357 40 357 40 392 c 2,4,-1
 40 397 l 2,5,6
 40 423 40 423 59 445 c 0,7,8
 76 464 76 464 106 470 c 0,9,10
 171 483 171 483 214 530 c 0,11,12
 259 579 259 579 259 642 c 2,13,-1
 259 1179 l 2,14,15
 259 1242 259 1242 214 1291 c 0,16,17
 171 1338 171 1338 106 1351 c 0,18,19
 76 1357 76 1357 59 1376 c 0,20,21
 40 1399 40 1399 40 1424 c 2,22,-1
 40 1429 l 2,23,24
 40 1465 40 1465 71 1487 c 0,25,26
 104 1511 104 1511 145 1502 c 0,27,28
 267 1477 267 1477 346 1387 c 256,29,30
 425 1297 425 1297 425 1183 c 2,31,-1
 425 638 l 2,32,33
 425 524 425 524 346 434 c 256,34,35
 267 344 267 344 145 319 c 0,0,1
EndSplineSet
EndChar

StartChar: uni207F
Encoding: 8319 8319 249
Width: 722
GlyphClass: 1
Flags: W
LayerCount: 2
Fore
SplineSet
212 881 m 2,0,1
 212 851 212 851 188 830 c 0,2,3
 163 807 163 807 127 807 c 2,4,-1
 125 807 l 2,5,6
 89 807 89 807 64 830 c 0,7,8
 40 851 40 851 40 881 c 2,9,-1
 40 1210 l 2,10,11
 40 1329 40 1329 135 1417 c 0,12,13
 227 1502 227 1502 361 1502 c 256,14,15
 495 1502 495 1502 587 1417 c 0,16,17
 682 1329 682 1329 682 1210 c 2,18,-1
 682 881 l 2,19,20
 682 851 682 851 658 830 c 0,21,22
 633 807 633 807 596 807 c 2,23,-1
 595 807 l 2,24,25
 559 807 559 807 533 830 c 0,26,27
 509 851 509 851 509 881 c 2,28,-1
 509 1210 l 2,29,30
 509 1269 509 1269 465 1311 c 0,31,32
 421 1351 421 1351 361 1351 c 0,33,34
 300 1351 300 1351 257 1311 c 0,35,36
 212 1269 212 1269 212 1210 c 2,37,-1
 212 881 l 2,0,1
EndSplineSet
EndChar

StartChar: uni2080
Encoding: 8320 8320 250
Width: 792
GlyphClass: 1
Flags: W
LayerCount: 2
Fore
SplineSet
647 376 m 0,1,2
 752 279 752 279 752 147 c 2,3,-1
 752 -146 l 2,4,5
 752 -279 752 -279 647 -376 c 0,6,7
 544 -471 544 -471 396 -471 c 256,8,9
 248 -471 248 -471 145 -376 c 0,10,11
 40 -279 40 -279 40 -146 c 2,12,-1
 40 147 l 2,13,14
 40 279 40 279 145 376 c 0,15,16
 248 471 248 471 396 471 c 256,17,0
 544 471 544 471 647 376 c 0,1,2
267 267 m 0,19,20
 212 216 212 216 212 143 c 2,21,-1
 212 -142 l 2,22,23
 212 -215 212 -215 267 -267 c 0,24,25
 321 -316 321 -316 396 -316 c 0,26,27
 470 -316 470 -316 526 -265 c 0,28,29
 580 -215 580 -215 580 -142 c 2,30,-1
 580 143 l 2,31,32
 580 216 580 216 526 265 c 0,33,34
 470 317 470 317 396 317 c 0,35,18
 321 317 321 317 267 267 c 0,19,20
EndSplineSet
EndChar

StartChar: uni2081
Encoding: 8321 8321 251
Width: 437
GlyphClass: 1
Flags: W
LayerCount: 2
Fore
SplineSet
397 -396 m 2,0,1
 397 -426 397 -426 372 -449 c 0,2,3
 348 -471 348 -471 312 -471 c 2,4,-1
 310 -471 l 2,5,6
 274 -471 274 -471 251 -449 c 0,7,8
 225 -426 225 -426 225 -396 c 2,9,-1
 225 320 l 1,10,-1
 125 320 l 2,11,12
 90 320 90 320 64 343 c 0,13,14
 40 365 40 365 40 395 c 2,15,-1
 40 396 l 2,16,17
 40 426 40 426 64 448 c 0,18,19
 90 471 90 471 125 471 c 2,20,-1
 312 471 l 2,21,22
 348 471 348 471 374 448 c 0,23,24
 397 426 397 426 397 396 c 2,25,-1
 397 -396 l 2,0,1
EndSplineSet
EndChar

StartChar: uni2082
Encoding: 8322 8322 252
Width: 759
GlyphClass: 1
Flags: W
LayerCount: 2
Fore
SplineSet
419 471 m 2,0,1
 542 471 542 471 626 393 c 0,2,3
 712 314 712 314 712 205 c 0,4,5
 712 109 712 109 629 31 c 0,6,7
 579 -16 579 -16 454 -88 c 0,8,9
 331 -159 331 -159 288 -198 c 0,10,11
 217 -262 217 -262 217 -320 c 1,12,-1
 633 -320 l 2,13,14
 670 -320 670 -320 695 -343 c 0,15,16
 719 -365 719 -365 719 -395 c 2,17,-1
 719 -396 l 2,18,19
 719 -426 719 -426 695 -447 c 0,20,21
 670 -471 670 -471 633 -471 c 2,22,-1
 125 -471 l 2,23,24
 89 -471 89 -471 64 -447 c 0,25,26
 40 -426 40 -426 40 -396 c 2,27,-1
 40 -340 l 2,28,29
 40 -230 40 -230 123 -140 c 0,30,31
 180 -78 180 -78 300 -8 c 0,32,33
 445 79 445 79 470 97 c 0,34,35
 540 151 540 151 540 205 c 0,36,37
 540 253 540 253 503 287 c 0,38,39
 468 320 468 320 419 320 c 2,40,-1
 158 320 l 2,41,42
 121 320 121 320 96 343 c 0,43,44
 72 365 72 365 72 395 c 2,45,-1
 72 396 l 2,46,47
 72 426 72 426 96 448 c 0,48,49
 121 471 121 471 158 471 c 2,50,-1
 419 471 l 2,0,1
EndSplineSet
EndChar

StartChar: uni2083
Encoding: 8323 8323 253
Width: 655
GlyphClass: 1
Flags: W
LayerCount: 2
Fore
SplineSet
307 471 m 2,0,1
 429 471 429 471 516 391 c 0,2,3
 600 314 600 314 600 205 c 0,4,5
 600 81 600 81 516 16 c 1,6,7
 615 -54 615 -54 615 -191 c 0,8,9
 615 -305 615 -305 524 -389 c 0,10,11
 436 -471 436 -471 307 -471 c 2,12,-1
 125 -471 l 2,13,14
 89 -471 89 -471 64 -447 c 0,15,16
 40 -426 40 -426 40 -396 c 2,17,-1
 40 -395 l 2,18,19
 40 -365 40 -365 66 -341 c 0,20,21
 89 -320 89 -320 125 -320 c 2,22,-1
 307 -320 l 2,23,24
 362 -320 362 -320 402 -284 c 0,25,26
 442 -246 442 -246 442 -191 c 256,27,28
 442 -136 442 -136 402 -98 c 0,29,30
 362 -61 362 -61 307 -61 c 2,31,-1
 154 -61 l 2,32,33
 117 -61 117 -61 94 -40 c 0,34,35
 69 -17 69 -17 69 13 c 2,36,-1
 69 14 l 2,37,38
 69 44 69 44 92 66 c 0,39,40
 117 89 117 89 154 89 c 2,41,-1
 307 90 l 2,42,43
 356 90 356 90 391 121 c 0,44,45
 427 155 427 155 427 205 c 0,46,47
 427 253 427 253 391 287 c 0,48,49
 356 320 356 320 307 320 c 2,50,-1
 125 320 l 2,51,52
 90 320 90 320 64 343 c 0,53,54
 40 365 40 365 40 395 c 2,55,-1
 40 396 l 2,56,57
 40 426 40 426 64 448 c 0,58,59
 90 471 90 471 125 471 c 2,60,-1
 307 471 l 2,0,1
EndSplineSet
EndChar

StartChar: uni2084
Encoding: 8324 8324 254
Width: 847
GlyphClass: 1
Flags: W
LayerCount: 2
Fore
SplineSet
395 430 m 2,0,1
 419 471 419 471 471 471 c 2,2,-1
 568 471 l 2,3,4
 604 471 604 471 630 448 c 0,5,6
 654 426 654 426 654 396 c 2,7,-1
 654 -146 l 1,8,-1
 722 -146 l 2,9,10
 758 -146 758 -146 784 -169 c 0,11,12
 807 -191 807 -191 807 -221 c 2,13,-1
 807 -222 l 2,14,15
 807 -252 807 -252 782 -275 c 0,16,17
 758 -297 758 -297 722 -297 c 2,18,-1
 654 -297 l 1,19,-1
 654 -396 l 2,20,21
 654 -426 654 -426 630 -447 c 0,22,23
 604 -471 604 -471 568 -471 c 2,24,-1
 567 -471 l 2,25,26
 531 -471 531 -471 505 -447 c 0,27,28
 481 -426 481 -426 481 -396 c 2,29,-1
 481 -297 l 1,30,-1
 125 -297 l 2,31,32
 89 -297 89 -297 64 -273 c 0,33,34
 40 -252 40 -252 40 -222 c 2,35,-1
 40 -180 l 2,36,37
 40 -162 40 -162 49 -146 c 2,38,-1
 395 430 l 2,0,1
481 -146 m 1,39,-1
 481 251 l 1,40,-1
 244 -146 l 1,41,-1
 481 -146 l 1,39,-1
EndSplineSet
EndChar

StartChar: uni2085
Encoding: 8325 8325 255
Width: 733
GlyphClass: 1
Flags: W
LayerCount: 2
Fore
SplineSet
125 -61 m 2,0,1
 89 -61 89 -61 64 -38 c 0,2,3
 40 -17 40 -17 40 13 c 2,4,-1
 40 396 l 2,5,6
 40 426 40 426 64 448 c 0,7,8
 90 471 90 471 125 471 c 2,9,-1
 522 471 l 2,10,11
 557 471 557 471 583 448 c 0,12,13
 607 426 607 426 607 396 c 2,14,-1
 607 395 l 2,15,16
 607 365 607 365 583 343 c 0,17,18
 557 320 557 320 522 320 c 2,19,-1
 212 320 l 1,20,-1
 212 89 l 1,21,-1
 385 89 l 2,22,23
 513 89 513 89 604 6 c 0,24,25
 693 -76 693 -76 693 -191 c 0,26,27
 693 -305 693 -305 602 -389 c 0,28,29
 513 -471 513 -471 385 -471 c 2,30,-1
 125 -471 l 2,31,32
 89 -471 89 -471 64 -447 c 0,33,34
 40 -426 40 -426 40 -396 c 2,35,-1
 40 -395 l 2,36,37
 40 -365 40 -365 66 -341 c 0,38,39
 89 -320 89 -320 125 -320 c 2,40,-1
 385 -320 l 2,41,42
 440 -320 440 -320 479 -284 c 0,43,44
 520 -246 520 -246 520 -191 c 256,45,46
 520 -136 520 -136 479 -98 c 0,47,48
 440 -61 440 -61 385 -61 c 2,49,-1
 125 -61 l 2,0,1
EndSplineSet
EndChar

StartChar: uni2086
Encoding: 8326 8326 256
Width: 781
GlyphClass: 1
Flags: W
LayerCount: 2
Fore
SplineSet
212 -61 m 1,0,-1
 212 -191 l 2,1,2
 212 -246 212 -246 253 -284 c 0,3,4
 293 -320 293 -320 347 -320 c 2,5,-1
 433 -320 l 2,6,7
 488 -320 488 -320 527 -284 c 0,8,9
 568 -246 568 -246 568 -191 c 256,10,11
 568 -136 568 -136 527 -98 c 0,12,13
 488 -61 488 -61 433 -61 c 2,14,-1
 212 -61 l 1,0,-1
347 -471 m 2,15,16
 219 -471 219 -471 131 -389 c 0,17,18
 40 -305 40 -305 40 -191 c 2,19,-1
 40 191 l 2,20,21
 40 306 40 306 129 387 c 0,22,23
 219 471 219 471 347 471 c 2,24,-1
 546 471 l 2,25,26
 582 471 582 471 608 448 c 0,27,28
 632 426 632 426 632 396 c 2,29,-1
 632 395 l 2,30,31
 632 365 632 365 608 343 c 0,32,33
 582 320 582 320 546 320 c 2,34,-1
 347 320 l 2,35,36
 293 320 293 320 251 282 c 0,37,38
 212 246 212 246 212 191 c 2,39,-1
 212 89 l 1,40,-1
 433 89 l 2,41,42
 561 89 561 89 652 6 c 0,43,44
 741 -76 741 -76 741 -191 c 0,45,46
 741 -305 741 -305 650 -389 c 0,47,48
 561 -471 561 -471 433 -471 c 2,49,-1
 347 -471 l 2,15,16
EndSplineSet
EndChar

StartChar: uni2087
Encoding: 8327 8327 257
Width: 691
GlyphClass: 1
Flags: W
LayerCount: 2
Fore
SplineSet
651 -396 m 2,0,1
 651 -426 651 -426 626 -449 c 0,2,3
 602 -471 602 -471 566 -471 c 2,4,-1
 565 -471 l 2,5,6
 528 -471 528 -471 503 -447 c 0,7,8
 479 -426 479 -426 479 -396 c 2,9,-1
 479 320 l 1,10,-1
 125 320 l 2,11,12
 90 320 90 320 64 343 c 0,13,14
 40 365 40 365 40 395 c 2,15,-1
 40 396 l 2,16,17
 40 426 40 426 64 448 c 0,18,19
 90 471 90 471 125 471 c 2,20,-1
 566 471 l 2,21,22
 602 471 602 471 628 448 c 0,23,24
 651 426 651 426 651 396 c 2,25,-1
 651 -396 l 2,0,1
EndSplineSet
EndChar

StartChar: uni2088
Encoding: 8328 8328 258
Width: 792
GlyphClass: 1
Flags: W
LayerCount: 2
Fore
SplineSet
445 471 m 2,0,1
 567 471 567 471 653 391 c 0,2,3
 738 314 738 314 738 205 c 0,4,5
 738 81 738 81 654 16 c 1,6,7
 752 -54 752 -54 752 -191 c 0,8,9
 752 -305 752 -305 664 -387 c 0,10,11
 574 -471 574 -471 445 -471 c 2,12,-1
 347 -471 l 2,13,14
 219 -471 219 -471 131 -389 c 0,15,16
 40 -305 40 -305 40 -191 c 0,17,18
 40 -54 40 -54 139 16 c 1,19,20
 55 81 55 81 55 205 c 0,21,22
 55 314 55 314 141 393 c 0,23,24
 225 471 225 471 347 471 c 2,25,-1
 445 471 l 2,0,1
445 -320 m 2,26,27
 500 -320 500 -320 541 -282 c 0,28,29
 580 -246 580 -246 580 -191 c 256,30,31
 580 -136 580 -136 539 -98 c 0,32,33
 500 -61 500 -61 445 -61 c 2,34,-1
 347 -61 l 2,35,36
 293 -61 293 -61 251 -100 c 0,37,38
 212 -136 212 -136 212 -191 c 256,39,40
 212 -246 212 -246 253 -284 c 0,41,42
 293 -320 293 -320 347 -320 c 2,43,-1
 445 -320 l 2,26,27
445 90 m 2,44,45
 494 90 494 90 529 121 c 0,46,47
 565 155 565 155 565 205 c 0,48,49
 565 253 565 253 528 287 c 0,50,51
 493 320 493 320 445 320 c 2,52,-1
 347 320 l 2,53,54
 299 320 299 320 264 287 c 0,55,56
 227 253 227 253 227 205 c 0,57,58
 227 155 227 155 264 121 c 0,59,60
 299 90 299 90 347 90 c 2,61,-1
 445 90 l 2,44,45
EndSplineSet
EndChar

StartChar: uni2089
Encoding: 8329 8329 259
Width: 781
GlyphClass: 1
Flags: W
LayerCount: 2
Fore
SplineSet
568 61 m 1,0,-1
 568 191 l 2,1,2
 568 246 568 246 529 282 c 0,3,4
 488 320 488 320 433 320 c 2,5,-1
 347 320 l 2,6,7
 293 320 293 320 251 282 c 0,8,9
 212 246 212 246 212 191 c 256,10,11
 212 136 212 136 251 100 c 0,12,13
 293 61 293 61 347 61 c 2,14,-1
 568 61 l 1,0,-1
433 471 m 2,15,16
 561 471 561 471 652 387 c 0,17,18
 741 306 741 306 741 191 c 2,19,-1
 741 -191 l 2,20,21
 741 -305 741 -305 650 -389 c 0,22,23
 561 -471 561 -471 433 -471 c 2,24,-1
 178 -471 l 2,25,26
 141 -471 141 -471 118 -449 c 0,27,28
 93 -426 93 -426 93 -396 c 2,29,-1
 93 -395 l 2,30,31
 93 -365 93 -365 116 -343 c 0,32,33
 141 -320 141 -320 178 -320 c 2,34,-1
 433 -320 l 2,35,36
 488 -320 488 -320 527 -284 c 0,37,38
 568 -246 568 -246 568 -191 c 2,39,-1
 568 -89 l 1,40,-1
 347 -89 l 2,41,42
 219 -89 219 -89 131 -7 c 0,43,44
 40 76 40 76 40 191 c 256,45,46
 40 306 40 306 129 387 c 0,47,48
 219 471 219 471 347 471 c 2,49,-1
 433 471 l 2,15,16
EndSplineSet
EndChar

